M48
;DRILL file {KiCad 5.0.2+dfsg1-1} date Sat 21 Nov 2020 04:46:30 PM GMT
;FORMAT={-:-/ absolute / metric / decimal}
FMAT,2
METRIC,TZ
T1C2.000
T2C2.400
T3C3.000
%
G90
G05
T1
X138.764Y-58.547
X138.764Y-82.423
X185.754Y-58.547
X185.754Y-82.423
X87.71Y-58.547
X87.71Y-82.423
X134.7Y-58.547
X134.7Y-82.423
T2
X125.5Y-128.3
T3
X171.492Y-87.99
X171.492Y-132.99
X198.492Y-87.99
X198.492Y-132.99
X106.976Y-87.99
X106.976Y-132.99
X133.976Y-87.99
X133.976Y-132.99
X139.234Y-87.99
X139.234Y-132.99
X166.234Y-87.99
X166.234Y-132.99
X74.718Y-87.99
X74.718Y-132.99
X101.718Y-87.99
X101.718Y-132.99
T0
M30
