G04 #@! TF.GenerationSoftware,KiCad,Pcbnew,5.0.2+dfsg1-1*
G04 #@! TF.CreationDate,2020-11-21T16:53:29+00:00*
G04 #@! TF.ProjectId,van,76616e2e-6b69-4636-9164-5f7063625858,rev?*
G04 #@! TF.SameCoordinates,Original*
G04 #@! TF.FileFunction,Legend,Bot*
G04 #@! TF.FilePolarity,Positive*
%FSLAX46Y46*%
G04 Gerber Fmt 4.6, Leading zero omitted, Abs format (unit mm)*
G04 Created by KiCad (PCBNEW 5.0.2+dfsg1-1) date Sat 21 Nov 2020 04:53:29 PM GMT*
%MOMM*%
%LPD*%
G01*
G04 APERTURE LIST*
%ADD10C,0.150000*%
%ADD11C,0.200000*%
%ADD12C,0.120000*%
%ADD13C,0.066040*%
%ADD14C,0.127000*%
%ADD15C,0.152400*%
G04 APERTURE END LIST*
D10*
X118097500Y-145052380D02*
X118097500Y-144052380D01*
X117716547Y-144052380D01*
X117621309Y-144100000D01*
X117573690Y-144147619D01*
X117526071Y-144242857D01*
X117526071Y-144385714D01*
X117573690Y-144480952D01*
X117621309Y-144528571D01*
X117716547Y-144576190D01*
X118097500Y-144576190D01*
X117145119Y-144766666D02*
X116668928Y-144766666D01*
X117240357Y-145052380D02*
X116907023Y-144052380D01*
X116573690Y-145052380D01*
X116383214Y-144052380D02*
X115811785Y-144052380D01*
X116097500Y-145052380D02*
X116097500Y-144052380D01*
X114907023Y-145052380D02*
X115240357Y-144576190D01*
X115478452Y-145052380D02*
X115478452Y-144052380D01*
X115097500Y-144052380D01*
X115002261Y-144100000D01*
X114954642Y-144147619D01*
X114907023Y-144242857D01*
X114907023Y-144385714D01*
X114954642Y-144480952D01*
X115002261Y-144528571D01*
X115097500Y-144576190D01*
X115478452Y-144576190D01*
X114478452Y-145052380D02*
X114478452Y-144052380D01*
X113430833Y-144957142D02*
X113478452Y-145004761D01*
X113621309Y-145052380D01*
X113716547Y-145052380D01*
X113859404Y-145004761D01*
X113954642Y-144909523D01*
X114002261Y-144814285D01*
X114049880Y-144623809D01*
X114049880Y-144480952D01*
X114002261Y-144290476D01*
X113954642Y-144195238D01*
X113859404Y-144100000D01*
X113716547Y-144052380D01*
X113621309Y-144052380D01*
X113478452Y-144100000D01*
X113430833Y-144147619D01*
X113002261Y-145052380D02*
X113002261Y-144052380D01*
X112430833Y-145052380D02*
X112859404Y-144480952D01*
X112430833Y-144052380D02*
X113002261Y-144623809D01*
X110668928Y-144957142D02*
X110716547Y-145004761D01*
X110859404Y-145052380D01*
X110954642Y-145052380D01*
X111097500Y-145004761D01*
X111192738Y-144909523D01*
X111240357Y-144814285D01*
X111287976Y-144623809D01*
X111287976Y-144480952D01*
X111240357Y-144290476D01*
X111192738Y-144195238D01*
X111097500Y-144100000D01*
X110954642Y-144052380D01*
X110859404Y-144052380D01*
X110716547Y-144100000D01*
X110668928Y-144147619D01*
X110049880Y-144052380D02*
X109859404Y-144052380D01*
X109764166Y-144100000D01*
X109668928Y-144195238D01*
X109621309Y-144385714D01*
X109621309Y-144719047D01*
X109668928Y-144909523D01*
X109764166Y-145004761D01*
X109859404Y-145052380D01*
X110049880Y-145052380D01*
X110145119Y-145004761D01*
X110240357Y-144909523D01*
X110287976Y-144719047D01*
X110287976Y-144385714D01*
X110240357Y-144195238D01*
X110145119Y-144100000D01*
X110049880Y-144052380D01*
X108716547Y-145052380D02*
X109192738Y-145052380D01*
X109192738Y-144052380D01*
X108383214Y-144528571D02*
X108049880Y-144528571D01*
X107907023Y-145052380D02*
X108383214Y-145052380D01*
X108383214Y-144052380D01*
X107907023Y-144052380D01*
X107478452Y-145052380D02*
X107478452Y-144052380D01*
X107145119Y-144766666D01*
X106811785Y-144052380D01*
X106811785Y-145052380D01*
X106383214Y-144766666D02*
X105907023Y-144766666D01*
X106478452Y-145052380D02*
X106145119Y-144052380D01*
X105811785Y-145052380D01*
X105478452Y-145052380D02*
X105478452Y-144052380D01*
X104907023Y-145052380D01*
X104907023Y-144052380D01*
X103716547Y-144147619D02*
X103668928Y-144100000D01*
X103573690Y-144052380D01*
X103335595Y-144052380D01*
X103240357Y-144100000D01*
X103192738Y-144147619D01*
X103145119Y-144242857D01*
X103145119Y-144338095D01*
X103192738Y-144480952D01*
X103764166Y-145052380D01*
X103145119Y-145052380D01*
X102526071Y-144052380D02*
X102430833Y-144052380D01*
X102335595Y-144100000D01*
X102287976Y-144147619D01*
X102240357Y-144242857D01*
X102192738Y-144433333D01*
X102192738Y-144671428D01*
X102240357Y-144861904D01*
X102287976Y-144957142D01*
X102335595Y-145004761D01*
X102430833Y-145052380D01*
X102526071Y-145052380D01*
X102621309Y-145004761D01*
X102668928Y-144957142D01*
X102716547Y-144861904D01*
X102764166Y-144671428D01*
X102764166Y-144433333D01*
X102716547Y-144242857D01*
X102668928Y-144147619D01*
X102621309Y-144100000D01*
X102526071Y-144052380D01*
X101811785Y-144147619D02*
X101764166Y-144100000D01*
X101668928Y-144052380D01*
X101430833Y-144052380D01*
X101335595Y-144100000D01*
X101287976Y-144147619D01*
X101240357Y-144242857D01*
X101240357Y-144338095D01*
X101287976Y-144480952D01*
X101859404Y-145052380D01*
X101240357Y-145052380D01*
X100621309Y-144052380D02*
X100526071Y-144052380D01*
X100430833Y-144100000D01*
X100383214Y-144147619D01*
X100335595Y-144242857D01*
X100287976Y-144433333D01*
X100287976Y-144671428D01*
X100335595Y-144861904D01*
X100383214Y-144957142D01*
X100430833Y-145004761D01*
X100526071Y-145052380D01*
X100621309Y-145052380D01*
X100716547Y-145004761D01*
X100764166Y-144957142D01*
X100811785Y-144861904D01*
X100859404Y-144671428D01*
X100859404Y-144433333D01*
X100811785Y-144242857D01*
X100764166Y-144147619D01*
X100716547Y-144100000D01*
X100621309Y-144052380D01*
X174092976Y-144957142D02*
X174140595Y-145004761D01*
X174283452Y-145052380D01*
X174378690Y-145052380D01*
X174521547Y-145004761D01*
X174616785Y-144909523D01*
X174664404Y-144814285D01*
X174712023Y-144623809D01*
X174712023Y-144480952D01*
X174664404Y-144290476D01*
X174616785Y-144195238D01*
X174521547Y-144100000D01*
X174378690Y-144052380D01*
X174283452Y-144052380D01*
X174140595Y-144100000D01*
X174092976Y-144147619D01*
X173712023Y-144766666D02*
X173235833Y-144766666D01*
X173807261Y-145052380D02*
X173473928Y-144052380D01*
X173140595Y-145052380D01*
X172807261Y-145052380D02*
X172807261Y-144052380D01*
X172473928Y-144766666D01*
X172140595Y-144052380D01*
X172140595Y-145052380D01*
X171664404Y-145052380D02*
X171664404Y-144052380D01*
X171283452Y-144052380D01*
X171188214Y-144100000D01*
X171140595Y-144147619D01*
X171092976Y-144242857D01*
X171092976Y-144385714D01*
X171140595Y-144480952D01*
X171188214Y-144528571D01*
X171283452Y-144576190D01*
X171664404Y-144576190D01*
X170664404Y-144528571D02*
X170331071Y-144528571D01*
X170188214Y-145052380D02*
X170664404Y-145052380D01*
X170664404Y-144052380D01*
X170188214Y-144052380D01*
X169188214Y-145052380D02*
X169521547Y-144576190D01*
X169759642Y-145052380D02*
X169759642Y-144052380D01*
X169378690Y-144052380D01*
X169283452Y-144100000D01*
X169235833Y-144147619D01*
X169188214Y-144242857D01*
X169188214Y-144385714D01*
X169235833Y-144480952D01*
X169283452Y-144528571D01*
X169378690Y-144576190D01*
X169759642Y-144576190D01*
X167521547Y-145052380D02*
X167997738Y-145052380D01*
X167997738Y-144052380D01*
X167188214Y-145052380D02*
X167188214Y-144052380D01*
X166188214Y-144100000D02*
X166283452Y-144052380D01*
X166426309Y-144052380D01*
X166569166Y-144100000D01*
X166664404Y-144195238D01*
X166712023Y-144290476D01*
X166759642Y-144480952D01*
X166759642Y-144623809D01*
X166712023Y-144814285D01*
X166664404Y-144909523D01*
X166569166Y-145004761D01*
X166426309Y-145052380D01*
X166331071Y-145052380D01*
X166188214Y-145004761D01*
X166140595Y-144957142D01*
X166140595Y-144623809D01*
X166331071Y-144623809D01*
X165712023Y-145052380D02*
X165712023Y-144052380D01*
X165712023Y-144528571D02*
X165140595Y-144528571D01*
X165140595Y-145052380D02*
X165140595Y-144052380D01*
X164807261Y-144052380D02*
X164235833Y-144052380D01*
X164521547Y-145052380D02*
X164521547Y-144052380D01*
X163902500Y-145052380D02*
X163902500Y-144052380D01*
X163426309Y-145052380D02*
X163426309Y-144052380D01*
X162854880Y-145052380D01*
X162854880Y-144052380D01*
X161854880Y-144100000D02*
X161950119Y-144052380D01*
X162092976Y-144052380D01*
X162235833Y-144100000D01*
X162331071Y-144195238D01*
X162378690Y-144290476D01*
X162426309Y-144480952D01*
X162426309Y-144623809D01*
X162378690Y-144814285D01*
X162331071Y-144909523D01*
X162235833Y-145004761D01*
X162092976Y-145052380D01*
X161997738Y-145052380D01*
X161854880Y-145004761D01*
X161807261Y-144957142D01*
X161807261Y-144623809D01*
X161997738Y-144623809D01*
X160045357Y-144957142D02*
X160092976Y-145004761D01*
X160235833Y-145052380D01*
X160331071Y-145052380D01*
X160473928Y-145004761D01*
X160569166Y-144909523D01*
X160616785Y-144814285D01*
X160664404Y-144623809D01*
X160664404Y-144480952D01*
X160616785Y-144290476D01*
X160569166Y-144195238D01*
X160473928Y-144100000D01*
X160331071Y-144052380D01*
X160235833Y-144052380D01*
X160092976Y-144100000D01*
X160045357Y-144147619D01*
X159426309Y-144052380D02*
X159235833Y-144052380D01*
X159140595Y-144100000D01*
X159045357Y-144195238D01*
X158997738Y-144385714D01*
X158997738Y-144719047D01*
X159045357Y-144909523D01*
X159140595Y-145004761D01*
X159235833Y-145052380D01*
X159426309Y-145052380D01*
X159521547Y-145004761D01*
X159616785Y-144909523D01*
X159664404Y-144719047D01*
X159664404Y-144385714D01*
X159616785Y-144195238D01*
X159521547Y-144100000D01*
X159426309Y-144052380D01*
X158569166Y-145052380D02*
X158569166Y-144052380D01*
X157997738Y-145052380D01*
X157997738Y-144052380D01*
X157664404Y-144052380D02*
X157092976Y-144052380D01*
X157378690Y-145052380D02*
X157378690Y-144052380D01*
X156188214Y-145052380D02*
X156521547Y-144576190D01*
X156759642Y-145052380D02*
X156759642Y-144052380D01*
X156378690Y-144052380D01*
X156283452Y-144100000D01*
X156235833Y-144147619D01*
X156188214Y-144242857D01*
X156188214Y-144385714D01*
X156235833Y-144480952D01*
X156283452Y-144528571D01*
X156378690Y-144576190D01*
X156759642Y-144576190D01*
X155569166Y-144052380D02*
X155378690Y-144052380D01*
X155283452Y-144100000D01*
X155188214Y-144195238D01*
X155140595Y-144385714D01*
X155140595Y-144719047D01*
X155188214Y-144909523D01*
X155283452Y-145004761D01*
X155378690Y-145052380D01*
X155569166Y-145052380D01*
X155664404Y-145004761D01*
X155759642Y-144909523D01*
X155807261Y-144719047D01*
X155807261Y-144385714D01*
X155759642Y-144195238D01*
X155664404Y-144100000D01*
X155569166Y-144052380D01*
X154235833Y-145052380D02*
X154712023Y-145052380D01*
X154712023Y-144052380D01*
X153426309Y-145052380D02*
X153902500Y-145052380D01*
X153902500Y-144052380D01*
X153092976Y-144528571D02*
X152759642Y-144528571D01*
X152616785Y-145052380D02*
X153092976Y-145052380D01*
X153092976Y-144052380D01*
X152616785Y-144052380D01*
X151616785Y-145052380D02*
X151950119Y-144576190D01*
X152188214Y-145052380D02*
X152188214Y-144052380D01*
X151807261Y-144052380D01*
X151712023Y-144100000D01*
X151664404Y-144147619D01*
X151616785Y-144242857D01*
X151616785Y-144385714D01*
X151664404Y-144480952D01*
X151712023Y-144528571D01*
X151807261Y-144576190D01*
X152188214Y-144576190D01*
X150521547Y-144385714D02*
X150283452Y-145052380D01*
X150045357Y-144385714D01*
X149140595Y-145052380D02*
X149712023Y-145052380D01*
X149426309Y-145052380D02*
X149426309Y-144052380D01*
X149521547Y-144195238D01*
X149616785Y-144290476D01*
X149712023Y-144338095D01*
X148712023Y-144957142D02*
X148664404Y-145004761D01*
X148712023Y-145052380D01*
X148759642Y-145004761D01*
X148712023Y-144957142D01*
X148712023Y-145052380D01*
X148045357Y-144052380D02*
X147950119Y-144052380D01*
X147854880Y-144100000D01*
X147807261Y-144147619D01*
X147759642Y-144242857D01*
X147712023Y-144433333D01*
X147712023Y-144671428D01*
X147759642Y-144861904D01*
X147807261Y-144957142D01*
X147854880Y-145004761D01*
X147950119Y-145052380D01*
X148045357Y-145052380D01*
X148140595Y-145004761D01*
X148188214Y-144957142D01*
X148235833Y-144861904D01*
X148283452Y-144671428D01*
X148283452Y-144433333D01*
X148235833Y-144242857D01*
X148188214Y-144147619D01*
X148140595Y-144100000D01*
X148045357Y-144052380D01*
X180080952Y-86271428D02*
X179319047Y-86271428D01*
X179700000Y-86652380D02*
X179700000Y-85890476D01*
X190395238Y-86657142D02*
X190442857Y-86704761D01*
X190585714Y-86752380D01*
X190680952Y-86752380D01*
X190823809Y-86704761D01*
X190919047Y-86609523D01*
X190966666Y-86514285D01*
X191014285Y-86323809D01*
X191014285Y-86180952D01*
X190966666Y-85990476D01*
X190919047Y-85895238D01*
X190823809Y-85800000D01*
X190680952Y-85752380D01*
X190585714Y-85752380D01*
X190442857Y-85800000D01*
X190395238Y-85847619D01*
X189490476Y-86752380D02*
X189966666Y-86752380D01*
X189966666Y-85752380D01*
X189157142Y-86752380D02*
X189157142Y-85752380D01*
X188585714Y-86752380D02*
X189014285Y-86180952D01*
X188585714Y-85752380D02*
X189157142Y-86323809D01*
X187466666Y-86657142D02*
X187514285Y-86704761D01*
X187657142Y-86752380D01*
X187752380Y-86752380D01*
X187895238Y-86704761D01*
X187990476Y-86609523D01*
X188038095Y-86514285D01*
X188085714Y-86323809D01*
X188085714Y-86180952D01*
X188038095Y-85990476D01*
X187990476Y-85895238D01*
X187895238Y-85800000D01*
X187752380Y-85752380D01*
X187657142Y-85752380D01*
X187514285Y-85800000D01*
X187466666Y-85847619D01*
X187085714Y-86704761D02*
X186942857Y-86752380D01*
X186704761Y-86752380D01*
X186609523Y-86704761D01*
X186561904Y-86657142D01*
X186514285Y-86561904D01*
X186514285Y-86466666D01*
X186561904Y-86371428D01*
X186609523Y-86323809D01*
X186704761Y-86276190D01*
X186895238Y-86228571D01*
X186990476Y-86180952D01*
X187038095Y-86133333D01*
X187085714Y-86038095D01*
X187085714Y-85942857D01*
X187038095Y-85847619D01*
X186990476Y-85800000D01*
X186895238Y-85752380D01*
X186657142Y-85752380D01*
X186514285Y-85800000D01*
X182580952Y-86271428D02*
X181819047Y-86271428D01*
X157995238Y-90757142D02*
X158042857Y-90804761D01*
X158185714Y-90852380D01*
X158280952Y-90852380D01*
X158423809Y-90804761D01*
X158519047Y-90709523D01*
X158566666Y-90614285D01*
X158614285Y-90423809D01*
X158614285Y-90280952D01*
X158566666Y-90090476D01*
X158519047Y-89995238D01*
X158423809Y-89900000D01*
X158280952Y-89852380D01*
X158185714Y-89852380D01*
X158042857Y-89900000D01*
X157995238Y-89947619D01*
X157090476Y-90852380D02*
X157566666Y-90852380D01*
X157566666Y-89852380D01*
X156757142Y-90852380D02*
X156757142Y-89852380D01*
X156185714Y-90852380D02*
X156614285Y-90280952D01*
X156185714Y-89852380D02*
X156757142Y-90423809D01*
X150180952Y-90371428D02*
X149419047Y-90371428D01*
X155066666Y-90757142D02*
X155114285Y-90804761D01*
X155257142Y-90852380D01*
X155352380Y-90852380D01*
X155495238Y-90804761D01*
X155590476Y-90709523D01*
X155638095Y-90614285D01*
X155685714Y-90423809D01*
X155685714Y-90280952D01*
X155638095Y-90090476D01*
X155590476Y-89995238D01*
X155495238Y-89900000D01*
X155352380Y-89852380D01*
X155257142Y-89852380D01*
X155114285Y-89900000D01*
X155066666Y-89947619D01*
X154685714Y-90804761D02*
X154542857Y-90852380D01*
X154304761Y-90852380D01*
X154209523Y-90804761D01*
X154161904Y-90757142D01*
X154114285Y-90661904D01*
X154114285Y-90566666D01*
X154161904Y-90471428D01*
X154209523Y-90423809D01*
X154304761Y-90376190D01*
X154495238Y-90328571D01*
X154590476Y-90280952D01*
X154638095Y-90233333D01*
X154685714Y-90138095D01*
X154685714Y-90042857D01*
X154638095Y-89947619D01*
X154590476Y-89900000D01*
X154495238Y-89852380D01*
X154257142Y-89852380D01*
X154114285Y-89900000D01*
X147680952Y-90371428D02*
X146919047Y-90371428D01*
X147300000Y-90752380D02*
X147300000Y-89990476D01*
X126795238Y-92957142D02*
X126842857Y-93004761D01*
X126985714Y-93052380D01*
X127080952Y-93052380D01*
X127223809Y-93004761D01*
X127319047Y-92909523D01*
X127366666Y-92814285D01*
X127414285Y-92623809D01*
X127414285Y-92480952D01*
X127366666Y-92290476D01*
X127319047Y-92195238D01*
X127223809Y-92100000D01*
X127080952Y-92052380D01*
X126985714Y-92052380D01*
X126842857Y-92100000D01*
X126795238Y-92147619D01*
X125890476Y-93052380D02*
X126366666Y-93052380D01*
X126366666Y-92052380D01*
X125557142Y-93052380D02*
X125557142Y-92052380D01*
X124985714Y-93052380D02*
X125414285Y-92480952D01*
X124985714Y-92052380D02*
X125557142Y-92623809D01*
X116480952Y-92571428D02*
X115719047Y-92571428D01*
X116100000Y-92952380D02*
X116100000Y-92190476D01*
X118980952Y-92571428D02*
X118219047Y-92571428D01*
X123866666Y-92957142D02*
X123914285Y-93004761D01*
X124057142Y-93052380D01*
X124152380Y-93052380D01*
X124295238Y-93004761D01*
X124390476Y-92909523D01*
X124438095Y-92814285D01*
X124485714Y-92623809D01*
X124485714Y-92480952D01*
X124438095Y-92290476D01*
X124390476Y-92195238D01*
X124295238Y-92100000D01*
X124152380Y-92052380D01*
X124057142Y-92052380D01*
X123914285Y-92100000D01*
X123866666Y-92147619D01*
X123485714Y-93004761D02*
X123342857Y-93052380D01*
X123104761Y-93052380D01*
X123009523Y-93004761D01*
X122961904Y-92957142D01*
X122914285Y-92861904D01*
X122914285Y-92766666D01*
X122961904Y-92671428D01*
X123009523Y-92623809D01*
X123104761Y-92576190D01*
X123295238Y-92528571D01*
X123390476Y-92480952D01*
X123438095Y-92433333D01*
X123485714Y-92338095D01*
X123485714Y-92242857D01*
X123438095Y-92147619D01*
X123390476Y-92100000D01*
X123295238Y-92052380D01*
X123057142Y-92052380D01*
X122914285Y-92100000D01*
X93295238Y-87257142D02*
X93342857Y-87304761D01*
X93485714Y-87352380D01*
X93580952Y-87352380D01*
X93723809Y-87304761D01*
X93819047Y-87209523D01*
X93866666Y-87114285D01*
X93914285Y-86923809D01*
X93914285Y-86780952D01*
X93866666Y-86590476D01*
X93819047Y-86495238D01*
X93723809Y-86400000D01*
X93580952Y-86352380D01*
X93485714Y-86352380D01*
X93342857Y-86400000D01*
X93295238Y-86447619D01*
X92390476Y-87352380D02*
X92866666Y-87352380D01*
X92866666Y-86352380D01*
X92057142Y-87352380D02*
X92057142Y-86352380D01*
X91485714Y-87352380D02*
X91914285Y-86780952D01*
X91485714Y-86352380D02*
X92057142Y-86923809D01*
X90366666Y-87257142D02*
X90414285Y-87304761D01*
X90557142Y-87352380D01*
X90652380Y-87352380D01*
X90795238Y-87304761D01*
X90890476Y-87209523D01*
X90938095Y-87114285D01*
X90985714Y-86923809D01*
X90985714Y-86780952D01*
X90938095Y-86590476D01*
X90890476Y-86495238D01*
X90795238Y-86400000D01*
X90652380Y-86352380D01*
X90557142Y-86352380D01*
X90414285Y-86400000D01*
X90366666Y-86447619D01*
X89985714Y-87304761D02*
X89842857Y-87352380D01*
X89604761Y-87352380D01*
X89509523Y-87304761D01*
X89461904Y-87257142D01*
X89414285Y-87161904D01*
X89414285Y-87066666D01*
X89461904Y-86971428D01*
X89509523Y-86923809D01*
X89604761Y-86876190D01*
X89795238Y-86828571D01*
X89890476Y-86780952D01*
X89938095Y-86733333D01*
X89985714Y-86638095D01*
X89985714Y-86542857D01*
X89938095Y-86447619D01*
X89890476Y-86400000D01*
X89795238Y-86352380D01*
X89557142Y-86352380D01*
X89414285Y-86400000D01*
X88623809Y-87352380D02*
X88623809Y-86352380D01*
X88385714Y-86352380D01*
X88242857Y-86400000D01*
X88147619Y-86495238D01*
X88100000Y-86590476D01*
X88052380Y-86780952D01*
X88052380Y-86923809D01*
X88100000Y-87114285D01*
X88147619Y-87209523D01*
X88242857Y-87304761D01*
X88385714Y-87352380D01*
X88623809Y-87352380D01*
X87623809Y-87352380D02*
X87623809Y-86352380D01*
X87147619Y-87352380D02*
X87147619Y-86352380D01*
X86576190Y-87352380D01*
X86576190Y-86352380D01*
X85480952Y-86871428D02*
X84719047Y-86871428D01*
X82980952Y-86871428D02*
X82219047Y-86871428D01*
X82600000Y-87252380D02*
X82600000Y-86490476D01*
X190333333Y-76252380D02*
X189714285Y-76252380D01*
X190047619Y-76633333D01*
X189904761Y-76633333D01*
X189809523Y-76680952D01*
X189761904Y-76728571D01*
X189714285Y-76823809D01*
X189714285Y-77061904D01*
X189761904Y-77157142D01*
X189809523Y-77204761D01*
X189904761Y-77252380D01*
X190190476Y-77252380D01*
X190285714Y-77204761D01*
X190333333Y-77157142D01*
X188385714Y-76347619D02*
X188338095Y-76300000D01*
X188242857Y-76252380D01*
X188004761Y-76252380D01*
X187909523Y-76300000D01*
X187861904Y-76347619D01*
X187814285Y-76442857D01*
X187814285Y-76538095D01*
X187861904Y-76680952D01*
X188433333Y-77252380D01*
X187814285Y-77252380D01*
X184614285Y-77252380D02*
X185185714Y-77252380D01*
X184900000Y-77252380D02*
X184900000Y-76252380D01*
X184995238Y-76395238D01*
X185090476Y-76490476D01*
X185185714Y-76538095D01*
X179419047Y-76871428D02*
X180180952Y-76871428D01*
X182780952Y-76871428D02*
X182019047Y-76871428D01*
X182400000Y-77252380D02*
X182400000Y-76490476D01*
X183026071Y-82152380D02*
X183359404Y-81676190D01*
X183597500Y-82152380D02*
X183597500Y-81152380D01*
X183216547Y-81152380D01*
X183121309Y-81200000D01*
X183073690Y-81247619D01*
X183026071Y-81342857D01*
X183026071Y-81485714D01*
X183073690Y-81580952D01*
X183121309Y-81628571D01*
X183216547Y-81676190D01*
X183597500Y-81676190D01*
X182407023Y-81152380D02*
X182216547Y-81152380D01*
X182121309Y-81200000D01*
X182026071Y-81295238D01*
X181978452Y-81485714D01*
X181978452Y-81819047D01*
X182026071Y-82009523D01*
X182121309Y-82104761D01*
X182216547Y-82152380D01*
X182407023Y-82152380D01*
X182502261Y-82104761D01*
X182597500Y-82009523D01*
X182645119Y-81819047D01*
X182645119Y-81485714D01*
X182597500Y-81295238D01*
X182502261Y-81200000D01*
X182407023Y-81152380D01*
X181692738Y-81152380D02*
X181121309Y-81152380D01*
X181407023Y-82152380D02*
X181407023Y-81152380D01*
X180835595Y-81866666D02*
X180359404Y-81866666D01*
X180930833Y-82152380D02*
X180597500Y-81152380D01*
X180264166Y-82152380D01*
X179359404Y-82152380D02*
X179692738Y-81676190D01*
X179930833Y-82152380D02*
X179930833Y-81152380D01*
X179549880Y-81152380D01*
X179454642Y-81200000D01*
X179407023Y-81247619D01*
X179359404Y-81342857D01*
X179359404Y-81485714D01*
X179407023Y-81580952D01*
X179454642Y-81628571D01*
X179549880Y-81676190D01*
X179930833Y-81676190D01*
X178740357Y-81676190D02*
X178740357Y-82152380D01*
X179073690Y-81152380D02*
X178740357Y-81676190D01*
X178407023Y-81152380D01*
X177311785Y-81628571D02*
X176978452Y-81628571D01*
X176835595Y-82152380D02*
X177311785Y-82152380D01*
X177311785Y-81152380D01*
X176835595Y-81152380D01*
X176407023Y-82152380D02*
X176407023Y-81152380D01*
X175835595Y-82152380D01*
X175835595Y-81152380D01*
X174787976Y-82057142D02*
X174835595Y-82104761D01*
X174978452Y-82152380D01*
X175073690Y-82152380D01*
X175216547Y-82104761D01*
X175311785Y-82009523D01*
X175359404Y-81914285D01*
X175407023Y-81723809D01*
X175407023Y-81580952D01*
X175359404Y-81390476D01*
X175311785Y-81295238D01*
X175216547Y-81200000D01*
X175073690Y-81152380D01*
X174978452Y-81152380D01*
X174835595Y-81200000D01*
X174787976Y-81247619D01*
X99280952Y-57520982D02*
X98519047Y-57520982D01*
X96561904Y-57901934D02*
X96561904Y-56901934D01*
X96323809Y-56901934D01*
X96180952Y-56949554D01*
X96085714Y-57044792D01*
X96038095Y-57140030D01*
X95990476Y-57330506D01*
X95990476Y-57473363D01*
X96038095Y-57663839D01*
X96085714Y-57759077D01*
X96180952Y-57854315D01*
X96323809Y-57901934D01*
X96561904Y-57901934D01*
X93490476Y-57806696D02*
X93538095Y-57854315D01*
X93680952Y-57901934D01*
X93776190Y-57901934D01*
X93919047Y-57854315D01*
X94014285Y-57759077D01*
X94061904Y-57663839D01*
X94109523Y-57473363D01*
X94109523Y-57330506D01*
X94061904Y-57140030D01*
X94014285Y-57044792D01*
X93919047Y-56949554D01*
X93776190Y-56901934D01*
X93680952Y-56901934D01*
X93538095Y-56949554D01*
X93490476Y-56997173D01*
X101780952Y-57520982D02*
X101019047Y-57520982D01*
X101400000Y-57901934D02*
X101400000Y-57140030D01*
X104380952Y-57520982D02*
X103619047Y-57520982D01*
X104000000Y-57901934D02*
X104000000Y-57140030D01*
X155390476Y-58006696D02*
X155438095Y-58054315D01*
X155580952Y-58101934D01*
X155676190Y-58101934D01*
X155819047Y-58054315D01*
X155914285Y-57959077D01*
X155961904Y-57863839D01*
X156009523Y-57673363D01*
X156009523Y-57530506D01*
X155961904Y-57340030D01*
X155914285Y-57244792D01*
X155819047Y-57149554D01*
X155676190Y-57101934D01*
X155580952Y-57101934D01*
X155438095Y-57149554D01*
X155390476Y-57197173D01*
X158461904Y-58101934D02*
X158461904Y-57101934D01*
X158223809Y-57101934D01*
X158080952Y-57149554D01*
X157985714Y-57244792D01*
X157938095Y-57340030D01*
X157890476Y-57530506D01*
X157890476Y-57673363D01*
X157938095Y-57863839D01*
X157985714Y-57959077D01*
X158080952Y-58054315D01*
X158223809Y-58101934D01*
X158461904Y-58101934D01*
X161180952Y-57720982D02*
X160419047Y-57720982D01*
X163680952Y-57720982D02*
X162919047Y-57720982D01*
X163300000Y-58101934D02*
X163300000Y-57340030D01*
X166280952Y-57720982D02*
X165519047Y-57720982D01*
X165900000Y-58101934D02*
X165900000Y-57340030D01*
D11*
X155000000Y-110600000D02*
X154300000Y-111000000D01*
D10*
G04 #@! TO.C,REF\002A\002A*
X104218000Y-135490000D02*
X72218000Y-135490000D01*
X72218000Y-135490000D02*
X72218000Y-85490000D01*
X72218000Y-85490000D02*
X104218000Y-85490000D01*
X104218000Y-85490000D02*
X104218000Y-135490000D01*
X200992000Y-135490000D02*
X168992000Y-135490000D01*
X168992000Y-135490000D02*
X168992000Y-85490000D01*
X168992000Y-85490000D02*
X200992000Y-85490000D01*
X200992000Y-85490000D02*
X200992000Y-135490000D01*
X168734000Y-135490000D02*
X136734000Y-135490000D01*
X136734000Y-135490000D02*
X136734000Y-85490000D01*
X136734000Y-85490000D02*
X168734000Y-85490000D01*
X168734000Y-85490000D02*
X168734000Y-135490000D01*
X136476000Y-135490000D02*
X104476000Y-135490000D01*
X104476000Y-135490000D02*
X104476000Y-85490000D01*
X104476000Y-85490000D02*
X136476000Y-85490000D01*
X136476000Y-85490000D02*
X136476000Y-135490000D01*
X136986000Y-84455000D02*
X187532000Y-84455000D01*
X187532000Y-84455000D02*
X187532000Y-56515000D01*
X187532000Y-56515000D02*
X136732000Y-56515000D01*
X136732000Y-56515000D02*
X136732000Y-84455000D01*
X136732000Y-84455000D02*
X136986000Y-84455000D01*
X85932000Y-84455000D02*
X136478000Y-84455000D01*
X136478000Y-84455000D02*
X136478000Y-56515000D01*
X136478000Y-56515000D02*
X85678000Y-56515000D01*
X85678000Y-56515000D02*
X85678000Y-84455000D01*
X85678000Y-84455000D02*
X85932000Y-84455000D01*
D12*
G04 #@! TO.C,C23*
X162207065Y-104090000D02*
X161002937Y-104090000D01*
X162207065Y-105910000D02*
X161002937Y-105910000D01*
D13*
G04 #@! TO.C,U8*
X157426340Y-99401020D02*
X157573660Y-99401020D01*
X157573660Y-99401020D02*
X157573660Y-99802340D01*
X157426340Y-99802340D02*
X157573660Y-99802340D01*
X157426340Y-99401020D02*
X157426340Y-99802340D01*
X157822580Y-99401020D02*
X157974980Y-99401020D01*
X157974980Y-99401020D02*
X157974980Y-99802340D01*
X157822580Y-99802340D02*
X157974980Y-99802340D01*
X157822580Y-99401020D02*
X157822580Y-99802340D01*
X158223900Y-99401020D02*
X158373760Y-99401020D01*
X158373760Y-99401020D02*
X158373760Y-99802340D01*
X158223900Y-99802340D02*
X158373760Y-99802340D01*
X158223900Y-99401020D02*
X158223900Y-99802340D01*
X158622680Y-99401020D02*
X158775080Y-99401020D01*
X158775080Y-99401020D02*
X158775080Y-99802340D01*
X158622680Y-99802340D02*
X158775080Y-99802340D01*
X158622680Y-99401020D02*
X158622680Y-99802340D01*
X157025020Y-99401020D02*
X157177420Y-99401020D01*
X157177420Y-99401020D02*
X157177420Y-99802340D01*
X157025020Y-99802340D02*
X157177420Y-99802340D01*
X157025020Y-99401020D02*
X157025020Y-99802340D01*
X156626240Y-99401020D02*
X156776100Y-99401020D01*
X156776100Y-99401020D02*
X156776100Y-99802340D01*
X156626240Y-99802340D02*
X156776100Y-99802340D01*
X156626240Y-99401020D02*
X156626240Y-99802340D01*
X156224920Y-99401020D02*
X156377320Y-99401020D01*
X156377320Y-99401020D02*
X156377320Y-99802340D01*
X156224920Y-99802340D02*
X156377320Y-99802340D01*
X156224920Y-99401020D02*
X156224920Y-99802340D01*
X159222120Y-100000460D02*
X159374520Y-100000460D01*
X159374520Y-100000460D02*
X159374520Y-100401780D01*
X159222120Y-100401780D02*
X159374520Y-100401780D01*
X159222120Y-100000460D02*
X159222120Y-100401780D01*
X159222120Y-100401780D02*
X159374520Y-100401780D01*
X159374520Y-100401780D02*
X159374520Y-100800560D01*
X159222120Y-100800560D02*
X159374520Y-100800560D01*
X159222120Y-100401780D02*
X159222120Y-100800560D01*
X159222120Y-100800560D02*
X159374520Y-100800560D01*
X159374520Y-100800560D02*
X159374520Y-101201880D01*
X159222120Y-101201880D02*
X159374520Y-101201880D01*
X159222120Y-100800560D02*
X159222120Y-101201880D01*
X159222120Y-101201880D02*
X159374520Y-101201880D01*
X159374520Y-101201880D02*
X159374520Y-101598120D01*
X159222120Y-101598120D02*
X159374520Y-101598120D01*
X159222120Y-101201880D02*
X159222120Y-101598120D01*
X159222120Y-101598120D02*
X159374520Y-101598120D01*
X159374520Y-101598120D02*
X159374520Y-101999440D01*
X159222120Y-101999440D02*
X159374520Y-101999440D01*
X159222120Y-101598120D02*
X159222120Y-101999440D01*
X159222120Y-101999440D02*
X159374520Y-101999440D01*
X159374520Y-101999440D02*
X159374520Y-102398220D01*
X159222120Y-102398220D02*
X159374520Y-102398220D01*
X159222120Y-101999440D02*
X159222120Y-102398220D01*
X159222120Y-102398220D02*
X159374520Y-102398220D01*
X159374520Y-102398220D02*
X159374520Y-102799540D01*
X159222120Y-102799540D02*
X159374520Y-102799540D01*
X159222120Y-102398220D02*
X159222120Y-102799540D01*
X158622680Y-102997660D02*
X158775080Y-102997660D01*
X158775080Y-102997660D02*
X158775080Y-103398980D01*
X158622680Y-103398980D02*
X158775080Y-103398980D01*
X158622680Y-102997660D02*
X158622680Y-103398980D01*
X158223900Y-102997660D02*
X158373760Y-102997660D01*
X158373760Y-102997660D02*
X158373760Y-103398980D01*
X158223900Y-103398980D02*
X158373760Y-103398980D01*
X158223900Y-102997660D02*
X158223900Y-103398980D01*
X157822580Y-102997660D02*
X157974980Y-102997660D01*
X157974980Y-102997660D02*
X157974980Y-103398980D01*
X157822580Y-103398980D02*
X157974980Y-103398980D01*
X157822580Y-102997660D02*
X157822580Y-103398980D01*
X157426340Y-102997660D02*
X157573660Y-102997660D01*
X157573660Y-102997660D02*
X157573660Y-103398980D01*
X157426340Y-103398980D02*
X157573660Y-103398980D01*
X157426340Y-102997660D02*
X157426340Y-103398980D01*
X157025020Y-102997660D02*
X157177420Y-102997660D01*
X157177420Y-102997660D02*
X157177420Y-103398980D01*
X157025020Y-103398980D02*
X157177420Y-103398980D01*
X157025020Y-102997660D02*
X157025020Y-103398980D01*
X156626240Y-102997660D02*
X156776100Y-102997660D01*
X156776100Y-102997660D02*
X156776100Y-103398980D01*
X156626240Y-103398980D02*
X156776100Y-103398980D01*
X156626240Y-102997660D02*
X156626240Y-103398980D01*
X156224920Y-102997660D02*
X156377320Y-102997660D01*
X156377320Y-102997660D02*
X156377320Y-103398980D01*
X156224920Y-103398980D02*
X156377320Y-103398980D01*
X156224920Y-102997660D02*
X156224920Y-103398980D01*
X155625480Y-102398220D02*
X155777880Y-102398220D01*
X155777880Y-102398220D02*
X155777880Y-102799540D01*
X155625480Y-102799540D02*
X155777880Y-102799540D01*
X155625480Y-102398220D02*
X155625480Y-102799540D01*
X155625480Y-101999440D02*
X155777880Y-101999440D01*
X155777880Y-101999440D02*
X155777880Y-102398220D01*
X155625480Y-102398220D02*
X155777880Y-102398220D01*
X155625480Y-101999440D02*
X155625480Y-102398220D01*
X155625480Y-101598120D02*
X155777880Y-101598120D01*
X155777880Y-101598120D02*
X155777880Y-101999440D01*
X155625480Y-101999440D02*
X155777880Y-101999440D01*
X155625480Y-101598120D02*
X155625480Y-101999440D01*
X155625480Y-101201880D02*
X155777880Y-101201880D01*
X155777880Y-101201880D02*
X155777880Y-101598120D01*
X155625480Y-101598120D02*
X155777880Y-101598120D01*
X155625480Y-101201880D02*
X155625480Y-101598120D01*
X155625480Y-100800560D02*
X155777880Y-100800560D01*
X155777880Y-100800560D02*
X155777880Y-101201880D01*
X155625480Y-101201880D02*
X155777880Y-101201880D01*
X155625480Y-100800560D02*
X155625480Y-101201880D01*
X155625480Y-100401780D02*
X155777880Y-100401780D01*
X155777880Y-100401780D02*
X155777880Y-100800560D01*
X155625480Y-100800560D02*
X155777880Y-100800560D01*
X155625480Y-100401780D02*
X155625480Y-100800560D01*
X155625480Y-100000460D02*
X155777880Y-100000460D01*
X155777880Y-100000460D02*
X155777880Y-100401780D01*
X155625480Y-100401780D02*
X155777880Y-100401780D01*
X155625480Y-100000460D02*
X155625480Y-100401780D01*
X156506860Y-100406860D02*
X157169800Y-100406860D01*
X157169800Y-100406860D02*
X157169800Y-101069800D01*
X156506860Y-101069800D02*
X157169800Y-101069800D01*
X156506860Y-100406860D02*
X156506860Y-101069800D01*
X157830200Y-101730200D02*
X158493140Y-101730200D01*
X158493140Y-101730200D02*
X158493140Y-102393140D01*
X157830200Y-102393140D02*
X158493140Y-102393140D01*
X157830200Y-101730200D02*
X157830200Y-102393140D01*
X156506860Y-101730200D02*
X157169800Y-101730200D01*
X157169800Y-101730200D02*
X157169800Y-102393140D01*
X156506860Y-102393140D02*
X157169800Y-102393140D01*
X156506860Y-101730200D02*
X156506860Y-102393140D01*
X157830200Y-100406860D02*
X158493140Y-100406860D01*
X158493140Y-100406860D02*
X158493140Y-101069800D01*
X157830200Y-101069800D02*
X158493140Y-101069800D01*
X157830200Y-100406860D02*
X157830200Y-101069800D01*
X155501020Y-102499820D02*
X155950600Y-102499820D01*
X155950600Y-102499820D02*
X155950600Y-102697940D01*
X155501020Y-102697940D02*
X155950600Y-102697940D01*
X155501020Y-102499820D02*
X155501020Y-102697940D01*
X155501020Y-102098500D02*
X155950600Y-102098500D01*
X155950600Y-102098500D02*
X155950600Y-102299160D01*
X155501020Y-102299160D02*
X155950600Y-102299160D01*
X155501020Y-102098500D02*
X155501020Y-102299160D01*
X155501020Y-101699720D02*
X155950600Y-101699720D01*
X155950600Y-101699720D02*
X155950600Y-101897840D01*
X155501020Y-101897840D02*
X155950600Y-101897840D01*
X155501020Y-101699720D02*
X155501020Y-101897840D01*
X155501020Y-101300940D02*
X155950600Y-101300940D01*
X155950600Y-101300940D02*
X155950600Y-101499060D01*
X155501020Y-101499060D02*
X155950600Y-101499060D01*
X155501020Y-101300940D02*
X155501020Y-101499060D01*
X155501020Y-100902160D02*
X155950600Y-100902160D01*
X155950600Y-100902160D02*
X155950600Y-101100280D01*
X155501020Y-101100280D02*
X155950600Y-101100280D01*
X155501020Y-100902160D02*
X155501020Y-101100280D01*
X155501020Y-100500840D02*
X155950600Y-100500840D01*
X155950600Y-100500840D02*
X155950600Y-100701500D01*
X155501020Y-100701500D02*
X155950600Y-100701500D01*
X155501020Y-100500840D02*
X155501020Y-100701500D01*
X155501020Y-100102060D02*
X155950600Y-100102060D01*
X155950600Y-100102060D02*
X155950600Y-100300180D01*
X155501020Y-100300180D02*
X155950600Y-100300180D01*
X155501020Y-100102060D02*
X155501020Y-100300180D01*
X156075060Y-99525480D02*
X156527180Y-99525480D01*
X156527180Y-99525480D02*
X156527180Y-99726140D01*
X156075060Y-99726140D02*
X156527180Y-99726140D01*
X156075060Y-99525480D02*
X156075060Y-99726140D01*
X156476380Y-99525480D02*
X156925960Y-99525480D01*
X156925960Y-99525480D02*
X156925960Y-99726140D01*
X156476380Y-99726140D02*
X156925960Y-99726140D01*
X156476380Y-99525480D02*
X156476380Y-99726140D01*
X156875160Y-99525480D02*
X157327280Y-99525480D01*
X157327280Y-99525480D02*
X157327280Y-99726140D01*
X156875160Y-99726140D02*
X157327280Y-99726140D01*
X156875160Y-99525480D02*
X156875160Y-99726140D01*
X157276480Y-99525480D02*
X157723520Y-99525480D01*
X157723520Y-99525480D02*
X157723520Y-99726140D01*
X157276480Y-99726140D02*
X157723520Y-99726140D01*
X157276480Y-99525480D02*
X157276480Y-99726140D01*
X157672720Y-99525480D02*
X158124840Y-99525480D01*
X158124840Y-99525480D02*
X158124840Y-99726140D01*
X157672720Y-99726140D02*
X158124840Y-99726140D01*
X157672720Y-99525480D02*
X157672720Y-99726140D01*
X158074040Y-99525480D02*
X158523620Y-99525480D01*
X158523620Y-99525480D02*
X158523620Y-99726140D01*
X158074040Y-99726140D02*
X158523620Y-99726140D01*
X158074040Y-99525480D02*
X158074040Y-99726140D01*
X158472820Y-99525480D02*
X158924940Y-99525480D01*
X158924940Y-99525480D02*
X158924940Y-99726140D01*
X158472820Y-99726140D02*
X158924940Y-99726140D01*
X158472820Y-99525480D02*
X158472820Y-99726140D01*
X159049400Y-100102060D02*
X159498980Y-100102060D01*
X159498980Y-100102060D02*
X159498980Y-100300180D01*
X159049400Y-100300180D02*
X159498980Y-100300180D01*
X159049400Y-100102060D02*
X159049400Y-100300180D01*
X159049400Y-100500840D02*
X159498980Y-100500840D01*
X159498980Y-100500840D02*
X159498980Y-100701500D01*
X159049400Y-100701500D02*
X159498980Y-100701500D01*
X159049400Y-100500840D02*
X159049400Y-100701500D01*
X159049400Y-100902160D02*
X159498980Y-100902160D01*
X159498980Y-100902160D02*
X159498980Y-101100280D01*
X159049400Y-101100280D02*
X159498980Y-101100280D01*
X159049400Y-100902160D02*
X159049400Y-101100280D01*
X159049400Y-101300940D02*
X159498980Y-101300940D01*
X159498980Y-101300940D02*
X159498980Y-101499060D01*
X159049400Y-101499060D02*
X159498980Y-101499060D01*
X159049400Y-101300940D02*
X159049400Y-101499060D01*
X159049400Y-101699720D02*
X159498980Y-101699720D01*
X159498980Y-101699720D02*
X159498980Y-101897840D01*
X159049400Y-101897840D02*
X159498980Y-101897840D01*
X159049400Y-101699720D02*
X159049400Y-101897840D01*
X159049400Y-102098500D02*
X159498980Y-102098500D01*
X159498980Y-102098500D02*
X159498980Y-102299160D01*
X159049400Y-102299160D02*
X159498980Y-102299160D01*
X159049400Y-102098500D02*
X159049400Y-102299160D01*
X159049400Y-102499820D02*
X159498980Y-102499820D01*
X159498980Y-102499820D02*
X159498980Y-102697940D01*
X159049400Y-102697940D02*
X159498980Y-102697940D01*
X159049400Y-102499820D02*
X159049400Y-102697940D01*
X158472820Y-103073860D02*
X158924940Y-103073860D01*
X158924940Y-103073860D02*
X158924940Y-103274520D01*
X158472820Y-103274520D02*
X158924940Y-103274520D01*
X158472820Y-103073860D02*
X158472820Y-103274520D01*
X158074040Y-103073860D02*
X158523620Y-103073860D01*
X158523620Y-103073860D02*
X158523620Y-103274520D01*
X158074040Y-103274520D02*
X158523620Y-103274520D01*
X158074040Y-103073860D02*
X158074040Y-103274520D01*
X157672720Y-103073860D02*
X158124840Y-103073860D01*
X158124840Y-103073860D02*
X158124840Y-103274520D01*
X157672720Y-103274520D02*
X158124840Y-103274520D01*
X157672720Y-103073860D02*
X157672720Y-103274520D01*
X157276480Y-103073860D02*
X157723520Y-103073860D01*
X157723520Y-103073860D02*
X157723520Y-103274520D01*
X157276480Y-103274520D02*
X157723520Y-103274520D01*
X157276480Y-103073860D02*
X157276480Y-103274520D01*
X156875160Y-103073860D02*
X157327280Y-103073860D01*
X157327280Y-103073860D02*
X157327280Y-103274520D01*
X156875160Y-103274520D02*
X157327280Y-103274520D01*
X156875160Y-103073860D02*
X156875160Y-103274520D01*
X156476380Y-103073860D02*
X156925960Y-103073860D01*
X156925960Y-103073860D02*
X156925960Y-103274520D01*
X156476380Y-103274520D02*
X156925960Y-103274520D01*
X156476380Y-103073860D02*
X156476380Y-103274520D01*
X156075060Y-103073860D02*
X156527180Y-103073860D01*
X156527180Y-103073860D02*
X156527180Y-103274520D01*
X156075060Y-103274520D02*
X156527180Y-103274520D01*
X156075060Y-103073860D02*
X156075060Y-103274520D01*
D14*
X155501020Y-99401020D02*
X155501020Y-103398980D01*
X155501020Y-103398980D02*
X159498980Y-103398980D01*
X159498980Y-103398980D02*
X159498980Y-99401020D01*
X159498980Y-99401020D02*
X155501020Y-99401020D01*
D12*
G04 #@! TO.C,D19*
X84650000Y-91800000D02*
X84650000Y-94950000D01*
X86350000Y-91800000D02*
X86350000Y-94950000D01*
X84650000Y-91800000D02*
X86350000Y-91800000D01*
G04 #@! TO.C,D20*
X179250000Y-97000000D02*
X180950000Y-97000000D01*
X180950000Y-97000000D02*
X180950000Y-100150000D01*
X179250000Y-97000000D02*
X179250000Y-100150000D01*
G04 #@! TO.C,D21*
X184050000Y-97000000D02*
X184050000Y-100150000D01*
X185750000Y-97000000D02*
X185750000Y-100150000D01*
X184050000Y-97000000D02*
X185750000Y-97000000D01*
G04 #@! TO.C,D22*
X188850000Y-97000000D02*
X190550000Y-97000000D01*
X190550000Y-97000000D02*
X190550000Y-100150000D01*
X188850000Y-97000000D02*
X188850000Y-100150000D01*
G04 #@! TO.C,D23*
X79150000Y-95600000D02*
X79150000Y-92450000D01*
X77450000Y-95600000D02*
X77450000Y-92450000D01*
X79150000Y-95600000D02*
X77450000Y-95600000D01*
G04 #@! TO.C,D24*
X83950000Y-95600000D02*
X82250000Y-95600000D01*
X82250000Y-95600000D02*
X82250000Y-92450000D01*
X83950000Y-95600000D02*
X83950000Y-92450000D01*
G04 #@! TO.C,D25*
X88750000Y-95600000D02*
X88750000Y-92450000D01*
X87050000Y-95600000D02*
X87050000Y-92450000D01*
X88750000Y-95600000D02*
X87050000Y-95600000D01*
G04 #@! TO.C,D18*
X79850000Y-91800000D02*
X81550000Y-91800000D01*
X81550000Y-91800000D02*
X81550000Y-94950000D01*
X79850000Y-91800000D02*
X79850000Y-94950000D01*
G04 #@! TO.C,D26*
X178550000Y-100800000D02*
X178550000Y-97650000D01*
X176850000Y-100800000D02*
X176850000Y-97650000D01*
X178550000Y-100800000D02*
X176850000Y-100800000D01*
G04 #@! TO.C,D17*
X75050000Y-91800000D02*
X76750000Y-91800000D01*
X76750000Y-91800000D02*
X76750000Y-94950000D01*
X75050000Y-91800000D02*
X75050000Y-94950000D01*
G04 #@! TO.C,D28*
X188150000Y-100800000D02*
X188150000Y-97650000D01*
X186450000Y-100800000D02*
X186450000Y-97650000D01*
X188150000Y-100800000D02*
X186450000Y-100800000D01*
G04 #@! TO.C,D27*
X183350000Y-100800000D02*
X181650000Y-100800000D01*
X181650000Y-100800000D02*
X181650000Y-97650000D01*
X183350000Y-100800000D02*
X183350000Y-97650000D01*
G04 #@! TO.C,R80*
X186390000Y-104702064D02*
X186390000Y-103497936D01*
X188210000Y-104702064D02*
X188210000Y-103497936D01*
G04 #@! TO.C,R68*
X135297936Y-80210000D02*
X136502064Y-80210000D01*
X135297936Y-78390000D02*
X136502064Y-78390000D01*
G04 #@! TO.C,R60*
X79790000Y-99102064D02*
X79790000Y-97897936D01*
X81610000Y-99102064D02*
X81610000Y-97897936D01*
G04 #@! TO.C,R61*
X86410000Y-99102064D02*
X86410000Y-97897936D01*
X84590000Y-99102064D02*
X84590000Y-97897936D01*
G04 #@! TO.C,R62*
X179190000Y-104702064D02*
X179190000Y-103497936D01*
X181010000Y-104702064D02*
X181010000Y-103497936D01*
G04 #@! TO.C,R63*
X185810000Y-104702064D02*
X185810000Y-103497936D01*
X183990000Y-104702064D02*
X183990000Y-103497936D01*
G04 #@! TO.C,R67*
X135297936Y-78010000D02*
X136502064Y-78010000D01*
X135297936Y-76190000D02*
X136502064Y-76190000D01*
G04 #@! TO.C,R66*
X77390000Y-99102064D02*
X77390000Y-97897936D01*
X79210000Y-99102064D02*
X79210000Y-97897936D01*
G04 #@! TO.C,R64*
X188790000Y-104702064D02*
X188790000Y-103497936D01*
X190610000Y-104702064D02*
X190610000Y-103497936D01*
G04 #@! TO.C,R59*
X76810000Y-99102064D02*
X76810000Y-97897936D01*
X74990000Y-99102064D02*
X74990000Y-97897936D01*
G04 #@! TO.C,R71*
X86990000Y-99102064D02*
X86990000Y-97897936D01*
X88810000Y-99102064D02*
X88810000Y-97897936D01*
G04 #@! TO.C,R72*
X178610000Y-104702064D02*
X178610000Y-103497936D01*
X176790000Y-104702064D02*
X176790000Y-103497936D01*
G04 #@! TO.C,R74*
X152190000Y-105897936D02*
X152190000Y-107102064D01*
X154010000Y-105897936D02*
X154010000Y-107102064D01*
G04 #@! TO.C,R75*
X194397936Y-100890000D02*
X195602064Y-100890000D01*
X194397936Y-102710000D02*
X195602064Y-102710000D01*
G04 #@! TO.C,R76*
X183410000Y-104702064D02*
X183410000Y-103497936D01*
X181590000Y-104702064D02*
X181590000Y-103497936D01*
G04 #@! TO.C,R79*
X149890000Y-107102064D02*
X149890000Y-105897936D01*
X151710000Y-107102064D02*
X151710000Y-105897936D01*
G04 #@! TO.C,R70*
X84010000Y-99102064D02*
X84010000Y-97897936D01*
X82190000Y-99102064D02*
X82190000Y-97897936D01*
D15*
G04 #@! TO.C,TVS12*
X205000000Y-89703001D02*
X205000000Y-90973001D01*
X205635000Y-90719001D02*
X204365000Y-90719001D01*
X205000000Y-90719001D02*
X205635000Y-89957001D01*
X205000000Y-90719001D02*
X205508000Y-89957001D01*
X205000000Y-90719001D02*
X205381000Y-89957001D01*
X205000000Y-90719001D02*
X205254000Y-89957001D01*
X205000000Y-90719001D02*
X205127000Y-89957001D01*
X205000000Y-90719001D02*
X204365000Y-89957001D01*
X205000000Y-90719001D02*
X204492000Y-89957001D01*
X205000000Y-90719001D02*
X204619000Y-89957001D01*
X205000000Y-90719001D02*
X204746000Y-89957001D01*
X205000000Y-90719001D02*
X204873000Y-89957001D01*
X205635000Y-89957001D02*
X204365000Y-89957001D01*
X202903000Y-89322001D02*
X202903000Y-83477999D01*
X202903000Y-83477999D02*
X203562260Y-83477999D01*
X207097000Y-83477999D02*
X207097000Y-89322001D01*
X207097000Y-89322001D02*
X206437740Y-89322001D01*
X203562260Y-89322001D02*
X202903000Y-89322001D01*
X206437740Y-83477999D02*
X207097000Y-83477999D01*
G04 #@! TO.C,TVS11*
X191377999Y-92762260D02*
X191377999Y-92103000D01*
X197222001Y-95637740D02*
X197222001Y-96297000D01*
X197222001Y-92103000D02*
X197222001Y-92762260D01*
X191377999Y-92103000D02*
X197222001Y-92103000D01*
X191377999Y-96297000D02*
X191377999Y-95637740D01*
X197222001Y-96297000D02*
X191377999Y-96297000D01*
X197857001Y-93565000D02*
X197857001Y-94835000D01*
X198619001Y-94200000D02*
X197857001Y-94327000D01*
X198619001Y-94200000D02*
X197857001Y-94454000D01*
X198619001Y-94200000D02*
X197857001Y-94581000D01*
X198619001Y-94200000D02*
X197857001Y-94708000D01*
X198619001Y-94200000D02*
X197857001Y-94835000D01*
X198619001Y-94200000D02*
X197857001Y-94073000D01*
X198619001Y-94200000D02*
X197857001Y-93946000D01*
X198619001Y-94200000D02*
X197857001Y-93819000D01*
X198619001Y-94200000D02*
X197857001Y-93692000D01*
X198619001Y-94200000D02*
X197857001Y-93565000D01*
X198619001Y-93565000D02*
X198619001Y-94835000D01*
X197603001Y-94200000D02*
X198873001Y-94200000D01*
G04 #@! TO.C,TVS9*
X197703001Y-98500000D02*
X198973001Y-98500000D01*
X198719001Y-97865000D02*
X198719001Y-99135000D01*
X198719001Y-98500000D02*
X197957001Y-97865000D01*
X198719001Y-98500000D02*
X197957001Y-97992000D01*
X198719001Y-98500000D02*
X197957001Y-98119000D01*
X198719001Y-98500000D02*
X197957001Y-98246000D01*
X198719001Y-98500000D02*
X197957001Y-98373000D01*
X198719001Y-98500000D02*
X197957001Y-99135000D01*
X198719001Y-98500000D02*
X197957001Y-99008000D01*
X198719001Y-98500000D02*
X197957001Y-98881000D01*
X198719001Y-98500000D02*
X197957001Y-98754000D01*
X198719001Y-98500000D02*
X197957001Y-98627000D01*
X197957001Y-97865000D02*
X197957001Y-99135000D01*
X197322001Y-100597000D02*
X191477999Y-100597000D01*
X191477999Y-100597000D02*
X191477999Y-99937740D01*
X191477999Y-96403000D02*
X197322001Y-96403000D01*
X197322001Y-96403000D02*
X197322001Y-97062260D01*
X197322001Y-99937740D02*
X197322001Y-100597000D01*
X191477999Y-97062260D02*
X191477999Y-96403000D01*
G04 #@! TO.C,J8*
X200281000Y-108862010D02*
G75*
G03X200281000Y-108862010I-381000J0D01*
G01*
G04 #@! TO.C,J7*
X67818000Y-113317010D02*
G75*
G03X67818000Y-113317010I-381000J0D01*
G01*
D12*
G04 #@! TO.C,J14*
X191195000Y-86935000D02*
X191195000Y-89595000D01*
X180975000Y-86935000D02*
X191195000Y-86935000D01*
X180975000Y-89595000D02*
X191195000Y-89595000D01*
X180975000Y-86935000D02*
X180975000Y-89595000D01*
X179705000Y-86935000D02*
X178375000Y-86935000D01*
X178375000Y-86935000D02*
X178375000Y-88265000D01*
G04 #@! TO.C,Q12*
X186380000Y-111635000D02*
X186380000Y-113095000D01*
X189540000Y-111635000D02*
X189540000Y-113795000D01*
X189540000Y-111635000D02*
X188610000Y-111635000D01*
X186380000Y-111635000D02*
X187310000Y-111635000D01*
G04 #@! TO.C,C1*
X90202936Y-69575000D02*
X91407064Y-69575000D01*
X90202936Y-71395000D02*
X91407064Y-71395000D01*
G04 #@! TO.C,C2*
X90202936Y-73935000D02*
X91407064Y-73935000D01*
X90202936Y-72115000D02*
X91407064Y-72115000D01*
G04 #@! TO.C,C3*
X93377936Y-65765000D02*
X94582064Y-65765000D01*
X93377936Y-67585000D02*
X94582064Y-67585000D01*
G04 #@! TO.C,C4*
X93377936Y-65045000D02*
X94582064Y-65045000D01*
X93377936Y-63225000D02*
X94582064Y-63225000D01*
G04 #@! TO.C,C5*
X137827936Y-91165000D02*
X139032064Y-91165000D01*
X137827936Y-92985000D02*
X139032064Y-92985000D01*
G04 #@! TO.C,C6*
X137827936Y-95525000D02*
X139032064Y-95525000D01*
X137827936Y-93705000D02*
X139032064Y-93705000D01*
G04 #@! TO.C,C11*
X116872936Y-71480000D02*
X118077064Y-71480000D01*
X116872936Y-73300000D02*
X118077064Y-73300000D01*
G04 #@! TO.C,C12*
X116872936Y-69490000D02*
X118077064Y-69490000D01*
X116872936Y-67670000D02*
X118077064Y-67670000D01*
G04 #@! TO.C,C13*
X100932064Y-67585000D02*
X99727936Y-67585000D01*
X100932064Y-65765000D02*
X99727936Y-65765000D01*
G04 #@! TO.C,C14*
X128630000Y-92107936D02*
X128630000Y-93312064D01*
X130450000Y-92107936D02*
X130450000Y-93312064D01*
G04 #@! TO.C,C15*
X99166000Y-83406064D02*
X99166000Y-82201936D01*
X100986000Y-83406064D02*
X100986000Y-82201936D01*
G04 #@! TO.C,C18*
X98700000Y-83406064D02*
X98700000Y-82201936D01*
X96880000Y-83406064D02*
X96880000Y-82201936D01*
G04 #@! TO.C,C20*
X193950000Y-68547064D02*
X193950000Y-67342936D01*
X192130000Y-68547064D02*
X192130000Y-67342936D01*
G04 #@! TO.C,C22*
X179672064Y-70845000D02*
X178467936Y-70845000D01*
X179672064Y-72665000D02*
X178467936Y-72665000D01*
G04 #@! TO.C,J22*
X145990000Y-86935000D02*
X145990000Y-88265000D01*
X147320000Y-86935000D02*
X145990000Y-86935000D01*
X148590000Y-86935000D02*
X148590000Y-89595000D01*
X148590000Y-89595000D02*
X158810000Y-89595000D01*
X148590000Y-86935000D02*
X158810000Y-86935000D01*
X158810000Y-86935000D02*
X158810000Y-89595000D01*
G04 #@! TO.C,J20*
X81220000Y-87570000D02*
X81220000Y-88900000D01*
X82550000Y-87570000D02*
X81220000Y-87570000D01*
X83820000Y-87570000D02*
X83820000Y-90230000D01*
X83820000Y-90230000D02*
X94040000Y-90230000D01*
X83820000Y-87570000D02*
X94040000Y-87570000D01*
X94040000Y-87570000D02*
X94040000Y-90230000D01*
G04 #@! TO.C,J21*
X127695000Y-93285000D02*
X127695000Y-95945000D01*
X117475000Y-93285000D02*
X127695000Y-93285000D01*
X117475000Y-95945000D02*
X127695000Y-95945000D01*
X117475000Y-93285000D02*
X117475000Y-95945000D01*
X116205000Y-93285000D02*
X114875000Y-93285000D01*
X114875000Y-93285000D02*
X114875000Y-94615000D01*
G04 #@! TO.C,Z5*
X178855000Y-109860000D02*
X178855000Y-113010000D01*
X180555000Y-109860000D02*
X180555000Y-113010000D01*
X178855000Y-109860000D02*
X180555000Y-109860000D01*
G04 #@! TO.C,D15*
X93550000Y-95600000D02*
X91850000Y-95600000D01*
X91850000Y-95600000D02*
X91850000Y-92450000D01*
X93550000Y-95600000D02*
X93550000Y-92450000D01*
G04 #@! TO.C,Z7*
X194730000Y-110495000D02*
X196430000Y-110495000D01*
X196430000Y-110495000D02*
X196430000Y-113645000D01*
X194730000Y-110495000D02*
X194730000Y-113645000D01*
G04 #@! TO.C,Z6*
X104560000Y-109860000D02*
X104560000Y-113010000D01*
X106260000Y-109860000D02*
X106260000Y-113010000D01*
X104560000Y-109860000D02*
X106260000Y-109860000D01*
G04 #@! TO.C,Z4*
X88685000Y-109860000D02*
X90385000Y-109860000D01*
X90385000Y-109860000D02*
X90385000Y-113010000D01*
X88685000Y-109860000D02*
X88685000Y-113010000D01*
G04 #@! TO.C,Z3*
X123610000Y-109860000D02*
X123610000Y-113010000D01*
X125310000Y-109860000D02*
X125310000Y-113010000D01*
X123610000Y-109860000D02*
X125310000Y-109860000D01*
G04 #@! TO.C,Z2*
X162980000Y-109860000D02*
X164680000Y-109860000D01*
X164680000Y-109860000D02*
X164680000Y-113010000D01*
X162980000Y-109860000D02*
X162980000Y-113010000D01*
G04 #@! TO.C,Z1*
X72556000Y-112019000D02*
X72556000Y-115169000D01*
X74256000Y-112019000D02*
X74256000Y-115169000D01*
X72556000Y-112019000D02*
X74256000Y-112019000D01*
G04 #@! TO.C,Z8*
X147105000Y-109860000D02*
X148805000Y-109860000D01*
X148805000Y-109860000D02*
X148805000Y-113010000D01*
X147105000Y-109860000D02*
X147105000Y-113010000D01*
G04 #@! TO.C,D13*
X89450000Y-91800000D02*
X91150000Y-91800000D01*
X91150000Y-91800000D02*
X91150000Y-94950000D01*
X89450000Y-91800000D02*
X89450000Y-94950000D01*
G04 #@! TO.C,Q11*
X96210000Y-111635000D02*
X97140000Y-111635000D01*
X99370000Y-111635000D02*
X98440000Y-111635000D01*
X99370000Y-111635000D02*
X99370000Y-113795000D01*
X96210000Y-111635000D02*
X96210000Y-113095000D01*
G04 #@! TO.C,Q18*
X154630000Y-111635000D02*
X154630000Y-113095000D01*
X157790000Y-111635000D02*
X157790000Y-113795000D01*
X157790000Y-111635000D02*
X156860000Y-111635000D01*
X154630000Y-111635000D02*
X155560000Y-111635000D01*
G04 #@! TO.C,Q15*
X112420000Y-105990000D02*
X113350000Y-105990000D01*
X115580000Y-105990000D02*
X114650000Y-105990000D01*
X115580000Y-105990000D02*
X115580000Y-108150000D01*
X112420000Y-105990000D02*
X112420000Y-107450000D01*
G04 #@! TO.C,Q8*
X104265000Y-70810000D02*
X104265000Y-71740000D01*
X104265000Y-73970000D02*
X104265000Y-73040000D01*
X104265000Y-73970000D02*
X102105000Y-73970000D01*
X104265000Y-70810000D02*
X102805000Y-70810000D01*
G04 #@! TO.C,Q6*
X170505000Y-111635000D02*
X171435000Y-111635000D01*
X173665000Y-111635000D02*
X172735000Y-111635000D01*
X173665000Y-111635000D02*
X173665000Y-113795000D01*
X170505000Y-111635000D02*
X170505000Y-113095000D01*
G04 #@! TO.C,Q16*
X202255000Y-111635000D02*
X202255000Y-113095000D01*
X205415000Y-111635000D02*
X205415000Y-113795000D01*
X205415000Y-111635000D02*
X204485000Y-111635000D01*
X202255000Y-111635000D02*
X203185000Y-111635000D01*
G04 #@! TO.C,Q5*
X80335000Y-112270000D02*
X81265000Y-112270000D01*
X83495000Y-112270000D02*
X82565000Y-112270000D01*
X83495000Y-112270000D02*
X83495000Y-114430000D01*
X80335000Y-112270000D02*
X80335000Y-113730000D01*
G04 #@! TO.C,R19*
X83217936Y-67670000D02*
X84422064Y-67670000D01*
X83217936Y-69490000D02*
X84422064Y-69490000D01*
G04 #@! TO.C,R16*
X96552936Y-73935000D02*
X97757064Y-73935000D01*
X96552936Y-72115000D02*
X97757064Y-72115000D01*
G04 #@! TO.C,R15*
X183155000Y-111157936D02*
X183155000Y-112362064D01*
X181335000Y-111157936D02*
X181335000Y-112362064D01*
G04 #@! TO.C,R1*
X75290000Y-107157936D02*
X75290000Y-108362064D01*
X77110000Y-107157936D02*
X77110000Y-108362064D01*
G04 #@! TO.C,R13*
X84422064Y-66950000D02*
X83217936Y-66950000D01*
X84422064Y-65130000D02*
X83217936Y-65130000D01*
G04 #@! TO.C,R12*
X133710000Y-92107936D02*
X133710000Y-93312064D01*
X135530000Y-92107936D02*
X135530000Y-93312064D01*
G04 #@! TO.C,R11*
X96552936Y-69575000D02*
X97757064Y-69575000D01*
X96552936Y-71395000D02*
X97757064Y-71395000D01*
G04 #@! TO.C,R8*
X132990000Y-93312064D02*
X132990000Y-92107936D01*
X131170000Y-93312064D02*
X131170000Y-92107936D01*
G04 #@! TO.C,R7*
X174657936Y-115930000D02*
X175862064Y-115930000D01*
X174657936Y-117750000D02*
X175862064Y-117750000D01*
G04 #@! TO.C,R4*
X168000000Y-112362064D02*
X168000000Y-111157936D01*
X169820000Y-112362064D02*
X169820000Y-111157936D01*
G04 #@! TO.C,R18*
X72992064Y-74655000D02*
X71787936Y-74655000D01*
X72992064Y-76475000D02*
X71787936Y-76475000D01*
G04 #@! TO.C,R20*
X93705000Y-112362064D02*
X93705000Y-111157936D01*
X95525000Y-112362064D02*
X95525000Y-111157936D01*
G04 #@! TO.C,R21*
X185695000Y-112362064D02*
X185695000Y-111157936D01*
X183875000Y-112362064D02*
X183875000Y-111157936D01*
G04 #@! TO.C,R14*
X92985000Y-111157936D02*
X92985000Y-112362064D01*
X91165000Y-111157936D02*
X91165000Y-112362064D01*
G04 #@! TO.C,R6*
X84487936Y-117750000D02*
X85692064Y-117750000D01*
X84487936Y-115930000D02*
X85692064Y-115930000D01*
G04 #@! TO.C,R29*
X190532936Y-115930000D02*
X191737064Y-115930000D01*
X190532936Y-117750000D02*
X191737064Y-117750000D01*
G04 #@! TO.C,R28*
X100362936Y-117750000D02*
X101567064Y-117750000D01*
X100362936Y-115930000D02*
X101567064Y-115930000D01*
G04 #@! TO.C,R5*
X123550000Y-119347064D02*
X123550000Y-118142936D01*
X125370000Y-119347064D02*
X125370000Y-118142936D01*
G04 #@! TO.C,R55*
X152125000Y-112362064D02*
X152125000Y-111157936D01*
X153945000Y-112362064D02*
X153945000Y-111157936D01*
G04 #@! TO.C,R57*
X158782936Y-115930000D02*
X159987064Y-115930000D01*
X158782936Y-117750000D02*
X159987064Y-117750000D01*
G04 #@! TO.C,R39*
X70452064Y-86000000D02*
X69247936Y-86000000D01*
X70452064Y-84180000D02*
X69247936Y-84180000D01*
G04 #@! TO.C,R53*
X149585000Y-111157936D02*
X149585000Y-112362064D01*
X151405000Y-111157936D02*
X151405000Y-112362064D01*
G04 #@! TO.C,R38*
X199030000Y-111157936D02*
X199030000Y-112362064D01*
X197210000Y-111157936D02*
X197210000Y-112362064D01*
G04 #@! TO.C,R37*
X107040000Y-111157936D02*
X107040000Y-112362064D01*
X108860000Y-111157936D02*
X108860000Y-112362064D01*
G04 #@! TO.C,R54*
X89390000Y-99102064D02*
X89390000Y-97897936D01*
X91210000Y-99102064D02*
X91210000Y-97897936D01*
G04 #@! TO.C,R52*
X91790000Y-97897936D02*
X91790000Y-99102064D01*
X93610000Y-97897936D02*
X93610000Y-99102064D01*
G04 #@! TO.C,R40*
X147595000Y-80042936D02*
X147595000Y-81247064D01*
X145775000Y-80042936D02*
X145775000Y-81247064D01*
G04 #@! TO.C,R41*
X111400000Y-112362064D02*
X111400000Y-111157936D01*
X109580000Y-112362064D02*
X109580000Y-111157936D01*
G04 #@! TO.C,R2*
X167280000Y-111157936D02*
X167280000Y-112362064D01*
X165460000Y-111157936D02*
X165460000Y-112362064D01*
G04 #@! TO.C,R49*
X144812936Y-84180000D02*
X146017064Y-84180000D01*
X144812936Y-86000000D02*
X146017064Y-86000000D01*
G04 #@! TO.C,R50*
X151097064Y-84180000D02*
X149892936Y-84180000D01*
X151097064Y-86000000D02*
X149892936Y-86000000D01*
G04 #@! TO.C,R45*
X118777936Y-112035000D02*
X119982064Y-112035000D01*
X118777936Y-110215000D02*
X119982064Y-110215000D01*
G04 #@! TO.C,R44*
X191410000Y-67342936D02*
X191410000Y-68547064D01*
X189590000Y-67342936D02*
X189590000Y-68547064D01*
G04 #@! TO.C,R43*
X178467936Y-70125000D02*
X179672064Y-70125000D01*
X178467936Y-68305000D02*
X179672064Y-68305000D01*
G04 #@! TO.C,R3*
X77830000Y-108362064D02*
X77830000Y-107157936D01*
X79650000Y-108362064D02*
X79650000Y-107157936D01*
G04 #@! TO.C,R42*
X201570000Y-112362064D02*
X201570000Y-111157936D01*
X199750000Y-112362064D02*
X199750000Y-111157936D01*
D15*
G04 #@! TO.C,TVS8*
X130297553Y-95925100D02*
X130824000Y-95925100D01*
X128302447Y-100674900D02*
X127776000Y-100674900D01*
X130824000Y-100674900D02*
X130297553Y-100674900D01*
X130824000Y-95925100D02*
X130824000Y-100674900D01*
X127776000Y-95925100D02*
X128302447Y-95925100D01*
X127776000Y-100674900D02*
X127776000Y-95925100D01*
X129935000Y-100941600D02*
X128665000Y-100941600D01*
X129300000Y-101703600D02*
X129173000Y-100941600D01*
X129300000Y-101703600D02*
X129046000Y-100941600D01*
X129300000Y-101703600D02*
X128919000Y-100941600D01*
X129300000Y-101703600D02*
X128792000Y-100941600D01*
X129300000Y-101703600D02*
X128665000Y-100941600D01*
X129300000Y-101703600D02*
X129427000Y-100941600D01*
X129300000Y-101703600D02*
X129554000Y-100941600D01*
X129300000Y-101703600D02*
X129681000Y-100941600D01*
X129300000Y-101703600D02*
X129808000Y-100941600D01*
X129300000Y-101703600D02*
X129935000Y-100941600D01*
X129935000Y-101703600D02*
X128665000Y-101703600D01*
X129300000Y-100715540D02*
X129300000Y-101957600D01*
G04 #@! TO.C,REF\002A\002A*
D10*
X170611047Y-129466190D02*
X170658666Y-129561428D01*
X170706285Y-129609047D01*
X170801523Y-129656666D01*
X170849142Y-129656666D01*
X170944380Y-129609047D01*
X170992000Y-129561428D01*
X171039619Y-129466190D01*
X171039619Y-129275714D01*
X170992000Y-129180476D01*
X170944380Y-129132857D01*
X170849142Y-129085238D01*
X170801523Y-129085238D01*
X170706285Y-129132857D01*
X170658666Y-129180476D01*
X170611047Y-129275714D01*
X170611047Y-129466190D01*
X170563428Y-129561428D01*
X170515809Y-129609047D01*
X170420571Y-129656666D01*
X170230095Y-129656666D01*
X170134857Y-129609047D01*
X170087238Y-129561428D01*
X170039619Y-129466190D01*
X170039619Y-129275714D01*
X170087238Y-129180476D01*
X170134857Y-129132857D01*
X170230095Y-129085238D01*
X170420571Y-129085238D01*
X170515809Y-129132857D01*
X170563428Y-129180476D01*
X170611047Y-129275714D01*
X170039619Y-128751904D02*
X170706285Y-128228095D01*
X170706285Y-128751904D02*
X170039619Y-128228095D01*
X170611047Y-127704285D02*
X170658666Y-127799523D01*
X170706285Y-127847142D01*
X170801523Y-127894761D01*
X170849142Y-127894761D01*
X170944380Y-127847142D01*
X170992000Y-127799523D01*
X171039619Y-127704285D01*
X171039619Y-127513809D01*
X170992000Y-127418571D01*
X170944380Y-127370952D01*
X170849142Y-127323333D01*
X170801523Y-127323333D01*
X170706285Y-127370952D01*
X170658666Y-127418571D01*
X170611047Y-127513809D01*
X170611047Y-127704285D01*
X170563428Y-127799523D01*
X170515809Y-127847142D01*
X170420571Y-127894761D01*
X170230095Y-127894761D01*
X170134857Y-127847142D01*
X170087238Y-127799523D01*
X170039619Y-127704285D01*
X170039619Y-127513809D01*
X170087238Y-127418571D01*
X170134857Y-127370952D01*
X170230095Y-127323333D01*
X170420571Y-127323333D01*
X170515809Y-127370952D01*
X170563428Y-127418571D01*
X170611047Y-127513809D01*
X169944380Y-127132857D02*
X169944380Y-126370952D01*
X170039619Y-125656666D02*
X170039619Y-126132857D01*
X171039619Y-126132857D01*
X170563428Y-125323333D02*
X170563428Y-124990000D01*
X170039619Y-124847142D02*
X170039619Y-125323333D01*
X171039619Y-125323333D01*
X171039619Y-124847142D01*
X170039619Y-124418571D02*
X171039619Y-124418571D01*
X171039619Y-124180476D01*
X170992000Y-124037619D01*
X170896761Y-123942380D01*
X170801523Y-123894761D01*
X170611047Y-123847142D01*
X170468190Y-123847142D01*
X170277714Y-123894761D01*
X170182476Y-123942380D01*
X170087238Y-124037619D01*
X170039619Y-124180476D01*
X170039619Y-124418571D01*
X169944380Y-123656666D02*
X169944380Y-122894761D01*
X170039619Y-122656666D02*
X171039619Y-122656666D01*
X170325333Y-122323333D01*
X171039619Y-121990000D01*
X170039619Y-121990000D01*
X170325333Y-121561428D02*
X170325333Y-121085238D01*
X170039619Y-121656666D02*
X171039619Y-121323333D01*
X170039619Y-120990000D01*
X171039619Y-120751904D02*
X170039619Y-120085238D01*
X171039619Y-120085238D02*
X170039619Y-120751904D01*
X171039619Y-119799523D02*
X171039619Y-119132857D01*
X170039619Y-119561428D01*
X170944380Y-118799523D02*
X170992000Y-118751904D01*
X171039619Y-118656666D01*
X171039619Y-118418571D01*
X170992000Y-118323333D01*
X170944380Y-118275714D01*
X170849142Y-118228095D01*
X170753904Y-118228095D01*
X170611047Y-118275714D01*
X170039619Y-118847142D01*
X170039619Y-118228095D01*
X170039619Y-117275714D02*
X170039619Y-117847142D01*
X170039619Y-117561428D02*
X171039619Y-117561428D01*
X170896761Y-117656666D01*
X170801523Y-117751904D01*
X170753904Y-117847142D01*
X170039619Y-116799523D02*
X170039619Y-116609047D01*
X170087238Y-116513809D01*
X170134857Y-116466190D01*
X170277714Y-116370952D01*
X170468190Y-116323333D01*
X170849142Y-116323333D01*
X170944380Y-116370952D01*
X170992000Y-116418571D01*
X171039619Y-116513809D01*
X171039619Y-116704285D01*
X170992000Y-116799523D01*
X170944380Y-116847142D01*
X170849142Y-116894761D01*
X170611047Y-116894761D01*
X170515809Y-116847142D01*
X170468190Y-116799523D01*
X170420571Y-116704285D01*
X170420571Y-116513809D01*
X170468190Y-116418571D01*
X170515809Y-116370952D01*
X170611047Y-116323333D01*
X106095047Y-129466190D02*
X106142666Y-129561428D01*
X106190285Y-129609047D01*
X106285523Y-129656666D01*
X106333142Y-129656666D01*
X106428380Y-129609047D01*
X106476000Y-129561428D01*
X106523619Y-129466190D01*
X106523619Y-129275714D01*
X106476000Y-129180476D01*
X106428380Y-129132857D01*
X106333142Y-129085238D01*
X106285523Y-129085238D01*
X106190285Y-129132857D01*
X106142666Y-129180476D01*
X106095047Y-129275714D01*
X106095047Y-129466190D01*
X106047428Y-129561428D01*
X105999809Y-129609047D01*
X105904571Y-129656666D01*
X105714095Y-129656666D01*
X105618857Y-129609047D01*
X105571238Y-129561428D01*
X105523619Y-129466190D01*
X105523619Y-129275714D01*
X105571238Y-129180476D01*
X105618857Y-129132857D01*
X105714095Y-129085238D01*
X105904571Y-129085238D01*
X105999809Y-129132857D01*
X106047428Y-129180476D01*
X106095047Y-129275714D01*
X105523619Y-128751904D02*
X106190285Y-128228095D01*
X106190285Y-128751904D02*
X105523619Y-128228095D01*
X106095047Y-127704285D02*
X106142666Y-127799523D01*
X106190285Y-127847142D01*
X106285523Y-127894761D01*
X106333142Y-127894761D01*
X106428380Y-127847142D01*
X106476000Y-127799523D01*
X106523619Y-127704285D01*
X106523619Y-127513809D01*
X106476000Y-127418571D01*
X106428380Y-127370952D01*
X106333142Y-127323333D01*
X106285523Y-127323333D01*
X106190285Y-127370952D01*
X106142666Y-127418571D01*
X106095047Y-127513809D01*
X106095047Y-127704285D01*
X106047428Y-127799523D01*
X105999809Y-127847142D01*
X105904571Y-127894761D01*
X105714095Y-127894761D01*
X105618857Y-127847142D01*
X105571238Y-127799523D01*
X105523619Y-127704285D01*
X105523619Y-127513809D01*
X105571238Y-127418571D01*
X105618857Y-127370952D01*
X105714095Y-127323333D01*
X105904571Y-127323333D01*
X105999809Y-127370952D01*
X106047428Y-127418571D01*
X106095047Y-127513809D01*
X105428380Y-127132857D02*
X105428380Y-126370952D01*
X105523619Y-125656666D02*
X105523619Y-126132857D01*
X106523619Y-126132857D01*
X106047428Y-125323333D02*
X106047428Y-124990000D01*
X105523619Y-124847142D02*
X105523619Y-125323333D01*
X106523619Y-125323333D01*
X106523619Y-124847142D01*
X105523619Y-124418571D02*
X106523619Y-124418571D01*
X106523619Y-124180476D01*
X106476000Y-124037619D01*
X106380761Y-123942380D01*
X106285523Y-123894761D01*
X106095047Y-123847142D01*
X105952190Y-123847142D01*
X105761714Y-123894761D01*
X105666476Y-123942380D01*
X105571238Y-124037619D01*
X105523619Y-124180476D01*
X105523619Y-124418571D01*
X105428380Y-123656666D02*
X105428380Y-122894761D01*
X105523619Y-122656666D02*
X106523619Y-122656666D01*
X105809333Y-122323333D01*
X106523619Y-121990000D01*
X105523619Y-121990000D01*
X105809333Y-121561428D02*
X105809333Y-121085238D01*
X105523619Y-121656666D02*
X106523619Y-121323333D01*
X105523619Y-120990000D01*
X106523619Y-120751904D02*
X105523619Y-120085238D01*
X106523619Y-120085238D02*
X105523619Y-120751904D01*
X106523619Y-119799523D02*
X106523619Y-119132857D01*
X105523619Y-119561428D01*
X106428380Y-118799523D02*
X106476000Y-118751904D01*
X106523619Y-118656666D01*
X106523619Y-118418571D01*
X106476000Y-118323333D01*
X106428380Y-118275714D01*
X106333142Y-118228095D01*
X106237904Y-118228095D01*
X106095047Y-118275714D01*
X105523619Y-118847142D01*
X105523619Y-118228095D01*
X105523619Y-117275714D02*
X105523619Y-117847142D01*
X105523619Y-117561428D02*
X106523619Y-117561428D01*
X106380761Y-117656666D01*
X106285523Y-117751904D01*
X106237904Y-117847142D01*
X105523619Y-116799523D02*
X105523619Y-116609047D01*
X105571238Y-116513809D01*
X105618857Y-116466190D01*
X105761714Y-116370952D01*
X105952190Y-116323333D01*
X106333142Y-116323333D01*
X106428380Y-116370952D01*
X106476000Y-116418571D01*
X106523619Y-116513809D01*
X106523619Y-116704285D01*
X106476000Y-116799523D01*
X106428380Y-116847142D01*
X106333142Y-116894761D01*
X106095047Y-116894761D01*
X105999809Y-116847142D01*
X105952190Y-116799523D01*
X105904571Y-116704285D01*
X105904571Y-116513809D01*
X105952190Y-116418571D01*
X105999809Y-116370952D01*
X106095047Y-116323333D01*
X132109523Y-58666666D02*
X131633333Y-58666666D01*
X132204761Y-58952380D02*
X131871428Y-57952380D01*
X131538095Y-58952380D01*
X130776190Y-58952380D02*
X130776190Y-57952380D01*
X130776190Y-58904761D02*
X130871428Y-58952380D01*
X131061904Y-58952380D01*
X131157142Y-58904761D01*
X131204761Y-58857142D01*
X131252380Y-58761904D01*
X131252380Y-58476190D01*
X131204761Y-58380952D01*
X131157142Y-58333333D01*
X131061904Y-58285714D01*
X130871428Y-58285714D01*
X130776190Y-58333333D01*
X129871428Y-58952380D02*
X129871428Y-58428571D01*
X129919047Y-58333333D01*
X130014285Y-58285714D01*
X130204761Y-58285714D01*
X130300000Y-58333333D01*
X129871428Y-58904761D02*
X129966666Y-58952380D01*
X130204761Y-58952380D01*
X130300000Y-58904761D01*
X130347619Y-58809523D01*
X130347619Y-58714285D01*
X130300000Y-58619047D01*
X130204761Y-58571428D01*
X129966666Y-58571428D01*
X129871428Y-58523809D01*
X129538095Y-58285714D02*
X129157142Y-58285714D01*
X129395238Y-58952380D02*
X129395238Y-58095238D01*
X129347619Y-58000000D01*
X129252380Y-57952380D01*
X129157142Y-57952380D01*
X128395238Y-58285714D02*
X128395238Y-58952380D01*
X128823809Y-58285714D02*
X128823809Y-58809523D01*
X128776190Y-58904761D01*
X128680952Y-58952380D01*
X128538095Y-58952380D01*
X128442857Y-58904761D01*
X128395238Y-58857142D01*
X127919047Y-58952380D02*
X127919047Y-58285714D01*
X127919047Y-57952380D02*
X127966666Y-58000000D01*
X127919047Y-58047619D01*
X127871428Y-58000000D01*
X127919047Y-57952380D01*
X127919047Y-58047619D01*
X127585714Y-58285714D02*
X127204761Y-58285714D01*
X127442857Y-57952380D02*
X127442857Y-58809523D01*
X127395238Y-58904761D01*
X127300000Y-58952380D01*
X127204761Y-58952380D01*
X126871428Y-58571428D02*
X126109523Y-58571428D01*
X125109523Y-58952380D02*
X125680952Y-58952380D01*
X125395238Y-58952380D02*
X125395238Y-57952380D01*
X125490476Y-58095238D01*
X125585714Y-58190476D01*
X125680952Y-58238095D01*
X124252380Y-58285714D02*
X124252380Y-58952380D01*
X124490476Y-57904761D02*
X124728571Y-58619047D01*
X124109523Y-58619047D01*
X123728571Y-58571428D02*
X122966666Y-58571428D01*
X122538095Y-58904761D02*
X122442857Y-58952380D01*
X122252380Y-58952380D01*
X122157142Y-58904761D01*
X122109523Y-58809523D01*
X122109523Y-58761904D01*
X122157142Y-58666666D01*
X122252380Y-58619047D01*
X122395238Y-58619047D01*
X122490476Y-58571428D01*
X122538095Y-58476190D01*
X122538095Y-58428571D01*
X122490476Y-58333333D01*
X122395238Y-58285714D01*
X122252380Y-58285714D01*
X122157142Y-58333333D01*
X121300000Y-58904761D02*
X121395238Y-58952380D01*
X121585714Y-58952380D01*
X121680952Y-58904761D01*
X121728571Y-58809523D01*
X121728571Y-58428571D01*
X121680952Y-58333333D01*
X121585714Y-58285714D01*
X121395238Y-58285714D01*
X121300000Y-58333333D01*
X121252380Y-58428571D01*
X121252380Y-58523809D01*
X121728571Y-58619047D01*
X120395238Y-58285714D02*
X120395238Y-59095238D01*
X120442857Y-59190476D01*
X120490476Y-59238095D01*
X120585714Y-59285714D01*
X120728571Y-59285714D01*
X120823809Y-59238095D01*
X120395238Y-58904761D02*
X120490476Y-58952380D01*
X120680952Y-58952380D01*
X120776190Y-58904761D01*
X120823809Y-58857142D01*
X120871428Y-58761904D01*
X120871428Y-58476190D01*
X120823809Y-58380952D01*
X120776190Y-58333333D01*
X120680952Y-58285714D01*
X120490476Y-58285714D01*
X120395238Y-58333333D01*
X119919047Y-58952380D02*
X119919047Y-58285714D01*
X119919047Y-58380952D02*
X119871428Y-58333333D01*
X119776190Y-58285714D01*
X119633333Y-58285714D01*
X119538095Y-58333333D01*
X119490476Y-58428571D01*
X119490476Y-58952380D01*
X119490476Y-58428571D02*
X119442857Y-58333333D01*
X119347619Y-58285714D01*
X119204761Y-58285714D01*
X119109523Y-58333333D01*
X119061904Y-58428571D01*
X119061904Y-58952380D01*
X118204761Y-58904761D02*
X118300000Y-58952380D01*
X118490476Y-58952380D01*
X118585714Y-58904761D01*
X118633333Y-58809523D01*
X118633333Y-58428571D01*
X118585714Y-58333333D01*
X118490476Y-58285714D01*
X118300000Y-58285714D01*
X118204761Y-58333333D01*
X118157142Y-58428571D01*
X118157142Y-58523809D01*
X118633333Y-58619047D01*
X117728571Y-58285714D02*
X117728571Y-58952380D01*
X117728571Y-58380952D02*
X117680952Y-58333333D01*
X117585714Y-58285714D01*
X117442857Y-58285714D01*
X117347619Y-58333333D01*
X117300000Y-58428571D01*
X117300000Y-58952380D01*
X116966666Y-58285714D02*
X116585714Y-58285714D01*
X116823809Y-57952380D02*
X116823809Y-58809523D01*
X116776190Y-58904761D01*
X116680952Y-58952380D01*
X116585714Y-58952380D01*
X116252380Y-58571428D02*
X115490476Y-58571428D01*
X115014285Y-58952380D02*
X115014285Y-57952380D01*
X115014285Y-58333333D02*
X114919047Y-58285714D01*
X114728571Y-58285714D01*
X114633333Y-58333333D01*
X114585714Y-58380952D01*
X114538095Y-58476190D01*
X114538095Y-58761904D01*
X114585714Y-58857142D01*
X114633333Y-58904761D01*
X114728571Y-58952380D01*
X114919047Y-58952380D01*
X115014285Y-58904761D01*
X113680952Y-58952380D02*
X113680952Y-58428571D01*
X113728571Y-58333333D01*
X113823809Y-58285714D01*
X114014285Y-58285714D01*
X114109523Y-58333333D01*
X113680952Y-58904761D02*
X113776190Y-58952380D01*
X114014285Y-58952380D01*
X114109523Y-58904761D01*
X114157142Y-58809523D01*
X114157142Y-58714285D01*
X114109523Y-58619047D01*
X114014285Y-58571428D01*
X113776190Y-58571428D01*
X113680952Y-58523809D01*
X112776190Y-58904761D02*
X112871428Y-58952380D01*
X113061904Y-58952380D01*
X113157142Y-58904761D01*
X113204761Y-58857142D01*
X113252380Y-58761904D01*
X113252380Y-58476190D01*
X113204761Y-58380952D01*
X113157142Y-58333333D01*
X113061904Y-58285714D01*
X112871428Y-58285714D01*
X112776190Y-58333333D01*
X112347619Y-58952380D02*
X112347619Y-57952380D01*
X112252380Y-58571428D02*
X111966666Y-58952380D01*
X111966666Y-58285714D02*
X112347619Y-58666666D01*
X111538095Y-58285714D02*
X111538095Y-59285714D01*
X111538095Y-58333333D02*
X111442857Y-58285714D01*
X111252380Y-58285714D01*
X111157142Y-58333333D01*
X111109523Y-58380952D01*
X111061904Y-58476190D01*
X111061904Y-58761904D01*
X111109523Y-58857142D01*
X111157142Y-58904761D01*
X111252380Y-58952380D01*
X111442857Y-58952380D01*
X111538095Y-58904761D01*
X110204761Y-58952380D02*
X110204761Y-58428571D01*
X110252380Y-58333333D01*
X110347619Y-58285714D01*
X110538095Y-58285714D01*
X110633333Y-58333333D01*
X110204761Y-58904761D02*
X110300000Y-58952380D01*
X110538095Y-58952380D01*
X110633333Y-58904761D01*
X110680952Y-58809523D01*
X110680952Y-58714285D01*
X110633333Y-58619047D01*
X110538095Y-58571428D01*
X110300000Y-58571428D01*
X110204761Y-58523809D01*
X109300000Y-58904761D02*
X109395238Y-58952380D01*
X109585714Y-58952380D01*
X109680952Y-58904761D01*
X109728571Y-58857142D01*
X109776190Y-58761904D01*
X109776190Y-58476190D01*
X109728571Y-58380952D01*
X109680952Y-58333333D01*
X109585714Y-58285714D01*
X109395238Y-58285714D01*
X109300000Y-58333333D01*
X108871428Y-58952380D02*
X108871428Y-57952380D01*
X108776190Y-58571428D02*
X108490476Y-58952380D01*
X108490476Y-58285714D02*
X108871428Y-58666666D01*
G04 #@! TO.C,C23*
X165942857Y-105457142D02*
X165990476Y-105504761D01*
X166133333Y-105552380D01*
X166228571Y-105552380D01*
X166371428Y-105504761D01*
X166466666Y-105409523D01*
X166514285Y-105314285D01*
X166561904Y-105123809D01*
X166561904Y-104980952D01*
X166514285Y-104790476D01*
X166466666Y-104695238D01*
X166371428Y-104600000D01*
X166228571Y-104552380D01*
X166133333Y-104552380D01*
X165990476Y-104600000D01*
X165942857Y-104647619D01*
X165561904Y-104647619D02*
X165514285Y-104600000D01*
X165419047Y-104552380D01*
X165180952Y-104552380D01*
X165085714Y-104600000D01*
X165038095Y-104647619D01*
X164990476Y-104742857D01*
X164990476Y-104838095D01*
X165038095Y-104980952D01*
X165609523Y-105552380D01*
X164990476Y-105552380D01*
X164657142Y-104552380D02*
X164038095Y-104552380D01*
X164371428Y-104933333D01*
X164228571Y-104933333D01*
X164133333Y-104980952D01*
X164085714Y-105028571D01*
X164038095Y-105123809D01*
X164038095Y-105361904D01*
X164085714Y-105457142D01*
X164133333Y-105504761D01*
X164228571Y-105552380D01*
X164514285Y-105552380D01*
X164609523Y-105504761D01*
X164657142Y-105457142D01*
G04 #@! TO.C,U8*
X158361904Y-97452380D02*
X158361904Y-98261904D01*
X158314285Y-98357142D01*
X158266666Y-98404761D01*
X158171428Y-98452380D01*
X157980952Y-98452380D01*
X157885714Y-98404761D01*
X157838095Y-98357142D01*
X157790476Y-98261904D01*
X157790476Y-97452380D01*
X157171428Y-97880952D02*
X157266666Y-97833333D01*
X157314285Y-97785714D01*
X157361904Y-97690476D01*
X157361904Y-97642857D01*
X157314285Y-97547619D01*
X157266666Y-97500000D01*
X157171428Y-97452380D01*
X156980952Y-97452380D01*
X156885714Y-97500000D01*
X156838095Y-97547619D01*
X156790476Y-97642857D01*
X156790476Y-97690476D01*
X156838095Y-97785714D01*
X156885714Y-97833333D01*
X156980952Y-97880952D01*
X157171428Y-97880952D01*
X157266666Y-97928571D01*
X157314285Y-97976190D01*
X157361904Y-98071428D01*
X157361904Y-98261904D01*
X157314285Y-98357142D01*
X157266666Y-98404761D01*
X157171428Y-98452380D01*
X156980952Y-98452380D01*
X156885714Y-98404761D01*
X156838095Y-98357142D01*
X156790476Y-98261904D01*
X156790476Y-98071428D01*
X156838095Y-97976190D01*
X156885714Y-97928571D01*
X156980952Y-97880952D01*
G04 #@! TO.C,D19*
X84314285Y-91452380D02*
X84314285Y-90452380D01*
X84076190Y-90452380D01*
X83933333Y-90500000D01*
X83838095Y-90595238D01*
X83790476Y-90690476D01*
X83742857Y-90880952D01*
X83742857Y-91023809D01*
X83790476Y-91214285D01*
X83838095Y-91309523D01*
X83933333Y-91404761D01*
X84076190Y-91452380D01*
X84314285Y-91452380D01*
X82790476Y-91452380D02*
X83361904Y-91452380D01*
X83076190Y-91452380D02*
X83076190Y-90452380D01*
X83171428Y-90595238D01*
X83266666Y-90690476D01*
X83361904Y-90738095D01*
X82314285Y-91452380D02*
X82123809Y-91452380D01*
X82028571Y-91404761D01*
X81980952Y-91357142D01*
X81885714Y-91214285D01*
X81838095Y-91023809D01*
X81838095Y-90642857D01*
X81885714Y-90547619D01*
X81933333Y-90500000D01*
X82028571Y-90452380D01*
X82219047Y-90452380D01*
X82314285Y-90500000D01*
X82361904Y-90547619D01*
X82409523Y-90642857D01*
X82409523Y-90880952D01*
X82361904Y-90976190D01*
X82314285Y-91023809D01*
X82219047Y-91071428D01*
X82028571Y-91071428D01*
X81933333Y-91023809D01*
X81885714Y-90976190D01*
X81838095Y-90880952D01*
G04 #@! TO.C,D20*
X178152380Y-93685714D02*
X177152380Y-93685714D01*
X177152380Y-93923809D01*
X177200000Y-94066666D01*
X177295238Y-94161904D01*
X177390476Y-94209523D01*
X177580952Y-94257142D01*
X177723809Y-94257142D01*
X177914285Y-94209523D01*
X178009523Y-94161904D01*
X178104761Y-94066666D01*
X178152380Y-93923809D01*
X178152380Y-93685714D01*
X177247619Y-94638095D02*
X177200000Y-94685714D01*
X177152380Y-94780952D01*
X177152380Y-95019047D01*
X177200000Y-95114285D01*
X177247619Y-95161904D01*
X177342857Y-95209523D01*
X177438095Y-95209523D01*
X177580952Y-95161904D01*
X178152380Y-94590476D01*
X178152380Y-95209523D01*
X177152380Y-95828571D02*
X177152380Y-95923809D01*
X177200000Y-96019047D01*
X177247619Y-96066666D01*
X177342857Y-96114285D01*
X177533333Y-96161904D01*
X177771428Y-96161904D01*
X177961904Y-96114285D01*
X178057142Y-96066666D01*
X178104761Y-96019047D01*
X178152380Y-95923809D01*
X178152380Y-95828571D01*
X178104761Y-95733333D01*
X178057142Y-95685714D01*
X177961904Y-95638095D01*
X177771428Y-95590476D01*
X177533333Y-95590476D01*
X177342857Y-95638095D01*
X177247619Y-95685714D01*
X177200000Y-95733333D01*
X177152380Y-95828571D01*
G04 #@! TO.C,D21*
X182952380Y-93685714D02*
X181952380Y-93685714D01*
X181952380Y-93923809D01*
X182000000Y-94066666D01*
X182095238Y-94161904D01*
X182190476Y-94209523D01*
X182380952Y-94257142D01*
X182523809Y-94257142D01*
X182714285Y-94209523D01*
X182809523Y-94161904D01*
X182904761Y-94066666D01*
X182952380Y-93923809D01*
X182952380Y-93685714D01*
X182047619Y-94638095D02*
X182000000Y-94685714D01*
X181952380Y-94780952D01*
X181952380Y-95019047D01*
X182000000Y-95114285D01*
X182047619Y-95161904D01*
X182142857Y-95209523D01*
X182238095Y-95209523D01*
X182380952Y-95161904D01*
X182952380Y-94590476D01*
X182952380Y-95209523D01*
X182952380Y-96161904D02*
X182952380Y-95590476D01*
X182952380Y-95876190D02*
X181952380Y-95876190D01*
X182095238Y-95780952D01*
X182190476Y-95685714D01*
X182238095Y-95590476D01*
G04 #@! TO.C,D22*
X187852380Y-93685714D02*
X186852380Y-93685714D01*
X186852380Y-93923809D01*
X186900000Y-94066666D01*
X186995238Y-94161904D01*
X187090476Y-94209523D01*
X187280952Y-94257142D01*
X187423809Y-94257142D01*
X187614285Y-94209523D01*
X187709523Y-94161904D01*
X187804761Y-94066666D01*
X187852380Y-93923809D01*
X187852380Y-93685714D01*
X186947619Y-94638095D02*
X186900000Y-94685714D01*
X186852380Y-94780952D01*
X186852380Y-95019047D01*
X186900000Y-95114285D01*
X186947619Y-95161904D01*
X187042857Y-95209523D01*
X187138095Y-95209523D01*
X187280952Y-95161904D01*
X187852380Y-94590476D01*
X187852380Y-95209523D01*
X186947619Y-95590476D02*
X186900000Y-95638095D01*
X186852380Y-95733333D01*
X186852380Y-95971428D01*
X186900000Y-96066666D01*
X186947619Y-96114285D01*
X187042857Y-96161904D01*
X187138095Y-96161904D01*
X187280952Y-96114285D01*
X187852380Y-95542857D01*
X187852380Y-96161904D01*
G04 #@! TO.C,D23*
X81514285Y-91452380D02*
X81514285Y-90452380D01*
X81276190Y-90452380D01*
X81133333Y-90500000D01*
X81038095Y-90595238D01*
X80990476Y-90690476D01*
X80942857Y-90880952D01*
X80942857Y-91023809D01*
X80990476Y-91214285D01*
X81038095Y-91309523D01*
X81133333Y-91404761D01*
X81276190Y-91452380D01*
X81514285Y-91452380D01*
X80561904Y-90547619D02*
X80514285Y-90500000D01*
X80419047Y-90452380D01*
X80180952Y-90452380D01*
X80085714Y-90500000D01*
X80038095Y-90547619D01*
X79990476Y-90642857D01*
X79990476Y-90738095D01*
X80038095Y-90880952D01*
X80609523Y-91452380D01*
X79990476Y-91452380D01*
X79657142Y-90452380D02*
X79038095Y-90452380D01*
X79371428Y-90833333D01*
X79228571Y-90833333D01*
X79133333Y-90880952D01*
X79085714Y-90928571D01*
X79038095Y-91023809D01*
X79038095Y-91261904D01*
X79085714Y-91357142D01*
X79133333Y-91404761D01*
X79228571Y-91452380D01*
X79514285Y-91452380D01*
X79609523Y-91404761D01*
X79657142Y-91357142D01*
G04 #@! TO.C,D24*
X87114285Y-91452380D02*
X87114285Y-90452380D01*
X86876190Y-90452380D01*
X86733333Y-90500000D01*
X86638095Y-90595238D01*
X86590476Y-90690476D01*
X86542857Y-90880952D01*
X86542857Y-91023809D01*
X86590476Y-91214285D01*
X86638095Y-91309523D01*
X86733333Y-91404761D01*
X86876190Y-91452380D01*
X87114285Y-91452380D01*
X86161904Y-90547619D02*
X86114285Y-90500000D01*
X86019047Y-90452380D01*
X85780952Y-90452380D01*
X85685714Y-90500000D01*
X85638095Y-90547619D01*
X85590476Y-90642857D01*
X85590476Y-90738095D01*
X85638095Y-90880952D01*
X86209523Y-91452380D01*
X85590476Y-91452380D01*
X84733333Y-90785714D02*
X84733333Y-91452380D01*
X84971428Y-90404761D02*
X85209523Y-91119047D01*
X84590476Y-91119047D01*
G04 #@! TO.C,D25*
X92714285Y-91452380D02*
X92714285Y-90452380D01*
X92476190Y-90452380D01*
X92333333Y-90500000D01*
X92238095Y-90595238D01*
X92190476Y-90690476D01*
X92142857Y-90880952D01*
X92142857Y-91023809D01*
X92190476Y-91214285D01*
X92238095Y-91309523D01*
X92333333Y-91404761D01*
X92476190Y-91452380D01*
X92714285Y-91452380D01*
X91761904Y-90547619D02*
X91714285Y-90500000D01*
X91619047Y-90452380D01*
X91380952Y-90452380D01*
X91285714Y-90500000D01*
X91238095Y-90547619D01*
X91190476Y-90642857D01*
X91190476Y-90738095D01*
X91238095Y-90880952D01*
X91809523Y-91452380D01*
X91190476Y-91452380D01*
X90285714Y-90452380D02*
X90761904Y-90452380D01*
X90809523Y-90928571D01*
X90761904Y-90880952D01*
X90666666Y-90833333D01*
X90428571Y-90833333D01*
X90333333Y-90880952D01*
X90285714Y-90928571D01*
X90238095Y-91023809D01*
X90238095Y-91261904D01*
X90285714Y-91357142D01*
X90333333Y-91404761D01*
X90428571Y-91452380D01*
X90666666Y-91452380D01*
X90761904Y-91404761D01*
X90809523Y-91357142D01*
G04 #@! TO.C,D18*
X78752380Y-88885714D02*
X77752380Y-88885714D01*
X77752380Y-89123809D01*
X77800000Y-89266666D01*
X77895238Y-89361904D01*
X77990476Y-89409523D01*
X78180952Y-89457142D01*
X78323809Y-89457142D01*
X78514285Y-89409523D01*
X78609523Y-89361904D01*
X78704761Y-89266666D01*
X78752380Y-89123809D01*
X78752380Y-88885714D01*
X78752380Y-90409523D02*
X78752380Y-89838095D01*
X78752380Y-90123809D02*
X77752380Y-90123809D01*
X77895238Y-90028571D01*
X77990476Y-89933333D01*
X78038095Y-89838095D01*
X78180952Y-90980952D02*
X78133333Y-90885714D01*
X78085714Y-90838095D01*
X77990476Y-90790476D01*
X77942857Y-90790476D01*
X77847619Y-90838095D01*
X77800000Y-90885714D01*
X77752380Y-90980952D01*
X77752380Y-91171428D01*
X77800000Y-91266666D01*
X77847619Y-91314285D01*
X77942857Y-91361904D01*
X77990476Y-91361904D01*
X78085714Y-91314285D01*
X78133333Y-91266666D01*
X78180952Y-91171428D01*
X78180952Y-90980952D01*
X78228571Y-90885714D01*
X78276190Y-90838095D01*
X78371428Y-90790476D01*
X78561904Y-90790476D01*
X78657142Y-90838095D01*
X78704761Y-90885714D01*
X78752380Y-90980952D01*
X78752380Y-91171428D01*
X78704761Y-91266666D01*
X78657142Y-91314285D01*
X78561904Y-91361904D01*
X78371428Y-91361904D01*
X78276190Y-91314285D01*
X78228571Y-91266666D01*
X78180952Y-91171428D01*
G04 #@! TO.C,D26*
X180652380Y-93685714D02*
X179652380Y-93685714D01*
X179652380Y-93923809D01*
X179700000Y-94066666D01*
X179795238Y-94161904D01*
X179890476Y-94209523D01*
X180080952Y-94257142D01*
X180223809Y-94257142D01*
X180414285Y-94209523D01*
X180509523Y-94161904D01*
X180604761Y-94066666D01*
X180652380Y-93923809D01*
X180652380Y-93685714D01*
X179747619Y-94638095D02*
X179700000Y-94685714D01*
X179652380Y-94780952D01*
X179652380Y-95019047D01*
X179700000Y-95114285D01*
X179747619Y-95161904D01*
X179842857Y-95209523D01*
X179938095Y-95209523D01*
X180080952Y-95161904D01*
X180652380Y-94590476D01*
X180652380Y-95209523D01*
X179652380Y-96066666D02*
X179652380Y-95876190D01*
X179700000Y-95780952D01*
X179747619Y-95733333D01*
X179890476Y-95638095D01*
X180080952Y-95590476D01*
X180461904Y-95590476D01*
X180557142Y-95638095D01*
X180604761Y-95685714D01*
X180652380Y-95780952D01*
X180652380Y-95971428D01*
X180604761Y-96066666D01*
X180557142Y-96114285D01*
X180461904Y-96161904D01*
X180223809Y-96161904D01*
X180128571Y-96114285D01*
X180080952Y-96066666D01*
X180033333Y-95971428D01*
X180033333Y-95780952D01*
X180080952Y-95685714D01*
X180128571Y-95638095D01*
X180223809Y-95590476D01*
G04 #@! TO.C,D17*
X74502380Y-92485714D02*
X73502380Y-92485714D01*
X73502380Y-92723809D01*
X73550000Y-92866666D01*
X73645238Y-92961904D01*
X73740476Y-93009523D01*
X73930952Y-93057142D01*
X74073809Y-93057142D01*
X74264285Y-93009523D01*
X74359523Y-92961904D01*
X74454761Y-92866666D01*
X74502380Y-92723809D01*
X74502380Y-92485714D01*
X74502380Y-94009523D02*
X74502380Y-93438095D01*
X74502380Y-93723809D02*
X73502380Y-93723809D01*
X73645238Y-93628571D01*
X73740476Y-93533333D01*
X73788095Y-93438095D01*
X73502380Y-94342857D02*
X73502380Y-95009523D01*
X74502380Y-94580952D01*
G04 #@! TO.C,D28*
X190152380Y-93785714D02*
X189152380Y-93785714D01*
X189152380Y-94023809D01*
X189200000Y-94166666D01*
X189295238Y-94261904D01*
X189390476Y-94309523D01*
X189580952Y-94357142D01*
X189723809Y-94357142D01*
X189914285Y-94309523D01*
X190009523Y-94261904D01*
X190104761Y-94166666D01*
X190152380Y-94023809D01*
X190152380Y-93785714D01*
X189247619Y-94738095D02*
X189200000Y-94785714D01*
X189152380Y-94880952D01*
X189152380Y-95119047D01*
X189200000Y-95214285D01*
X189247619Y-95261904D01*
X189342857Y-95309523D01*
X189438095Y-95309523D01*
X189580952Y-95261904D01*
X190152380Y-94690476D01*
X190152380Y-95309523D01*
X189580952Y-95880952D02*
X189533333Y-95785714D01*
X189485714Y-95738095D01*
X189390476Y-95690476D01*
X189342857Y-95690476D01*
X189247619Y-95738095D01*
X189200000Y-95785714D01*
X189152380Y-95880952D01*
X189152380Y-96071428D01*
X189200000Y-96166666D01*
X189247619Y-96214285D01*
X189342857Y-96261904D01*
X189390476Y-96261904D01*
X189485714Y-96214285D01*
X189533333Y-96166666D01*
X189580952Y-96071428D01*
X189580952Y-95880952D01*
X189628571Y-95785714D01*
X189676190Y-95738095D01*
X189771428Y-95690476D01*
X189961904Y-95690476D01*
X190057142Y-95738095D01*
X190104761Y-95785714D01*
X190152380Y-95880952D01*
X190152380Y-96071428D01*
X190104761Y-96166666D01*
X190057142Y-96214285D01*
X189961904Y-96261904D01*
X189771428Y-96261904D01*
X189676190Y-96214285D01*
X189628571Y-96166666D01*
X189580952Y-96071428D01*
G04 #@! TO.C,D27*
X185352380Y-93685714D02*
X184352380Y-93685714D01*
X184352380Y-93923809D01*
X184400000Y-94066666D01*
X184495238Y-94161904D01*
X184590476Y-94209523D01*
X184780952Y-94257142D01*
X184923809Y-94257142D01*
X185114285Y-94209523D01*
X185209523Y-94161904D01*
X185304761Y-94066666D01*
X185352380Y-93923809D01*
X185352380Y-93685714D01*
X184447619Y-94638095D02*
X184400000Y-94685714D01*
X184352380Y-94780952D01*
X184352380Y-95019047D01*
X184400000Y-95114285D01*
X184447619Y-95161904D01*
X184542857Y-95209523D01*
X184638095Y-95209523D01*
X184780952Y-95161904D01*
X185352380Y-94590476D01*
X185352380Y-95209523D01*
X184352380Y-95542857D02*
X184352380Y-96209523D01*
X185352380Y-95780952D01*
G04 #@! TO.C,R80*
X187852380Y-107357142D02*
X187376190Y-107023809D01*
X187852380Y-106785714D02*
X186852380Y-106785714D01*
X186852380Y-107166666D01*
X186900000Y-107261904D01*
X186947619Y-107309523D01*
X187042857Y-107357142D01*
X187185714Y-107357142D01*
X187280952Y-107309523D01*
X187328571Y-107261904D01*
X187376190Y-107166666D01*
X187376190Y-106785714D01*
X187280952Y-107928571D02*
X187233333Y-107833333D01*
X187185714Y-107785714D01*
X187090476Y-107738095D01*
X187042857Y-107738095D01*
X186947619Y-107785714D01*
X186900000Y-107833333D01*
X186852380Y-107928571D01*
X186852380Y-108119047D01*
X186900000Y-108214285D01*
X186947619Y-108261904D01*
X187042857Y-108309523D01*
X187090476Y-108309523D01*
X187185714Y-108261904D01*
X187233333Y-108214285D01*
X187280952Y-108119047D01*
X187280952Y-107928571D01*
X187328571Y-107833333D01*
X187376190Y-107785714D01*
X187471428Y-107738095D01*
X187661904Y-107738095D01*
X187757142Y-107785714D01*
X187804761Y-107833333D01*
X187852380Y-107928571D01*
X187852380Y-108119047D01*
X187804761Y-108214285D01*
X187757142Y-108261904D01*
X187661904Y-108309523D01*
X187471428Y-108309523D01*
X187376190Y-108261904D01*
X187328571Y-108214285D01*
X187280952Y-108119047D01*
X186852380Y-108928571D02*
X186852380Y-109023809D01*
X186900000Y-109119047D01*
X186947619Y-109166666D01*
X187042857Y-109214285D01*
X187233333Y-109261904D01*
X187471428Y-109261904D01*
X187661904Y-109214285D01*
X187757142Y-109166666D01*
X187804761Y-109119047D01*
X187852380Y-109023809D01*
X187852380Y-108928571D01*
X187804761Y-108833333D01*
X187757142Y-108785714D01*
X187661904Y-108738095D01*
X187471428Y-108690476D01*
X187233333Y-108690476D01*
X187042857Y-108738095D01*
X186947619Y-108785714D01*
X186900000Y-108833333D01*
X186852380Y-108928571D01*
G04 #@! TO.C,R68*
X132342857Y-79752380D02*
X132676190Y-79276190D01*
X132914285Y-79752380D02*
X132914285Y-78752380D01*
X132533333Y-78752380D01*
X132438095Y-78800000D01*
X132390476Y-78847619D01*
X132342857Y-78942857D01*
X132342857Y-79085714D01*
X132390476Y-79180952D01*
X132438095Y-79228571D01*
X132533333Y-79276190D01*
X132914285Y-79276190D01*
X131485714Y-78752380D02*
X131676190Y-78752380D01*
X131771428Y-78800000D01*
X131819047Y-78847619D01*
X131914285Y-78990476D01*
X131961904Y-79180952D01*
X131961904Y-79561904D01*
X131914285Y-79657142D01*
X131866666Y-79704761D01*
X131771428Y-79752380D01*
X131580952Y-79752380D01*
X131485714Y-79704761D01*
X131438095Y-79657142D01*
X131390476Y-79561904D01*
X131390476Y-79323809D01*
X131438095Y-79228571D01*
X131485714Y-79180952D01*
X131580952Y-79133333D01*
X131771428Y-79133333D01*
X131866666Y-79180952D01*
X131914285Y-79228571D01*
X131961904Y-79323809D01*
X130819047Y-79180952D02*
X130914285Y-79133333D01*
X130961904Y-79085714D01*
X131009523Y-78990476D01*
X131009523Y-78942857D01*
X130961904Y-78847619D01*
X130914285Y-78800000D01*
X130819047Y-78752380D01*
X130628571Y-78752380D01*
X130533333Y-78800000D01*
X130485714Y-78847619D01*
X130438095Y-78942857D01*
X130438095Y-78990476D01*
X130485714Y-79085714D01*
X130533333Y-79133333D01*
X130628571Y-79180952D01*
X130819047Y-79180952D01*
X130914285Y-79228571D01*
X130961904Y-79276190D01*
X131009523Y-79371428D01*
X131009523Y-79561904D01*
X130961904Y-79657142D01*
X130914285Y-79704761D01*
X130819047Y-79752380D01*
X130628571Y-79752380D01*
X130533333Y-79704761D01*
X130485714Y-79657142D01*
X130438095Y-79561904D01*
X130438095Y-79371428D01*
X130485714Y-79276190D01*
X130533333Y-79228571D01*
X130628571Y-79180952D01*
G04 #@! TO.C,R60*
X81152380Y-101957142D02*
X80676190Y-101623809D01*
X81152380Y-101385714D02*
X80152380Y-101385714D01*
X80152380Y-101766666D01*
X80200000Y-101861904D01*
X80247619Y-101909523D01*
X80342857Y-101957142D01*
X80485714Y-101957142D01*
X80580952Y-101909523D01*
X80628571Y-101861904D01*
X80676190Y-101766666D01*
X80676190Y-101385714D01*
X80152380Y-102814285D02*
X80152380Y-102623809D01*
X80200000Y-102528571D01*
X80247619Y-102480952D01*
X80390476Y-102385714D01*
X80580952Y-102338095D01*
X80961904Y-102338095D01*
X81057142Y-102385714D01*
X81104761Y-102433333D01*
X81152380Y-102528571D01*
X81152380Y-102719047D01*
X81104761Y-102814285D01*
X81057142Y-102861904D01*
X80961904Y-102909523D01*
X80723809Y-102909523D01*
X80628571Y-102861904D01*
X80580952Y-102814285D01*
X80533333Y-102719047D01*
X80533333Y-102528571D01*
X80580952Y-102433333D01*
X80628571Y-102385714D01*
X80723809Y-102338095D01*
X80152380Y-103528571D02*
X80152380Y-103623809D01*
X80200000Y-103719047D01*
X80247619Y-103766666D01*
X80342857Y-103814285D01*
X80533333Y-103861904D01*
X80771428Y-103861904D01*
X80961904Y-103814285D01*
X81057142Y-103766666D01*
X81104761Y-103719047D01*
X81152380Y-103623809D01*
X81152380Y-103528571D01*
X81104761Y-103433333D01*
X81057142Y-103385714D01*
X80961904Y-103338095D01*
X80771428Y-103290476D01*
X80533333Y-103290476D01*
X80342857Y-103338095D01*
X80247619Y-103385714D01*
X80200000Y-103433333D01*
X80152380Y-103528571D01*
G04 #@! TO.C,R61*
X85952380Y-101957142D02*
X85476190Y-101623809D01*
X85952380Y-101385714D02*
X84952380Y-101385714D01*
X84952380Y-101766666D01*
X85000000Y-101861904D01*
X85047619Y-101909523D01*
X85142857Y-101957142D01*
X85285714Y-101957142D01*
X85380952Y-101909523D01*
X85428571Y-101861904D01*
X85476190Y-101766666D01*
X85476190Y-101385714D01*
X84952380Y-102814285D02*
X84952380Y-102623809D01*
X85000000Y-102528571D01*
X85047619Y-102480952D01*
X85190476Y-102385714D01*
X85380952Y-102338095D01*
X85761904Y-102338095D01*
X85857142Y-102385714D01*
X85904761Y-102433333D01*
X85952380Y-102528571D01*
X85952380Y-102719047D01*
X85904761Y-102814285D01*
X85857142Y-102861904D01*
X85761904Y-102909523D01*
X85523809Y-102909523D01*
X85428571Y-102861904D01*
X85380952Y-102814285D01*
X85333333Y-102719047D01*
X85333333Y-102528571D01*
X85380952Y-102433333D01*
X85428571Y-102385714D01*
X85523809Y-102338095D01*
X85952380Y-103861904D02*
X85952380Y-103290476D01*
X85952380Y-103576190D02*
X84952380Y-103576190D01*
X85095238Y-103480952D01*
X85190476Y-103385714D01*
X85238095Y-103290476D01*
G04 #@! TO.C,R62*
X180552380Y-107357142D02*
X180076190Y-107023809D01*
X180552380Y-106785714D02*
X179552380Y-106785714D01*
X179552380Y-107166666D01*
X179600000Y-107261904D01*
X179647619Y-107309523D01*
X179742857Y-107357142D01*
X179885714Y-107357142D01*
X179980952Y-107309523D01*
X180028571Y-107261904D01*
X180076190Y-107166666D01*
X180076190Y-106785714D01*
X179552380Y-108214285D02*
X179552380Y-108023809D01*
X179600000Y-107928571D01*
X179647619Y-107880952D01*
X179790476Y-107785714D01*
X179980952Y-107738095D01*
X180361904Y-107738095D01*
X180457142Y-107785714D01*
X180504761Y-107833333D01*
X180552380Y-107928571D01*
X180552380Y-108119047D01*
X180504761Y-108214285D01*
X180457142Y-108261904D01*
X180361904Y-108309523D01*
X180123809Y-108309523D01*
X180028571Y-108261904D01*
X179980952Y-108214285D01*
X179933333Y-108119047D01*
X179933333Y-107928571D01*
X179980952Y-107833333D01*
X180028571Y-107785714D01*
X180123809Y-107738095D01*
X179647619Y-108690476D02*
X179600000Y-108738095D01*
X179552380Y-108833333D01*
X179552380Y-109071428D01*
X179600000Y-109166666D01*
X179647619Y-109214285D01*
X179742857Y-109261904D01*
X179838095Y-109261904D01*
X179980952Y-109214285D01*
X180552380Y-108642857D01*
X180552380Y-109261904D01*
G04 #@! TO.C,R63*
X185352380Y-107357142D02*
X184876190Y-107023809D01*
X185352380Y-106785714D02*
X184352380Y-106785714D01*
X184352380Y-107166666D01*
X184400000Y-107261904D01*
X184447619Y-107309523D01*
X184542857Y-107357142D01*
X184685714Y-107357142D01*
X184780952Y-107309523D01*
X184828571Y-107261904D01*
X184876190Y-107166666D01*
X184876190Y-106785714D01*
X184352380Y-108214285D02*
X184352380Y-108023809D01*
X184400000Y-107928571D01*
X184447619Y-107880952D01*
X184590476Y-107785714D01*
X184780952Y-107738095D01*
X185161904Y-107738095D01*
X185257142Y-107785714D01*
X185304761Y-107833333D01*
X185352380Y-107928571D01*
X185352380Y-108119047D01*
X185304761Y-108214285D01*
X185257142Y-108261904D01*
X185161904Y-108309523D01*
X184923809Y-108309523D01*
X184828571Y-108261904D01*
X184780952Y-108214285D01*
X184733333Y-108119047D01*
X184733333Y-107928571D01*
X184780952Y-107833333D01*
X184828571Y-107785714D01*
X184923809Y-107738095D01*
X184352380Y-108642857D02*
X184352380Y-109261904D01*
X184733333Y-108928571D01*
X184733333Y-109071428D01*
X184780952Y-109166666D01*
X184828571Y-109214285D01*
X184923809Y-109261904D01*
X185161904Y-109261904D01*
X185257142Y-109214285D01*
X185304761Y-109166666D01*
X185352380Y-109071428D01*
X185352380Y-108785714D01*
X185304761Y-108690476D01*
X185257142Y-108642857D01*
G04 #@! TO.C,R67*
X132342857Y-77652380D02*
X132676190Y-77176190D01*
X132914285Y-77652380D02*
X132914285Y-76652380D01*
X132533333Y-76652380D01*
X132438095Y-76700000D01*
X132390476Y-76747619D01*
X132342857Y-76842857D01*
X132342857Y-76985714D01*
X132390476Y-77080952D01*
X132438095Y-77128571D01*
X132533333Y-77176190D01*
X132914285Y-77176190D01*
X131485714Y-76652380D02*
X131676190Y-76652380D01*
X131771428Y-76700000D01*
X131819047Y-76747619D01*
X131914285Y-76890476D01*
X131961904Y-77080952D01*
X131961904Y-77461904D01*
X131914285Y-77557142D01*
X131866666Y-77604761D01*
X131771428Y-77652380D01*
X131580952Y-77652380D01*
X131485714Y-77604761D01*
X131438095Y-77557142D01*
X131390476Y-77461904D01*
X131390476Y-77223809D01*
X131438095Y-77128571D01*
X131485714Y-77080952D01*
X131580952Y-77033333D01*
X131771428Y-77033333D01*
X131866666Y-77080952D01*
X131914285Y-77128571D01*
X131961904Y-77223809D01*
X131057142Y-76652380D02*
X130390476Y-76652380D01*
X130819047Y-77652380D01*
G04 #@! TO.C,R66*
X78752380Y-101957142D02*
X78276190Y-101623809D01*
X78752380Y-101385714D02*
X77752380Y-101385714D01*
X77752380Y-101766666D01*
X77800000Y-101861904D01*
X77847619Y-101909523D01*
X77942857Y-101957142D01*
X78085714Y-101957142D01*
X78180952Y-101909523D01*
X78228571Y-101861904D01*
X78276190Y-101766666D01*
X78276190Y-101385714D01*
X77752380Y-102814285D02*
X77752380Y-102623809D01*
X77800000Y-102528571D01*
X77847619Y-102480952D01*
X77990476Y-102385714D01*
X78180952Y-102338095D01*
X78561904Y-102338095D01*
X78657142Y-102385714D01*
X78704761Y-102433333D01*
X78752380Y-102528571D01*
X78752380Y-102719047D01*
X78704761Y-102814285D01*
X78657142Y-102861904D01*
X78561904Y-102909523D01*
X78323809Y-102909523D01*
X78228571Y-102861904D01*
X78180952Y-102814285D01*
X78133333Y-102719047D01*
X78133333Y-102528571D01*
X78180952Y-102433333D01*
X78228571Y-102385714D01*
X78323809Y-102338095D01*
X77752380Y-103766666D02*
X77752380Y-103576190D01*
X77800000Y-103480952D01*
X77847619Y-103433333D01*
X77990476Y-103338095D01*
X78180952Y-103290476D01*
X78561904Y-103290476D01*
X78657142Y-103338095D01*
X78704761Y-103385714D01*
X78752380Y-103480952D01*
X78752380Y-103671428D01*
X78704761Y-103766666D01*
X78657142Y-103814285D01*
X78561904Y-103861904D01*
X78323809Y-103861904D01*
X78228571Y-103814285D01*
X78180952Y-103766666D01*
X78133333Y-103671428D01*
X78133333Y-103480952D01*
X78180952Y-103385714D01*
X78228571Y-103338095D01*
X78323809Y-103290476D01*
G04 #@! TO.C,R64*
X190152380Y-107357142D02*
X189676190Y-107023809D01*
X190152380Y-106785714D02*
X189152380Y-106785714D01*
X189152380Y-107166666D01*
X189200000Y-107261904D01*
X189247619Y-107309523D01*
X189342857Y-107357142D01*
X189485714Y-107357142D01*
X189580952Y-107309523D01*
X189628571Y-107261904D01*
X189676190Y-107166666D01*
X189676190Y-106785714D01*
X189152380Y-108214285D02*
X189152380Y-108023809D01*
X189200000Y-107928571D01*
X189247619Y-107880952D01*
X189390476Y-107785714D01*
X189580952Y-107738095D01*
X189961904Y-107738095D01*
X190057142Y-107785714D01*
X190104761Y-107833333D01*
X190152380Y-107928571D01*
X190152380Y-108119047D01*
X190104761Y-108214285D01*
X190057142Y-108261904D01*
X189961904Y-108309523D01*
X189723809Y-108309523D01*
X189628571Y-108261904D01*
X189580952Y-108214285D01*
X189533333Y-108119047D01*
X189533333Y-107928571D01*
X189580952Y-107833333D01*
X189628571Y-107785714D01*
X189723809Y-107738095D01*
X189485714Y-109166666D02*
X190152380Y-109166666D01*
X189104761Y-108928571D02*
X189819047Y-108690476D01*
X189819047Y-109309523D01*
G04 #@! TO.C,R59*
X76352380Y-101957142D02*
X75876190Y-101623809D01*
X76352380Y-101385714D02*
X75352380Y-101385714D01*
X75352380Y-101766666D01*
X75400000Y-101861904D01*
X75447619Y-101909523D01*
X75542857Y-101957142D01*
X75685714Y-101957142D01*
X75780952Y-101909523D01*
X75828571Y-101861904D01*
X75876190Y-101766666D01*
X75876190Y-101385714D01*
X75352380Y-102861904D02*
X75352380Y-102385714D01*
X75828571Y-102338095D01*
X75780952Y-102385714D01*
X75733333Y-102480952D01*
X75733333Y-102719047D01*
X75780952Y-102814285D01*
X75828571Y-102861904D01*
X75923809Y-102909523D01*
X76161904Y-102909523D01*
X76257142Y-102861904D01*
X76304761Y-102814285D01*
X76352380Y-102719047D01*
X76352380Y-102480952D01*
X76304761Y-102385714D01*
X76257142Y-102338095D01*
X76352380Y-103385714D02*
X76352380Y-103576190D01*
X76304761Y-103671428D01*
X76257142Y-103719047D01*
X76114285Y-103814285D01*
X75923809Y-103861904D01*
X75542857Y-103861904D01*
X75447619Y-103814285D01*
X75400000Y-103766666D01*
X75352380Y-103671428D01*
X75352380Y-103480952D01*
X75400000Y-103385714D01*
X75447619Y-103338095D01*
X75542857Y-103290476D01*
X75780952Y-103290476D01*
X75876190Y-103338095D01*
X75923809Y-103385714D01*
X75971428Y-103480952D01*
X75971428Y-103671428D01*
X75923809Y-103766666D01*
X75876190Y-103814285D01*
X75780952Y-103861904D01*
G04 #@! TO.C,R71*
X88352380Y-101957142D02*
X87876190Y-101623809D01*
X88352380Y-101385714D02*
X87352380Y-101385714D01*
X87352380Y-101766666D01*
X87400000Y-101861904D01*
X87447619Y-101909523D01*
X87542857Y-101957142D01*
X87685714Y-101957142D01*
X87780952Y-101909523D01*
X87828571Y-101861904D01*
X87876190Y-101766666D01*
X87876190Y-101385714D01*
X87352380Y-102290476D02*
X87352380Y-102957142D01*
X88352380Y-102528571D01*
X88352380Y-103861904D02*
X88352380Y-103290476D01*
X88352380Y-103576190D02*
X87352380Y-103576190D01*
X87495238Y-103480952D01*
X87590476Y-103385714D01*
X87638095Y-103290476D01*
G04 #@! TO.C,R72*
X178152380Y-107357142D02*
X177676190Y-107023809D01*
X178152380Y-106785714D02*
X177152380Y-106785714D01*
X177152380Y-107166666D01*
X177200000Y-107261904D01*
X177247619Y-107309523D01*
X177342857Y-107357142D01*
X177485714Y-107357142D01*
X177580952Y-107309523D01*
X177628571Y-107261904D01*
X177676190Y-107166666D01*
X177676190Y-106785714D01*
X177152380Y-107690476D02*
X177152380Y-108357142D01*
X178152380Y-107928571D01*
X177247619Y-108690476D02*
X177200000Y-108738095D01*
X177152380Y-108833333D01*
X177152380Y-109071428D01*
X177200000Y-109166666D01*
X177247619Y-109214285D01*
X177342857Y-109261904D01*
X177438095Y-109261904D01*
X177580952Y-109214285D01*
X178152380Y-108642857D01*
X178152380Y-109261904D01*
G04 #@! TO.C,R74*
X155552380Y-105857142D02*
X155076190Y-105523809D01*
X155552380Y-105285714D02*
X154552380Y-105285714D01*
X154552380Y-105666666D01*
X154600000Y-105761904D01*
X154647619Y-105809523D01*
X154742857Y-105857142D01*
X154885714Y-105857142D01*
X154980952Y-105809523D01*
X155028571Y-105761904D01*
X155076190Y-105666666D01*
X155076190Y-105285714D01*
X154552380Y-106190476D02*
X154552380Y-106857142D01*
X155552380Y-106428571D01*
X154885714Y-107666666D02*
X155552380Y-107666666D01*
X154504761Y-107428571D02*
X155219047Y-107190476D01*
X155219047Y-107809523D01*
G04 #@! TO.C,R75*
X195642857Y-104072380D02*
X195976190Y-103596190D01*
X196214285Y-104072380D02*
X196214285Y-103072380D01*
X195833333Y-103072380D01*
X195738095Y-103120000D01*
X195690476Y-103167619D01*
X195642857Y-103262857D01*
X195642857Y-103405714D01*
X195690476Y-103500952D01*
X195738095Y-103548571D01*
X195833333Y-103596190D01*
X196214285Y-103596190D01*
X195309523Y-103072380D02*
X194642857Y-103072380D01*
X195071428Y-104072380D01*
X193785714Y-103072380D02*
X194261904Y-103072380D01*
X194309523Y-103548571D01*
X194261904Y-103500952D01*
X194166666Y-103453333D01*
X193928571Y-103453333D01*
X193833333Y-103500952D01*
X193785714Y-103548571D01*
X193738095Y-103643809D01*
X193738095Y-103881904D01*
X193785714Y-103977142D01*
X193833333Y-104024761D01*
X193928571Y-104072380D01*
X194166666Y-104072380D01*
X194261904Y-104024761D01*
X194309523Y-103977142D01*
G04 #@! TO.C,R76*
X182952380Y-107357142D02*
X182476190Y-107023809D01*
X182952380Y-106785714D02*
X181952380Y-106785714D01*
X181952380Y-107166666D01*
X182000000Y-107261904D01*
X182047619Y-107309523D01*
X182142857Y-107357142D01*
X182285714Y-107357142D01*
X182380952Y-107309523D01*
X182428571Y-107261904D01*
X182476190Y-107166666D01*
X182476190Y-106785714D01*
X181952380Y-107690476D02*
X181952380Y-108357142D01*
X182952380Y-107928571D01*
X181952380Y-109166666D02*
X181952380Y-108976190D01*
X182000000Y-108880952D01*
X182047619Y-108833333D01*
X182190476Y-108738095D01*
X182380952Y-108690476D01*
X182761904Y-108690476D01*
X182857142Y-108738095D01*
X182904761Y-108785714D01*
X182952380Y-108880952D01*
X182952380Y-109071428D01*
X182904761Y-109166666D01*
X182857142Y-109214285D01*
X182761904Y-109261904D01*
X182523809Y-109261904D01*
X182428571Y-109214285D01*
X182380952Y-109166666D01*
X182333333Y-109071428D01*
X182333333Y-108880952D01*
X182380952Y-108785714D01*
X182428571Y-108738095D01*
X182523809Y-108690476D01*
G04 #@! TO.C,R79*
X149452380Y-105957142D02*
X148976190Y-105623809D01*
X149452380Y-105385714D02*
X148452380Y-105385714D01*
X148452380Y-105766666D01*
X148500000Y-105861904D01*
X148547619Y-105909523D01*
X148642857Y-105957142D01*
X148785714Y-105957142D01*
X148880952Y-105909523D01*
X148928571Y-105861904D01*
X148976190Y-105766666D01*
X148976190Y-105385714D01*
X148452380Y-106290476D02*
X148452380Y-106957142D01*
X149452380Y-106528571D01*
X149452380Y-107385714D02*
X149452380Y-107576190D01*
X149404761Y-107671428D01*
X149357142Y-107719047D01*
X149214285Y-107814285D01*
X149023809Y-107861904D01*
X148642857Y-107861904D01*
X148547619Y-107814285D01*
X148500000Y-107766666D01*
X148452380Y-107671428D01*
X148452380Y-107480952D01*
X148500000Y-107385714D01*
X148547619Y-107338095D01*
X148642857Y-107290476D01*
X148880952Y-107290476D01*
X148976190Y-107338095D01*
X149023809Y-107385714D01*
X149071428Y-107480952D01*
X149071428Y-107671428D01*
X149023809Y-107766666D01*
X148976190Y-107814285D01*
X148880952Y-107861904D01*
G04 #@! TO.C,R70*
X83552380Y-101957142D02*
X83076190Y-101623809D01*
X83552380Y-101385714D02*
X82552380Y-101385714D01*
X82552380Y-101766666D01*
X82600000Y-101861904D01*
X82647619Y-101909523D01*
X82742857Y-101957142D01*
X82885714Y-101957142D01*
X82980952Y-101909523D01*
X83028571Y-101861904D01*
X83076190Y-101766666D01*
X83076190Y-101385714D01*
X82552380Y-102290476D02*
X82552380Y-102957142D01*
X83552380Y-102528571D01*
X82552380Y-103528571D02*
X82552380Y-103623809D01*
X82600000Y-103719047D01*
X82647619Y-103766666D01*
X82742857Y-103814285D01*
X82933333Y-103861904D01*
X83171428Y-103861904D01*
X83361904Y-103814285D01*
X83457142Y-103766666D01*
X83504761Y-103719047D01*
X83552380Y-103623809D01*
X83552380Y-103528571D01*
X83504761Y-103433333D01*
X83457142Y-103385714D01*
X83361904Y-103338095D01*
X83171428Y-103290476D01*
X82933333Y-103290476D01*
X82742857Y-103338095D01*
X82647619Y-103385714D01*
X82600000Y-103433333D01*
X82552380Y-103528571D01*
G04 #@! TO.C,TVS12*
X207752380Y-84457142D02*
X207752380Y-85028571D01*
X208752380Y-84742857D02*
X207752380Y-84742857D01*
X207752380Y-85219047D02*
X208752380Y-85552380D01*
X207752380Y-85885714D01*
X208704761Y-86171428D02*
X208752380Y-86314285D01*
X208752380Y-86552380D01*
X208704761Y-86647619D01*
X208657142Y-86695238D01*
X208561904Y-86742857D01*
X208466666Y-86742857D01*
X208371428Y-86695238D01*
X208323809Y-86647619D01*
X208276190Y-86552380D01*
X208228571Y-86361904D01*
X208180952Y-86266666D01*
X208133333Y-86219047D01*
X208038095Y-86171428D01*
X207942857Y-86171428D01*
X207847619Y-86219047D01*
X207800000Y-86266666D01*
X207752380Y-86361904D01*
X207752380Y-86600000D01*
X207800000Y-86742857D01*
X208752380Y-87695238D02*
X208752380Y-87123809D01*
X208752380Y-87409523D02*
X207752380Y-87409523D01*
X207895238Y-87314285D01*
X207990476Y-87219047D01*
X208038095Y-87123809D01*
X207847619Y-88076190D02*
X207800000Y-88123809D01*
X207752380Y-88219047D01*
X207752380Y-88457142D01*
X207800000Y-88552380D01*
X207847619Y-88600000D01*
X207942857Y-88647619D01*
X208038095Y-88647619D01*
X208180952Y-88600000D01*
X208752380Y-88028571D01*
X208752380Y-88647619D01*
X204452380Y-86400000D02*
X204690476Y-86400000D01*
X204595238Y-86161904D02*
X204690476Y-86400000D01*
X204595238Y-86638095D01*
X204880952Y-86257142D02*
X204690476Y-86400000D01*
X204880952Y-86542857D01*
G04 #@! TO.C,TVS11*
X196442857Y-90652380D02*
X195871428Y-90652380D01*
X196157142Y-91652380D02*
X196157142Y-90652380D01*
X195680952Y-90652380D02*
X195347619Y-91652380D01*
X195014285Y-90652380D01*
X194728571Y-91604761D02*
X194585714Y-91652380D01*
X194347619Y-91652380D01*
X194252380Y-91604761D01*
X194204761Y-91557142D01*
X194157142Y-91461904D01*
X194157142Y-91366666D01*
X194204761Y-91271428D01*
X194252380Y-91223809D01*
X194347619Y-91176190D01*
X194538095Y-91128571D01*
X194633333Y-91080952D01*
X194680952Y-91033333D01*
X194728571Y-90938095D01*
X194728571Y-90842857D01*
X194680952Y-90747619D01*
X194633333Y-90700000D01*
X194538095Y-90652380D01*
X194300000Y-90652380D01*
X194157142Y-90700000D01*
X193204761Y-91652380D02*
X193776190Y-91652380D01*
X193490476Y-91652380D02*
X193490476Y-90652380D01*
X193585714Y-90795238D01*
X193680952Y-90890476D01*
X193776190Y-90938095D01*
X192252380Y-91652380D02*
X192823809Y-91652380D01*
X192538095Y-91652380D02*
X192538095Y-90652380D01*
X192633333Y-90795238D01*
X192728571Y-90890476D01*
X192823809Y-90938095D01*
X194300000Y-93652380D02*
X194300000Y-93890476D01*
X194538095Y-93795238D02*
X194300000Y-93890476D01*
X194061904Y-93795238D01*
X194442857Y-94080952D02*
X194300000Y-93890476D01*
X194157142Y-94080952D01*
G04 #@! TO.C,TVS9*
X191852380Y-101033333D02*
X191852380Y-101604761D01*
X192852380Y-101319047D02*
X191852380Y-101319047D01*
X191852380Y-101795238D02*
X192852380Y-102128571D01*
X191852380Y-102461904D01*
X192804761Y-102747619D02*
X192852380Y-102890476D01*
X192852380Y-103128571D01*
X192804761Y-103223809D01*
X192757142Y-103271428D01*
X192661904Y-103319047D01*
X192566666Y-103319047D01*
X192471428Y-103271428D01*
X192423809Y-103223809D01*
X192376190Y-103128571D01*
X192328571Y-102938095D01*
X192280952Y-102842857D01*
X192233333Y-102795238D01*
X192138095Y-102747619D01*
X192042857Y-102747619D01*
X191947619Y-102795238D01*
X191900000Y-102842857D01*
X191852380Y-102938095D01*
X191852380Y-103176190D01*
X191900000Y-103319047D01*
X192852380Y-103795238D02*
X192852380Y-103985714D01*
X192804761Y-104080952D01*
X192757142Y-104128571D01*
X192614285Y-104223809D01*
X192423809Y-104271428D01*
X192042857Y-104271428D01*
X191947619Y-104223809D01*
X191900000Y-104176190D01*
X191852380Y-104080952D01*
X191852380Y-103890476D01*
X191900000Y-103795238D01*
X191947619Y-103747619D01*
X192042857Y-103700000D01*
X192280952Y-103700000D01*
X192376190Y-103747619D01*
X192423809Y-103795238D01*
X192471428Y-103890476D01*
X192471428Y-104080952D01*
X192423809Y-104176190D01*
X192376190Y-104223809D01*
X192280952Y-104271428D01*
X194400000Y-97952380D02*
X194400000Y-98190476D01*
X194638095Y-98095238D02*
X194400000Y-98190476D01*
X194161904Y-98095238D01*
X194542857Y-98380952D02*
X194400000Y-98190476D01*
X194257142Y-98380952D01*
G04 #@! TO.C,J14*
X176827380Y-87455476D02*
X177541666Y-87455476D01*
X177684523Y-87407857D01*
X177779761Y-87312619D01*
X177827380Y-87169761D01*
X177827380Y-87074523D01*
X177827380Y-88455476D02*
X177827380Y-87884047D01*
X177827380Y-88169761D02*
X176827380Y-88169761D01*
X176970238Y-88074523D01*
X177065476Y-87979285D01*
X177113095Y-87884047D01*
X177160714Y-89312619D02*
X177827380Y-89312619D01*
X176779761Y-89074523D02*
X177494047Y-88836428D01*
X177494047Y-89455476D01*
G04 #@! TO.C,Q12*
X191771428Y-113247619D02*
X191866666Y-113200000D01*
X191961904Y-113104761D01*
X192104761Y-112961904D01*
X192200000Y-112914285D01*
X192295238Y-112914285D01*
X192247619Y-113152380D02*
X192342857Y-113104761D01*
X192438095Y-113009523D01*
X192485714Y-112819047D01*
X192485714Y-112485714D01*
X192438095Y-112295238D01*
X192342857Y-112200000D01*
X192247619Y-112152380D01*
X192057142Y-112152380D01*
X191961904Y-112200000D01*
X191866666Y-112295238D01*
X191819047Y-112485714D01*
X191819047Y-112819047D01*
X191866666Y-113009523D01*
X191961904Y-113104761D01*
X192057142Y-113152380D01*
X192247619Y-113152380D01*
X190866666Y-113152380D02*
X191438095Y-113152380D01*
X191152380Y-113152380D02*
X191152380Y-112152380D01*
X191247619Y-112295238D01*
X191342857Y-112390476D01*
X191438095Y-112438095D01*
X190485714Y-112247619D02*
X190438095Y-112200000D01*
X190342857Y-112152380D01*
X190104761Y-112152380D01*
X190009523Y-112200000D01*
X189961904Y-112247619D01*
X189914285Y-112342857D01*
X189914285Y-112438095D01*
X189961904Y-112580952D01*
X190533333Y-113152380D01*
X189914285Y-113152380D01*
G04 #@! TO.C,C1*
X87766666Y-70957142D02*
X87814285Y-71004761D01*
X87957142Y-71052380D01*
X88052380Y-71052380D01*
X88195238Y-71004761D01*
X88290476Y-70909523D01*
X88338095Y-70814285D01*
X88385714Y-70623809D01*
X88385714Y-70480952D01*
X88338095Y-70290476D01*
X88290476Y-70195238D01*
X88195238Y-70100000D01*
X88052380Y-70052380D01*
X87957142Y-70052380D01*
X87814285Y-70100000D01*
X87766666Y-70147619D01*
X86814285Y-71052380D02*
X87385714Y-71052380D01*
X87100000Y-71052380D02*
X87100000Y-70052380D01*
X87195238Y-70195238D01*
X87290476Y-70290476D01*
X87385714Y-70338095D01*
G04 #@! TO.C,C2*
X90971666Y-75202142D02*
X91019285Y-75249761D01*
X91162142Y-75297380D01*
X91257380Y-75297380D01*
X91400238Y-75249761D01*
X91495476Y-75154523D01*
X91543095Y-75059285D01*
X91590714Y-74868809D01*
X91590714Y-74725952D01*
X91543095Y-74535476D01*
X91495476Y-74440238D01*
X91400238Y-74345000D01*
X91257380Y-74297380D01*
X91162142Y-74297380D01*
X91019285Y-74345000D01*
X90971666Y-74392619D01*
X90590714Y-74392619D02*
X90543095Y-74345000D01*
X90447857Y-74297380D01*
X90209761Y-74297380D01*
X90114523Y-74345000D01*
X90066904Y-74392619D01*
X90019285Y-74487857D01*
X90019285Y-74583095D01*
X90066904Y-74725952D01*
X90638333Y-75297380D01*
X90019285Y-75297380D01*
G04 #@! TO.C,C3*
X94146666Y-68852142D02*
X94194285Y-68899761D01*
X94337142Y-68947380D01*
X94432380Y-68947380D01*
X94575238Y-68899761D01*
X94670476Y-68804523D01*
X94718095Y-68709285D01*
X94765714Y-68518809D01*
X94765714Y-68375952D01*
X94718095Y-68185476D01*
X94670476Y-68090238D01*
X94575238Y-67995000D01*
X94432380Y-67947380D01*
X94337142Y-67947380D01*
X94194285Y-67995000D01*
X94146666Y-68042619D01*
X93813333Y-67947380D02*
X93194285Y-67947380D01*
X93527619Y-68328333D01*
X93384761Y-68328333D01*
X93289523Y-68375952D01*
X93241904Y-68423571D01*
X93194285Y-68518809D01*
X93194285Y-68756904D01*
X93241904Y-68852142D01*
X93289523Y-68899761D01*
X93384761Y-68947380D01*
X93670476Y-68947380D01*
X93765714Y-68899761D01*
X93813333Y-68852142D01*
G04 #@! TO.C,C4*
X94146666Y-62657142D02*
X94194285Y-62704761D01*
X94337142Y-62752380D01*
X94432380Y-62752380D01*
X94575238Y-62704761D01*
X94670476Y-62609523D01*
X94718095Y-62514285D01*
X94765714Y-62323809D01*
X94765714Y-62180952D01*
X94718095Y-61990476D01*
X94670476Y-61895238D01*
X94575238Y-61800000D01*
X94432380Y-61752380D01*
X94337142Y-61752380D01*
X94194285Y-61800000D01*
X94146666Y-61847619D01*
X93289523Y-62085714D02*
X93289523Y-62752380D01*
X93527619Y-61704761D02*
X93765714Y-62419047D01*
X93146666Y-62419047D01*
G04 #@! TO.C,C5*
X142406666Y-92432142D02*
X142454285Y-92479761D01*
X142597142Y-92527380D01*
X142692380Y-92527380D01*
X142835238Y-92479761D01*
X142930476Y-92384523D01*
X142978095Y-92289285D01*
X143025714Y-92098809D01*
X143025714Y-91955952D01*
X142978095Y-91765476D01*
X142930476Y-91670238D01*
X142835238Y-91575000D01*
X142692380Y-91527380D01*
X142597142Y-91527380D01*
X142454285Y-91575000D01*
X142406666Y-91622619D01*
X141501904Y-91527380D02*
X141978095Y-91527380D01*
X142025714Y-92003571D01*
X141978095Y-91955952D01*
X141882857Y-91908333D01*
X141644761Y-91908333D01*
X141549523Y-91955952D01*
X141501904Y-92003571D01*
X141454285Y-92098809D01*
X141454285Y-92336904D01*
X141501904Y-92432142D01*
X141549523Y-92479761D01*
X141644761Y-92527380D01*
X141882857Y-92527380D01*
X141978095Y-92479761D01*
X142025714Y-92432142D01*
G04 #@! TO.C,C6*
X142406666Y-94972142D02*
X142454285Y-95019761D01*
X142597142Y-95067380D01*
X142692380Y-95067380D01*
X142835238Y-95019761D01*
X142930476Y-94924523D01*
X142978095Y-94829285D01*
X143025714Y-94638809D01*
X143025714Y-94495952D01*
X142978095Y-94305476D01*
X142930476Y-94210238D01*
X142835238Y-94115000D01*
X142692380Y-94067380D01*
X142597142Y-94067380D01*
X142454285Y-94115000D01*
X142406666Y-94162619D01*
X141549523Y-94067380D02*
X141740000Y-94067380D01*
X141835238Y-94115000D01*
X141882857Y-94162619D01*
X141978095Y-94305476D01*
X142025714Y-94495952D01*
X142025714Y-94876904D01*
X141978095Y-94972142D01*
X141930476Y-95019761D01*
X141835238Y-95067380D01*
X141644761Y-95067380D01*
X141549523Y-95019761D01*
X141501904Y-94972142D01*
X141454285Y-94876904D01*
X141454285Y-94638809D01*
X141501904Y-94543571D01*
X141549523Y-94495952D01*
X141644761Y-94448333D01*
X141835238Y-94448333D01*
X141930476Y-94495952D01*
X141978095Y-94543571D01*
X142025714Y-94638809D01*
G04 #@! TO.C,C11*
X121927857Y-72747142D02*
X121975476Y-72794761D01*
X122118333Y-72842380D01*
X122213571Y-72842380D01*
X122356428Y-72794761D01*
X122451666Y-72699523D01*
X122499285Y-72604285D01*
X122546904Y-72413809D01*
X122546904Y-72270952D01*
X122499285Y-72080476D01*
X122451666Y-71985238D01*
X122356428Y-71890000D01*
X122213571Y-71842380D01*
X122118333Y-71842380D01*
X121975476Y-71890000D01*
X121927857Y-71937619D01*
X120975476Y-72842380D02*
X121546904Y-72842380D01*
X121261190Y-72842380D02*
X121261190Y-71842380D01*
X121356428Y-71985238D01*
X121451666Y-72080476D01*
X121546904Y-72128095D01*
X120023095Y-72842380D02*
X120594523Y-72842380D01*
X120308809Y-72842380D02*
X120308809Y-71842380D01*
X120404047Y-71985238D01*
X120499285Y-72080476D01*
X120594523Y-72128095D01*
G04 #@! TO.C,C12*
X121927857Y-68937142D02*
X121975476Y-68984761D01*
X122118333Y-69032380D01*
X122213571Y-69032380D01*
X122356428Y-68984761D01*
X122451666Y-68889523D01*
X122499285Y-68794285D01*
X122546904Y-68603809D01*
X122546904Y-68460952D01*
X122499285Y-68270476D01*
X122451666Y-68175238D01*
X122356428Y-68080000D01*
X122213571Y-68032380D01*
X122118333Y-68032380D01*
X121975476Y-68080000D01*
X121927857Y-68127619D01*
X120975476Y-69032380D02*
X121546904Y-69032380D01*
X121261190Y-69032380D02*
X121261190Y-68032380D01*
X121356428Y-68175238D01*
X121451666Y-68270476D01*
X121546904Y-68318095D01*
X120594523Y-68127619D02*
X120546904Y-68080000D01*
X120451666Y-68032380D01*
X120213571Y-68032380D01*
X120118333Y-68080000D01*
X120070714Y-68127619D01*
X120023095Y-68222857D01*
X120023095Y-68318095D01*
X120070714Y-68460952D01*
X120642142Y-69032380D01*
X120023095Y-69032380D01*
G04 #@! TO.C,C13*
X100972857Y-65212142D02*
X101020476Y-65259761D01*
X101163333Y-65307380D01*
X101258571Y-65307380D01*
X101401428Y-65259761D01*
X101496666Y-65164523D01*
X101544285Y-65069285D01*
X101591904Y-64878809D01*
X101591904Y-64735952D01*
X101544285Y-64545476D01*
X101496666Y-64450238D01*
X101401428Y-64355000D01*
X101258571Y-64307380D01*
X101163333Y-64307380D01*
X101020476Y-64355000D01*
X100972857Y-64402619D01*
X100020476Y-65307380D02*
X100591904Y-65307380D01*
X100306190Y-65307380D02*
X100306190Y-64307380D01*
X100401428Y-64450238D01*
X100496666Y-64545476D01*
X100591904Y-64593095D01*
X99687142Y-64307380D02*
X99068095Y-64307380D01*
X99401428Y-64688333D01*
X99258571Y-64688333D01*
X99163333Y-64735952D01*
X99115714Y-64783571D01*
X99068095Y-64878809D01*
X99068095Y-65116904D01*
X99115714Y-65212142D01*
X99163333Y-65259761D01*
X99258571Y-65307380D01*
X99544285Y-65307380D01*
X99639523Y-65259761D01*
X99687142Y-65212142D01*
G04 #@! TO.C,C14*
X128157142Y-90757142D02*
X128204761Y-90709523D01*
X128252380Y-90566666D01*
X128252380Y-90471428D01*
X128204761Y-90328571D01*
X128109523Y-90233333D01*
X128014285Y-90185714D01*
X127823809Y-90138095D01*
X127680952Y-90138095D01*
X127490476Y-90185714D01*
X127395238Y-90233333D01*
X127300000Y-90328571D01*
X127252380Y-90471428D01*
X127252380Y-90566666D01*
X127300000Y-90709523D01*
X127347619Y-90757142D01*
X128252380Y-91709523D02*
X128252380Y-91138095D01*
X128252380Y-91423809D02*
X127252380Y-91423809D01*
X127395238Y-91328571D01*
X127490476Y-91233333D01*
X127538095Y-91138095D01*
X127585714Y-92566666D02*
X128252380Y-92566666D01*
X127204761Y-92328571D02*
X127919047Y-92090476D01*
X127919047Y-92709523D01*
G04 #@! TO.C,C15*
X100433142Y-78351142D02*
X100480761Y-78303523D01*
X100528380Y-78160666D01*
X100528380Y-78065428D01*
X100480761Y-77922571D01*
X100385523Y-77827333D01*
X100290285Y-77779714D01*
X100099809Y-77732095D01*
X99956952Y-77732095D01*
X99766476Y-77779714D01*
X99671238Y-77827333D01*
X99576000Y-77922571D01*
X99528380Y-78065428D01*
X99528380Y-78160666D01*
X99576000Y-78303523D01*
X99623619Y-78351142D01*
X100528380Y-79303523D02*
X100528380Y-78732095D01*
X100528380Y-79017809D02*
X99528380Y-79017809D01*
X99671238Y-78922571D01*
X99766476Y-78827333D01*
X99814095Y-78732095D01*
X99528380Y-80208285D02*
X99528380Y-79732095D01*
X100004571Y-79684476D01*
X99956952Y-79732095D01*
X99909333Y-79827333D01*
X99909333Y-80065428D01*
X99956952Y-80160666D01*
X100004571Y-80208285D01*
X100099809Y-80255904D01*
X100337904Y-80255904D01*
X100433142Y-80208285D01*
X100480761Y-80160666D01*
X100528380Y-80065428D01*
X100528380Y-79827333D01*
X100480761Y-79732095D01*
X100433142Y-79684476D01*
G04 #@! TO.C,C18*
X98147142Y-78351142D02*
X98194761Y-78303523D01*
X98242380Y-78160666D01*
X98242380Y-78065428D01*
X98194761Y-77922571D01*
X98099523Y-77827333D01*
X98004285Y-77779714D01*
X97813809Y-77732095D01*
X97670952Y-77732095D01*
X97480476Y-77779714D01*
X97385238Y-77827333D01*
X97290000Y-77922571D01*
X97242380Y-78065428D01*
X97242380Y-78160666D01*
X97290000Y-78303523D01*
X97337619Y-78351142D01*
X98242380Y-79303523D02*
X98242380Y-78732095D01*
X98242380Y-79017809D02*
X97242380Y-79017809D01*
X97385238Y-78922571D01*
X97480476Y-78827333D01*
X97528095Y-78732095D01*
X97670952Y-79874952D02*
X97623333Y-79779714D01*
X97575714Y-79732095D01*
X97480476Y-79684476D01*
X97432857Y-79684476D01*
X97337619Y-79732095D01*
X97290000Y-79779714D01*
X97242380Y-79874952D01*
X97242380Y-80065428D01*
X97290000Y-80160666D01*
X97337619Y-80208285D01*
X97432857Y-80255904D01*
X97480476Y-80255904D01*
X97575714Y-80208285D01*
X97623333Y-80160666D01*
X97670952Y-80065428D01*
X97670952Y-79874952D01*
X97718571Y-79779714D01*
X97766190Y-79732095D01*
X97861428Y-79684476D01*
X98051904Y-79684476D01*
X98147142Y-79732095D01*
X98194761Y-79779714D01*
X98242380Y-79874952D01*
X98242380Y-80065428D01*
X98194761Y-80160666D01*
X98147142Y-80208285D01*
X98051904Y-80255904D01*
X97861428Y-80255904D01*
X97766190Y-80208285D01*
X97718571Y-80160666D01*
X97670952Y-80065428D01*
G04 #@! TO.C,C20*
X195217142Y-67302142D02*
X195264761Y-67254523D01*
X195312380Y-67111666D01*
X195312380Y-67016428D01*
X195264761Y-66873571D01*
X195169523Y-66778333D01*
X195074285Y-66730714D01*
X194883809Y-66683095D01*
X194740952Y-66683095D01*
X194550476Y-66730714D01*
X194455238Y-66778333D01*
X194360000Y-66873571D01*
X194312380Y-67016428D01*
X194312380Y-67111666D01*
X194360000Y-67254523D01*
X194407619Y-67302142D01*
X194407619Y-67683095D02*
X194360000Y-67730714D01*
X194312380Y-67825952D01*
X194312380Y-68064047D01*
X194360000Y-68159285D01*
X194407619Y-68206904D01*
X194502857Y-68254523D01*
X194598095Y-68254523D01*
X194740952Y-68206904D01*
X195312380Y-67635476D01*
X195312380Y-68254523D01*
X194312380Y-68873571D02*
X194312380Y-68968809D01*
X194360000Y-69064047D01*
X194407619Y-69111666D01*
X194502857Y-69159285D01*
X194693333Y-69206904D01*
X194931428Y-69206904D01*
X195121904Y-69159285D01*
X195217142Y-69111666D01*
X195264761Y-69064047D01*
X195312380Y-68968809D01*
X195312380Y-68873571D01*
X195264761Y-68778333D01*
X195217142Y-68730714D01*
X195121904Y-68683095D01*
X194931428Y-68635476D01*
X194693333Y-68635476D01*
X194502857Y-68683095D01*
X194407619Y-68730714D01*
X194360000Y-68778333D01*
X194312380Y-68873571D01*
G04 #@! TO.C,C22*
X179712857Y-67667142D02*
X179760476Y-67714761D01*
X179903333Y-67762380D01*
X179998571Y-67762380D01*
X180141428Y-67714761D01*
X180236666Y-67619523D01*
X180284285Y-67524285D01*
X180331904Y-67333809D01*
X180331904Y-67190952D01*
X180284285Y-67000476D01*
X180236666Y-66905238D01*
X180141428Y-66810000D01*
X179998571Y-66762380D01*
X179903333Y-66762380D01*
X179760476Y-66810000D01*
X179712857Y-66857619D01*
X179331904Y-66857619D02*
X179284285Y-66810000D01*
X179189047Y-66762380D01*
X178950952Y-66762380D01*
X178855714Y-66810000D01*
X178808095Y-66857619D01*
X178760476Y-66952857D01*
X178760476Y-67048095D01*
X178808095Y-67190952D01*
X179379523Y-67762380D01*
X178760476Y-67762380D01*
X178379523Y-66857619D02*
X178331904Y-66810000D01*
X178236666Y-66762380D01*
X177998571Y-66762380D01*
X177903333Y-66810000D01*
X177855714Y-66857619D01*
X177808095Y-66952857D01*
X177808095Y-67048095D01*
X177855714Y-67190952D01*
X178427142Y-67762380D01*
X177808095Y-67762380D01*
G04 #@! TO.C,J26*
X192809523Y-80952380D02*
X192809523Y-81666666D01*
X192857142Y-81809523D01*
X192952380Y-81904761D01*
X193095238Y-81952380D01*
X193190476Y-81952380D01*
X192380952Y-81047619D02*
X192333333Y-81000000D01*
X192238095Y-80952380D01*
X192000000Y-80952380D01*
X191904761Y-81000000D01*
X191857142Y-81047619D01*
X191809523Y-81142857D01*
X191809523Y-81238095D01*
X191857142Y-81380952D01*
X192428571Y-81952380D01*
X191809523Y-81952380D01*
X190952380Y-80952380D02*
X191142857Y-80952380D01*
X191238095Y-81000000D01*
X191285714Y-81047619D01*
X191380952Y-81190476D01*
X191428571Y-81380952D01*
X191428571Y-81761904D01*
X191380952Y-81857142D01*
X191333333Y-81904761D01*
X191238095Y-81952380D01*
X191047619Y-81952380D01*
X190952380Y-81904761D01*
X190904761Y-81857142D01*
X190857142Y-81761904D01*
X190857142Y-81523809D01*
X190904761Y-81428571D01*
X190952380Y-81380952D01*
X191047619Y-81333333D01*
X191238095Y-81333333D01*
X191333333Y-81380952D01*
X191380952Y-81428571D01*
X191428571Y-81523809D01*
G04 #@! TO.C,J22*
X144442380Y-87455476D02*
X145156666Y-87455476D01*
X145299523Y-87407857D01*
X145394761Y-87312619D01*
X145442380Y-87169761D01*
X145442380Y-87074523D01*
X144537619Y-87884047D02*
X144490000Y-87931666D01*
X144442380Y-88026904D01*
X144442380Y-88265000D01*
X144490000Y-88360238D01*
X144537619Y-88407857D01*
X144632857Y-88455476D01*
X144728095Y-88455476D01*
X144870952Y-88407857D01*
X145442380Y-87836428D01*
X145442380Y-88455476D01*
X144537619Y-88836428D02*
X144490000Y-88884047D01*
X144442380Y-88979285D01*
X144442380Y-89217380D01*
X144490000Y-89312619D01*
X144537619Y-89360238D01*
X144632857Y-89407857D01*
X144728095Y-89407857D01*
X144870952Y-89360238D01*
X145442380Y-88788809D01*
X145442380Y-89407857D01*
G04 #@! TO.C,J20*
X79672380Y-88090476D02*
X80386666Y-88090476D01*
X80529523Y-88042857D01*
X80624761Y-87947619D01*
X80672380Y-87804761D01*
X80672380Y-87709523D01*
X79767619Y-88519047D02*
X79720000Y-88566666D01*
X79672380Y-88661904D01*
X79672380Y-88900000D01*
X79720000Y-88995238D01*
X79767619Y-89042857D01*
X79862857Y-89090476D01*
X79958095Y-89090476D01*
X80100952Y-89042857D01*
X80672380Y-88471428D01*
X80672380Y-89090476D01*
X79672380Y-89709523D02*
X79672380Y-89804761D01*
X79720000Y-89900000D01*
X79767619Y-89947619D01*
X79862857Y-89995238D01*
X80053333Y-90042857D01*
X80291428Y-90042857D01*
X80481904Y-89995238D01*
X80577142Y-89947619D01*
X80624761Y-89900000D01*
X80672380Y-89804761D01*
X80672380Y-89709523D01*
X80624761Y-89614285D01*
X80577142Y-89566666D01*
X80481904Y-89519047D01*
X80291428Y-89471428D01*
X80053333Y-89471428D01*
X79862857Y-89519047D01*
X79767619Y-89566666D01*
X79720000Y-89614285D01*
X79672380Y-89709523D01*
G04 #@! TO.C,J21*
X113327380Y-93805476D02*
X114041666Y-93805476D01*
X114184523Y-93757857D01*
X114279761Y-93662619D01*
X114327380Y-93519761D01*
X114327380Y-93424523D01*
X113422619Y-94234047D02*
X113375000Y-94281666D01*
X113327380Y-94376904D01*
X113327380Y-94615000D01*
X113375000Y-94710238D01*
X113422619Y-94757857D01*
X113517857Y-94805476D01*
X113613095Y-94805476D01*
X113755952Y-94757857D01*
X114327380Y-94186428D01*
X114327380Y-94805476D01*
X114327380Y-95757857D02*
X114327380Y-95186428D01*
X114327380Y-95472142D02*
X113327380Y-95472142D01*
X113470238Y-95376904D01*
X113565476Y-95281666D01*
X113613095Y-95186428D01*
G04 #@! TO.C,Z5*
X179152380Y-114590476D02*
X179152380Y-115257142D01*
X180152380Y-114590476D01*
X180152380Y-115257142D01*
X179152380Y-116114285D02*
X179152380Y-115638095D01*
X179628571Y-115590476D01*
X179580952Y-115638095D01*
X179533333Y-115733333D01*
X179533333Y-115971428D01*
X179580952Y-116066666D01*
X179628571Y-116114285D01*
X179723809Y-116161904D01*
X179961904Y-116161904D01*
X180057142Y-116114285D01*
X180104761Y-116066666D01*
X180152380Y-115971428D01*
X180152380Y-115733333D01*
X180104761Y-115638095D01*
X180057142Y-115590476D01*
G04 #@! TO.C,D15*
X95614285Y-91452380D02*
X95614285Y-90452380D01*
X95376190Y-90452380D01*
X95233333Y-90500000D01*
X95138095Y-90595238D01*
X95090476Y-90690476D01*
X95042857Y-90880952D01*
X95042857Y-91023809D01*
X95090476Y-91214285D01*
X95138095Y-91309523D01*
X95233333Y-91404761D01*
X95376190Y-91452380D01*
X95614285Y-91452380D01*
X94090476Y-91452380D02*
X94661904Y-91452380D01*
X94376190Y-91452380D02*
X94376190Y-90452380D01*
X94471428Y-90595238D01*
X94566666Y-90690476D01*
X94661904Y-90738095D01*
X93185714Y-90452380D02*
X93661904Y-90452380D01*
X93709523Y-90928571D01*
X93661904Y-90880952D01*
X93566666Y-90833333D01*
X93328571Y-90833333D01*
X93233333Y-90880952D01*
X93185714Y-90928571D01*
X93138095Y-91023809D01*
X93138095Y-91261904D01*
X93185714Y-91357142D01*
X93233333Y-91404761D01*
X93328571Y-91452380D01*
X93566666Y-91452380D01*
X93661904Y-91404761D01*
X93709523Y-91357142D01*
G04 #@! TO.C,Z7*
X193152380Y-111490476D02*
X193152380Y-112157142D01*
X194152380Y-111490476D01*
X194152380Y-112157142D01*
X193152380Y-112442857D02*
X193152380Y-113109523D01*
X194152380Y-112680952D01*
G04 #@! TO.C,Z6*
X104862380Y-106505476D02*
X104862380Y-107172142D01*
X105862380Y-106505476D01*
X105862380Y-107172142D01*
X104862380Y-107981666D02*
X104862380Y-107791190D01*
X104910000Y-107695952D01*
X104957619Y-107648333D01*
X105100476Y-107553095D01*
X105290952Y-107505476D01*
X105671904Y-107505476D01*
X105767142Y-107553095D01*
X105814761Y-107600714D01*
X105862380Y-107695952D01*
X105862380Y-107886428D01*
X105814761Y-107981666D01*
X105767142Y-108029285D01*
X105671904Y-108076904D01*
X105433809Y-108076904D01*
X105338571Y-108029285D01*
X105290952Y-107981666D01*
X105243333Y-107886428D01*
X105243333Y-107695952D01*
X105290952Y-107600714D01*
X105338571Y-107553095D01*
X105433809Y-107505476D01*
G04 #@! TO.C,Z4*
X88987380Y-106505476D02*
X88987380Y-107172142D01*
X89987380Y-106505476D01*
X89987380Y-107172142D01*
X89320714Y-107981666D02*
X89987380Y-107981666D01*
X88939761Y-107743571D02*
X89654047Y-107505476D01*
X89654047Y-108124523D01*
G04 #@! TO.C,Z3*
X125817380Y-110950476D02*
X125817380Y-111617142D01*
X126817380Y-110950476D01*
X126817380Y-111617142D01*
X125817380Y-111902857D02*
X125817380Y-112521904D01*
X126198333Y-112188571D01*
X126198333Y-112331428D01*
X126245952Y-112426666D01*
X126293571Y-112474285D01*
X126388809Y-112521904D01*
X126626904Y-112521904D01*
X126722142Y-112474285D01*
X126769761Y-112426666D01*
X126817380Y-112331428D01*
X126817380Y-112045714D01*
X126769761Y-111950476D01*
X126722142Y-111902857D01*
G04 #@! TO.C,Z2*
X163282380Y-106505476D02*
X163282380Y-107172142D01*
X164282380Y-106505476D01*
X164282380Y-107172142D01*
X163377619Y-107505476D02*
X163330000Y-107553095D01*
X163282380Y-107648333D01*
X163282380Y-107886428D01*
X163330000Y-107981666D01*
X163377619Y-108029285D01*
X163472857Y-108076904D01*
X163568095Y-108076904D01*
X163710952Y-108029285D01*
X164282380Y-107457857D01*
X164282380Y-108076904D01*
G04 #@! TO.C,Z1*
X72858380Y-116590476D02*
X72858380Y-117257142D01*
X73858380Y-116590476D01*
X73858380Y-117257142D01*
X73858380Y-118161904D02*
X73858380Y-117590476D01*
X73858380Y-117876190D02*
X72858380Y-117876190D01*
X73001238Y-117780952D01*
X73096476Y-117685714D01*
X73144095Y-117590476D01*
G04 #@! TO.C,Z8*
X145752380Y-110790476D02*
X145752380Y-111457142D01*
X146752380Y-110790476D01*
X146752380Y-111457142D01*
X146180952Y-111980952D02*
X146133333Y-111885714D01*
X146085714Y-111838095D01*
X145990476Y-111790476D01*
X145942857Y-111790476D01*
X145847619Y-111838095D01*
X145800000Y-111885714D01*
X145752380Y-111980952D01*
X145752380Y-112171428D01*
X145800000Y-112266666D01*
X145847619Y-112314285D01*
X145942857Y-112361904D01*
X145990476Y-112361904D01*
X146085714Y-112314285D01*
X146133333Y-112266666D01*
X146180952Y-112171428D01*
X146180952Y-111980952D01*
X146228571Y-111885714D01*
X146276190Y-111838095D01*
X146371428Y-111790476D01*
X146561904Y-111790476D01*
X146657142Y-111838095D01*
X146704761Y-111885714D01*
X146752380Y-111980952D01*
X146752380Y-112171428D01*
X146704761Y-112266666D01*
X146657142Y-112314285D01*
X146561904Y-112361904D01*
X146371428Y-112361904D01*
X146276190Y-112314285D01*
X146228571Y-112266666D01*
X146180952Y-112171428D01*
G04 #@! TO.C,D13*
X89914285Y-91452380D02*
X89914285Y-90452380D01*
X89676190Y-90452380D01*
X89533333Y-90500000D01*
X89438095Y-90595238D01*
X89390476Y-90690476D01*
X89342857Y-90880952D01*
X89342857Y-91023809D01*
X89390476Y-91214285D01*
X89438095Y-91309523D01*
X89533333Y-91404761D01*
X89676190Y-91452380D01*
X89914285Y-91452380D01*
X88390476Y-91452380D02*
X88961904Y-91452380D01*
X88676190Y-91452380D02*
X88676190Y-90452380D01*
X88771428Y-90595238D01*
X88866666Y-90690476D01*
X88961904Y-90738095D01*
X88057142Y-90452380D02*
X87438095Y-90452380D01*
X87771428Y-90833333D01*
X87628571Y-90833333D01*
X87533333Y-90880952D01*
X87485714Y-90928571D01*
X87438095Y-91023809D01*
X87438095Y-91261904D01*
X87485714Y-91357142D01*
X87533333Y-91404761D01*
X87628571Y-91452380D01*
X87914285Y-91452380D01*
X88009523Y-91404761D01*
X88057142Y-91357142D01*
G04 #@! TO.C,Q11*
X98337619Y-108013571D02*
X98290000Y-107918333D01*
X98194761Y-107823095D01*
X98051904Y-107680238D01*
X98004285Y-107585000D01*
X98004285Y-107489761D01*
X98242380Y-107537380D02*
X98194761Y-107442142D01*
X98099523Y-107346904D01*
X97909047Y-107299285D01*
X97575714Y-107299285D01*
X97385238Y-107346904D01*
X97290000Y-107442142D01*
X97242380Y-107537380D01*
X97242380Y-107727857D01*
X97290000Y-107823095D01*
X97385238Y-107918333D01*
X97575714Y-107965952D01*
X97909047Y-107965952D01*
X98099523Y-107918333D01*
X98194761Y-107823095D01*
X98242380Y-107727857D01*
X98242380Y-107537380D01*
X98242380Y-108918333D02*
X98242380Y-108346904D01*
X98242380Y-108632619D02*
X97242380Y-108632619D01*
X97385238Y-108537380D01*
X97480476Y-108442142D01*
X97528095Y-108346904D01*
X98242380Y-109870714D02*
X98242380Y-109299285D01*
X98242380Y-109585000D02*
X97242380Y-109585000D01*
X97385238Y-109489761D01*
X97480476Y-109394523D01*
X97528095Y-109299285D01*
G04 #@! TO.C,Q18*
X159347619Y-111928571D02*
X159300000Y-111833333D01*
X159204761Y-111738095D01*
X159061904Y-111595238D01*
X159014285Y-111500000D01*
X159014285Y-111404761D01*
X159252380Y-111452380D02*
X159204761Y-111357142D01*
X159109523Y-111261904D01*
X158919047Y-111214285D01*
X158585714Y-111214285D01*
X158395238Y-111261904D01*
X158300000Y-111357142D01*
X158252380Y-111452380D01*
X158252380Y-111642857D01*
X158300000Y-111738095D01*
X158395238Y-111833333D01*
X158585714Y-111880952D01*
X158919047Y-111880952D01*
X159109523Y-111833333D01*
X159204761Y-111738095D01*
X159252380Y-111642857D01*
X159252380Y-111452380D01*
X159252380Y-112833333D02*
X159252380Y-112261904D01*
X159252380Y-112547619D02*
X158252380Y-112547619D01*
X158395238Y-112452380D01*
X158490476Y-112357142D01*
X158538095Y-112261904D01*
X158680952Y-113404761D02*
X158633333Y-113309523D01*
X158585714Y-113261904D01*
X158490476Y-113214285D01*
X158442857Y-113214285D01*
X158347619Y-113261904D01*
X158300000Y-113309523D01*
X158252380Y-113404761D01*
X158252380Y-113595238D01*
X158300000Y-113690476D01*
X158347619Y-113738095D01*
X158442857Y-113785714D01*
X158490476Y-113785714D01*
X158585714Y-113738095D01*
X158633333Y-113690476D01*
X158680952Y-113595238D01*
X158680952Y-113404761D01*
X158728571Y-113309523D01*
X158776190Y-113261904D01*
X158871428Y-113214285D01*
X159061904Y-113214285D01*
X159157142Y-113261904D01*
X159204761Y-113309523D01*
X159252380Y-113404761D01*
X159252380Y-113595238D01*
X159204761Y-113690476D01*
X159157142Y-113738095D01*
X159061904Y-113785714D01*
X158871428Y-113785714D01*
X158776190Y-113738095D01*
X158728571Y-113690476D01*
X158680952Y-113595238D01*
G04 #@! TO.C,Q15*
X114547619Y-102368571D02*
X114500000Y-102273333D01*
X114404761Y-102178095D01*
X114261904Y-102035238D01*
X114214285Y-101940000D01*
X114214285Y-101844761D01*
X114452380Y-101892380D02*
X114404761Y-101797142D01*
X114309523Y-101701904D01*
X114119047Y-101654285D01*
X113785714Y-101654285D01*
X113595238Y-101701904D01*
X113500000Y-101797142D01*
X113452380Y-101892380D01*
X113452380Y-102082857D01*
X113500000Y-102178095D01*
X113595238Y-102273333D01*
X113785714Y-102320952D01*
X114119047Y-102320952D01*
X114309523Y-102273333D01*
X114404761Y-102178095D01*
X114452380Y-102082857D01*
X114452380Y-101892380D01*
X114452380Y-103273333D02*
X114452380Y-102701904D01*
X114452380Y-102987619D02*
X113452380Y-102987619D01*
X113595238Y-102892380D01*
X113690476Y-102797142D01*
X113738095Y-102701904D01*
X113452380Y-104178095D02*
X113452380Y-103701904D01*
X113928571Y-103654285D01*
X113880952Y-103701904D01*
X113833333Y-103797142D01*
X113833333Y-104035238D01*
X113880952Y-104130476D01*
X113928571Y-104178095D01*
X114023809Y-104225714D01*
X114261904Y-104225714D01*
X114357142Y-104178095D01*
X114404761Y-104130476D01*
X114452380Y-104035238D01*
X114452380Y-103797142D01*
X114404761Y-103701904D01*
X114357142Y-103654285D01*
G04 #@! TO.C,Q8*
X103600238Y-75437619D02*
X103695476Y-75390000D01*
X103790714Y-75294761D01*
X103933571Y-75151904D01*
X104028809Y-75104285D01*
X104124047Y-75104285D01*
X104076428Y-75342380D02*
X104171666Y-75294761D01*
X104266904Y-75199523D01*
X104314523Y-75009047D01*
X104314523Y-74675714D01*
X104266904Y-74485238D01*
X104171666Y-74390000D01*
X104076428Y-74342380D01*
X103885952Y-74342380D01*
X103790714Y-74390000D01*
X103695476Y-74485238D01*
X103647857Y-74675714D01*
X103647857Y-75009047D01*
X103695476Y-75199523D01*
X103790714Y-75294761D01*
X103885952Y-75342380D01*
X104076428Y-75342380D01*
X103076428Y-74770952D02*
X103171666Y-74723333D01*
X103219285Y-74675714D01*
X103266904Y-74580476D01*
X103266904Y-74532857D01*
X103219285Y-74437619D01*
X103171666Y-74390000D01*
X103076428Y-74342380D01*
X102885952Y-74342380D01*
X102790714Y-74390000D01*
X102743095Y-74437619D01*
X102695476Y-74532857D01*
X102695476Y-74580476D01*
X102743095Y-74675714D01*
X102790714Y-74723333D01*
X102885952Y-74770952D01*
X103076428Y-74770952D01*
X103171666Y-74818571D01*
X103219285Y-74866190D01*
X103266904Y-74961428D01*
X103266904Y-75151904D01*
X103219285Y-75247142D01*
X103171666Y-75294761D01*
X103076428Y-75342380D01*
X102885952Y-75342380D01*
X102790714Y-75294761D01*
X102743095Y-75247142D01*
X102695476Y-75151904D01*
X102695476Y-74961428D01*
X102743095Y-74866190D01*
X102790714Y-74818571D01*
X102885952Y-74770952D01*
G04 #@! TO.C,Q6*
X172632619Y-108489761D02*
X172585000Y-108394523D01*
X172489761Y-108299285D01*
X172346904Y-108156428D01*
X172299285Y-108061190D01*
X172299285Y-107965952D01*
X172537380Y-108013571D02*
X172489761Y-107918333D01*
X172394523Y-107823095D01*
X172204047Y-107775476D01*
X171870714Y-107775476D01*
X171680238Y-107823095D01*
X171585000Y-107918333D01*
X171537380Y-108013571D01*
X171537380Y-108204047D01*
X171585000Y-108299285D01*
X171680238Y-108394523D01*
X171870714Y-108442142D01*
X172204047Y-108442142D01*
X172394523Y-108394523D01*
X172489761Y-108299285D01*
X172537380Y-108204047D01*
X172537380Y-108013571D01*
X171537380Y-109299285D02*
X171537380Y-109108809D01*
X171585000Y-109013571D01*
X171632619Y-108965952D01*
X171775476Y-108870714D01*
X171965952Y-108823095D01*
X172346904Y-108823095D01*
X172442142Y-108870714D01*
X172489761Y-108918333D01*
X172537380Y-109013571D01*
X172537380Y-109204047D01*
X172489761Y-109299285D01*
X172442142Y-109346904D01*
X172346904Y-109394523D01*
X172108809Y-109394523D01*
X172013571Y-109346904D01*
X171965952Y-109299285D01*
X171918333Y-109204047D01*
X171918333Y-109013571D01*
X171965952Y-108918333D01*
X172013571Y-108870714D01*
X172108809Y-108823095D01*
G04 #@! TO.C,Q16*
X206947619Y-111928571D02*
X206900000Y-111833333D01*
X206804761Y-111738095D01*
X206661904Y-111595238D01*
X206614285Y-111500000D01*
X206614285Y-111404761D01*
X206852380Y-111452380D02*
X206804761Y-111357142D01*
X206709523Y-111261904D01*
X206519047Y-111214285D01*
X206185714Y-111214285D01*
X205995238Y-111261904D01*
X205900000Y-111357142D01*
X205852380Y-111452380D01*
X205852380Y-111642857D01*
X205900000Y-111738095D01*
X205995238Y-111833333D01*
X206185714Y-111880952D01*
X206519047Y-111880952D01*
X206709523Y-111833333D01*
X206804761Y-111738095D01*
X206852380Y-111642857D01*
X206852380Y-111452380D01*
X206852380Y-112833333D02*
X206852380Y-112261904D01*
X206852380Y-112547619D02*
X205852380Y-112547619D01*
X205995238Y-112452380D01*
X206090476Y-112357142D01*
X206138095Y-112261904D01*
X205852380Y-113690476D02*
X205852380Y-113500000D01*
X205900000Y-113404761D01*
X205947619Y-113357142D01*
X206090476Y-113261904D01*
X206280952Y-113214285D01*
X206661904Y-113214285D01*
X206757142Y-113261904D01*
X206804761Y-113309523D01*
X206852380Y-113404761D01*
X206852380Y-113595238D01*
X206804761Y-113690476D01*
X206757142Y-113738095D01*
X206661904Y-113785714D01*
X206423809Y-113785714D01*
X206328571Y-113738095D01*
X206280952Y-113690476D01*
X206233333Y-113595238D01*
X206233333Y-113404761D01*
X206280952Y-113309523D01*
X206328571Y-113261904D01*
X206423809Y-113214285D01*
G04 #@! TO.C,Q5*
X82462619Y-108489761D02*
X82415000Y-108394523D01*
X82319761Y-108299285D01*
X82176904Y-108156428D01*
X82129285Y-108061190D01*
X82129285Y-107965952D01*
X82367380Y-108013571D02*
X82319761Y-107918333D01*
X82224523Y-107823095D01*
X82034047Y-107775476D01*
X81700714Y-107775476D01*
X81510238Y-107823095D01*
X81415000Y-107918333D01*
X81367380Y-108013571D01*
X81367380Y-108204047D01*
X81415000Y-108299285D01*
X81510238Y-108394523D01*
X81700714Y-108442142D01*
X82034047Y-108442142D01*
X82224523Y-108394523D01*
X82319761Y-108299285D01*
X82367380Y-108204047D01*
X82367380Y-108013571D01*
X81367380Y-109346904D02*
X81367380Y-108870714D01*
X81843571Y-108823095D01*
X81795952Y-108870714D01*
X81748333Y-108965952D01*
X81748333Y-109204047D01*
X81795952Y-109299285D01*
X81843571Y-109346904D01*
X81938809Y-109394523D01*
X82176904Y-109394523D01*
X82272142Y-109346904D01*
X82319761Y-109299285D01*
X82367380Y-109204047D01*
X82367380Y-108965952D01*
X82319761Y-108870714D01*
X82272142Y-108823095D01*
G04 #@! TO.C,R19*
X84462857Y-70852380D02*
X84796190Y-70376190D01*
X85034285Y-70852380D02*
X85034285Y-69852380D01*
X84653333Y-69852380D01*
X84558095Y-69900000D01*
X84510476Y-69947619D01*
X84462857Y-70042857D01*
X84462857Y-70185714D01*
X84510476Y-70280952D01*
X84558095Y-70328571D01*
X84653333Y-70376190D01*
X85034285Y-70376190D01*
X83510476Y-70852380D02*
X84081904Y-70852380D01*
X83796190Y-70852380D02*
X83796190Y-69852380D01*
X83891428Y-69995238D01*
X83986666Y-70090476D01*
X84081904Y-70138095D01*
X83034285Y-70852380D02*
X82843809Y-70852380D01*
X82748571Y-70804761D01*
X82700952Y-70757142D01*
X82605714Y-70614285D01*
X82558095Y-70423809D01*
X82558095Y-70042857D01*
X82605714Y-69947619D01*
X82653333Y-69900000D01*
X82748571Y-69852380D01*
X82939047Y-69852380D01*
X83034285Y-69900000D01*
X83081904Y-69947619D01*
X83129523Y-70042857D01*
X83129523Y-70280952D01*
X83081904Y-70376190D01*
X83034285Y-70423809D01*
X82939047Y-70471428D01*
X82748571Y-70471428D01*
X82653333Y-70423809D01*
X82605714Y-70376190D01*
X82558095Y-70280952D01*
G04 #@! TO.C,R16*
X97797857Y-75297380D02*
X98131190Y-74821190D01*
X98369285Y-75297380D02*
X98369285Y-74297380D01*
X97988333Y-74297380D01*
X97893095Y-74345000D01*
X97845476Y-74392619D01*
X97797857Y-74487857D01*
X97797857Y-74630714D01*
X97845476Y-74725952D01*
X97893095Y-74773571D01*
X97988333Y-74821190D01*
X98369285Y-74821190D01*
X96845476Y-75297380D02*
X97416904Y-75297380D01*
X97131190Y-75297380D02*
X97131190Y-74297380D01*
X97226428Y-74440238D01*
X97321666Y-74535476D01*
X97416904Y-74583095D01*
X95988333Y-74297380D02*
X96178809Y-74297380D01*
X96274047Y-74345000D01*
X96321666Y-74392619D01*
X96416904Y-74535476D01*
X96464523Y-74725952D01*
X96464523Y-75106904D01*
X96416904Y-75202142D01*
X96369285Y-75249761D01*
X96274047Y-75297380D01*
X96083571Y-75297380D01*
X95988333Y-75249761D01*
X95940714Y-75202142D01*
X95893095Y-75106904D01*
X95893095Y-74868809D01*
X95940714Y-74773571D01*
X95988333Y-74725952D01*
X96083571Y-74678333D01*
X96274047Y-74678333D01*
X96369285Y-74725952D01*
X96416904Y-74773571D01*
X96464523Y-74868809D01*
G04 #@! TO.C,R15*
X182752380Y-115157142D02*
X182276190Y-114823809D01*
X182752380Y-114585714D02*
X181752380Y-114585714D01*
X181752380Y-114966666D01*
X181800000Y-115061904D01*
X181847619Y-115109523D01*
X181942857Y-115157142D01*
X182085714Y-115157142D01*
X182180952Y-115109523D01*
X182228571Y-115061904D01*
X182276190Y-114966666D01*
X182276190Y-114585714D01*
X182752380Y-116109523D02*
X182752380Y-115538095D01*
X182752380Y-115823809D02*
X181752380Y-115823809D01*
X181895238Y-115728571D01*
X181990476Y-115633333D01*
X182038095Y-115538095D01*
X181752380Y-117014285D02*
X181752380Y-116538095D01*
X182228571Y-116490476D01*
X182180952Y-116538095D01*
X182133333Y-116633333D01*
X182133333Y-116871428D01*
X182180952Y-116966666D01*
X182228571Y-117014285D01*
X182323809Y-117061904D01*
X182561904Y-117061904D01*
X182657142Y-117014285D01*
X182704761Y-116966666D01*
X182752380Y-116871428D01*
X182752380Y-116633333D01*
X182704761Y-116538095D01*
X182657142Y-116490476D01*
G04 #@! TO.C,R1*
X76652380Y-103148333D02*
X76176190Y-102815000D01*
X76652380Y-102576904D02*
X75652380Y-102576904D01*
X75652380Y-102957857D01*
X75700000Y-103053095D01*
X75747619Y-103100714D01*
X75842857Y-103148333D01*
X75985714Y-103148333D01*
X76080952Y-103100714D01*
X76128571Y-103053095D01*
X76176190Y-102957857D01*
X76176190Y-102576904D01*
X76652380Y-104100714D02*
X76652380Y-103529285D01*
X76652380Y-103815000D02*
X75652380Y-103815000D01*
X75795238Y-103719761D01*
X75890476Y-103624523D01*
X75938095Y-103529285D01*
G04 #@! TO.C,R13*
X84462857Y-64672380D02*
X84796190Y-64196190D01*
X85034285Y-64672380D02*
X85034285Y-63672380D01*
X84653333Y-63672380D01*
X84558095Y-63720000D01*
X84510476Y-63767619D01*
X84462857Y-63862857D01*
X84462857Y-64005714D01*
X84510476Y-64100952D01*
X84558095Y-64148571D01*
X84653333Y-64196190D01*
X85034285Y-64196190D01*
X83510476Y-64672380D02*
X84081904Y-64672380D01*
X83796190Y-64672380D02*
X83796190Y-63672380D01*
X83891428Y-63815238D01*
X83986666Y-63910476D01*
X84081904Y-63958095D01*
X83177142Y-63672380D02*
X82558095Y-63672380D01*
X82891428Y-64053333D01*
X82748571Y-64053333D01*
X82653333Y-64100952D01*
X82605714Y-64148571D01*
X82558095Y-64243809D01*
X82558095Y-64481904D01*
X82605714Y-64577142D01*
X82653333Y-64624761D01*
X82748571Y-64672380D01*
X83034285Y-64672380D01*
X83129523Y-64624761D01*
X83177142Y-64577142D01*
G04 #@! TO.C,R12*
X134152380Y-95877142D02*
X133676190Y-95543809D01*
X134152380Y-95305714D02*
X133152380Y-95305714D01*
X133152380Y-95686666D01*
X133200000Y-95781904D01*
X133247619Y-95829523D01*
X133342857Y-95877142D01*
X133485714Y-95877142D01*
X133580952Y-95829523D01*
X133628571Y-95781904D01*
X133676190Y-95686666D01*
X133676190Y-95305714D01*
X134152380Y-96829523D02*
X134152380Y-96258095D01*
X134152380Y-96543809D02*
X133152380Y-96543809D01*
X133295238Y-96448571D01*
X133390476Y-96353333D01*
X133438095Y-96258095D01*
X133247619Y-97210476D02*
X133200000Y-97258095D01*
X133152380Y-97353333D01*
X133152380Y-97591428D01*
X133200000Y-97686666D01*
X133247619Y-97734285D01*
X133342857Y-97781904D01*
X133438095Y-97781904D01*
X133580952Y-97734285D01*
X134152380Y-97162857D01*
X134152380Y-97781904D01*
G04 #@! TO.C,R11*
X97742857Y-69252380D02*
X98076190Y-68776190D01*
X98314285Y-69252380D02*
X98314285Y-68252380D01*
X97933333Y-68252380D01*
X97838095Y-68300000D01*
X97790476Y-68347619D01*
X97742857Y-68442857D01*
X97742857Y-68585714D01*
X97790476Y-68680952D01*
X97838095Y-68728571D01*
X97933333Y-68776190D01*
X98314285Y-68776190D01*
X96790476Y-69252380D02*
X97361904Y-69252380D01*
X97076190Y-69252380D02*
X97076190Y-68252380D01*
X97171428Y-68395238D01*
X97266666Y-68490476D01*
X97361904Y-68538095D01*
X95838095Y-69252380D02*
X96409523Y-69252380D01*
X96123809Y-69252380D02*
X96123809Y-68252380D01*
X96219047Y-68395238D01*
X96314285Y-68490476D01*
X96409523Y-68538095D01*
G04 #@! TO.C,R8*
X132552380Y-95933333D02*
X132076190Y-95600000D01*
X132552380Y-95361904D02*
X131552380Y-95361904D01*
X131552380Y-95742857D01*
X131600000Y-95838095D01*
X131647619Y-95885714D01*
X131742857Y-95933333D01*
X131885714Y-95933333D01*
X131980952Y-95885714D01*
X132028571Y-95838095D01*
X132076190Y-95742857D01*
X132076190Y-95361904D01*
X131980952Y-96504761D02*
X131933333Y-96409523D01*
X131885714Y-96361904D01*
X131790476Y-96314285D01*
X131742857Y-96314285D01*
X131647619Y-96361904D01*
X131600000Y-96409523D01*
X131552380Y-96504761D01*
X131552380Y-96695238D01*
X131600000Y-96790476D01*
X131647619Y-96838095D01*
X131742857Y-96885714D01*
X131790476Y-96885714D01*
X131885714Y-96838095D01*
X131933333Y-96790476D01*
X131980952Y-96695238D01*
X131980952Y-96504761D01*
X132028571Y-96409523D01*
X132076190Y-96361904D01*
X132171428Y-96314285D01*
X132361904Y-96314285D01*
X132457142Y-96361904D01*
X132504761Y-96409523D01*
X132552380Y-96504761D01*
X132552380Y-96695238D01*
X132504761Y-96790476D01*
X132457142Y-96838095D01*
X132361904Y-96885714D01*
X132171428Y-96885714D01*
X132076190Y-96838095D01*
X132028571Y-96790476D01*
X131980952Y-96695238D01*
G04 #@! TO.C,R7*
X175366666Y-115452380D02*
X175700000Y-114976190D01*
X175938095Y-115452380D02*
X175938095Y-114452380D01*
X175557142Y-114452380D01*
X175461904Y-114500000D01*
X175414285Y-114547619D01*
X175366666Y-114642857D01*
X175366666Y-114785714D01*
X175414285Y-114880952D01*
X175461904Y-114928571D01*
X175557142Y-114976190D01*
X175938095Y-114976190D01*
X175033333Y-114452380D02*
X174366666Y-114452380D01*
X174795238Y-115452380D01*
G04 #@! TO.C,R4*
X169362380Y-107148333D02*
X168886190Y-106815000D01*
X169362380Y-106576904D02*
X168362380Y-106576904D01*
X168362380Y-106957857D01*
X168410000Y-107053095D01*
X168457619Y-107100714D01*
X168552857Y-107148333D01*
X168695714Y-107148333D01*
X168790952Y-107100714D01*
X168838571Y-107053095D01*
X168886190Y-106957857D01*
X168886190Y-106576904D01*
X168695714Y-108005476D02*
X169362380Y-108005476D01*
X168314761Y-107767380D02*
X169029047Y-107529285D01*
X169029047Y-108148333D01*
G04 #@! TO.C,R18*
X69042857Y-76152380D02*
X69376190Y-75676190D01*
X69614285Y-76152380D02*
X69614285Y-75152380D01*
X69233333Y-75152380D01*
X69138095Y-75200000D01*
X69090476Y-75247619D01*
X69042857Y-75342857D01*
X69042857Y-75485714D01*
X69090476Y-75580952D01*
X69138095Y-75628571D01*
X69233333Y-75676190D01*
X69614285Y-75676190D01*
X68090476Y-76152380D02*
X68661904Y-76152380D01*
X68376190Y-76152380D02*
X68376190Y-75152380D01*
X68471428Y-75295238D01*
X68566666Y-75390476D01*
X68661904Y-75438095D01*
X67519047Y-75580952D02*
X67614285Y-75533333D01*
X67661904Y-75485714D01*
X67709523Y-75390476D01*
X67709523Y-75342857D01*
X67661904Y-75247619D01*
X67614285Y-75200000D01*
X67519047Y-75152380D01*
X67328571Y-75152380D01*
X67233333Y-75200000D01*
X67185714Y-75247619D01*
X67138095Y-75342857D01*
X67138095Y-75390476D01*
X67185714Y-75485714D01*
X67233333Y-75533333D01*
X67328571Y-75580952D01*
X67519047Y-75580952D01*
X67614285Y-75628571D01*
X67661904Y-75676190D01*
X67709523Y-75771428D01*
X67709523Y-75961904D01*
X67661904Y-76057142D01*
X67614285Y-76104761D01*
X67519047Y-76152380D01*
X67328571Y-76152380D01*
X67233333Y-76104761D01*
X67185714Y-76057142D01*
X67138095Y-75961904D01*
X67138095Y-75771428D01*
X67185714Y-75676190D01*
X67233333Y-75628571D01*
X67328571Y-75580952D01*
G04 #@! TO.C,R20*
X95067380Y-106672142D02*
X94591190Y-106338809D01*
X95067380Y-106100714D02*
X94067380Y-106100714D01*
X94067380Y-106481666D01*
X94115000Y-106576904D01*
X94162619Y-106624523D01*
X94257857Y-106672142D01*
X94400714Y-106672142D01*
X94495952Y-106624523D01*
X94543571Y-106576904D01*
X94591190Y-106481666D01*
X94591190Y-106100714D01*
X94162619Y-107053095D02*
X94115000Y-107100714D01*
X94067380Y-107195952D01*
X94067380Y-107434047D01*
X94115000Y-107529285D01*
X94162619Y-107576904D01*
X94257857Y-107624523D01*
X94353095Y-107624523D01*
X94495952Y-107576904D01*
X95067380Y-107005476D01*
X95067380Y-107624523D01*
X94067380Y-108243571D02*
X94067380Y-108338809D01*
X94115000Y-108434047D01*
X94162619Y-108481666D01*
X94257857Y-108529285D01*
X94448333Y-108576904D01*
X94686428Y-108576904D01*
X94876904Y-108529285D01*
X94972142Y-108481666D01*
X95019761Y-108434047D01*
X95067380Y-108338809D01*
X95067380Y-108243571D01*
X95019761Y-108148333D01*
X94972142Y-108100714D01*
X94876904Y-108053095D01*
X94686428Y-108005476D01*
X94448333Y-108005476D01*
X94257857Y-108053095D01*
X94162619Y-108100714D01*
X94115000Y-108148333D01*
X94067380Y-108243571D01*
G04 #@! TO.C,R21*
X185252380Y-115157142D02*
X184776190Y-114823809D01*
X185252380Y-114585714D02*
X184252380Y-114585714D01*
X184252380Y-114966666D01*
X184300000Y-115061904D01*
X184347619Y-115109523D01*
X184442857Y-115157142D01*
X184585714Y-115157142D01*
X184680952Y-115109523D01*
X184728571Y-115061904D01*
X184776190Y-114966666D01*
X184776190Y-114585714D01*
X184347619Y-115538095D02*
X184300000Y-115585714D01*
X184252380Y-115680952D01*
X184252380Y-115919047D01*
X184300000Y-116014285D01*
X184347619Y-116061904D01*
X184442857Y-116109523D01*
X184538095Y-116109523D01*
X184680952Y-116061904D01*
X185252380Y-115490476D01*
X185252380Y-116109523D01*
X185252380Y-117061904D02*
X185252380Y-116490476D01*
X185252380Y-116776190D02*
X184252380Y-116776190D01*
X184395238Y-116680952D01*
X184490476Y-116585714D01*
X184538095Y-116490476D01*
G04 #@! TO.C,R14*
X92527380Y-106672142D02*
X92051190Y-106338809D01*
X92527380Y-106100714D02*
X91527380Y-106100714D01*
X91527380Y-106481666D01*
X91575000Y-106576904D01*
X91622619Y-106624523D01*
X91717857Y-106672142D01*
X91860714Y-106672142D01*
X91955952Y-106624523D01*
X92003571Y-106576904D01*
X92051190Y-106481666D01*
X92051190Y-106100714D01*
X92527380Y-107624523D02*
X92527380Y-107053095D01*
X92527380Y-107338809D02*
X91527380Y-107338809D01*
X91670238Y-107243571D01*
X91765476Y-107148333D01*
X91813095Y-107053095D01*
X91860714Y-108481666D02*
X92527380Y-108481666D01*
X91479761Y-108243571D02*
X92194047Y-108005476D01*
X92194047Y-108624523D01*
G04 #@! TO.C,R6*
X85256666Y-119112380D02*
X85590000Y-118636190D01*
X85828095Y-119112380D02*
X85828095Y-118112380D01*
X85447142Y-118112380D01*
X85351904Y-118160000D01*
X85304285Y-118207619D01*
X85256666Y-118302857D01*
X85256666Y-118445714D01*
X85304285Y-118540952D01*
X85351904Y-118588571D01*
X85447142Y-118636190D01*
X85828095Y-118636190D01*
X84399523Y-118112380D02*
X84590000Y-118112380D01*
X84685238Y-118160000D01*
X84732857Y-118207619D01*
X84828095Y-118350476D01*
X84875714Y-118540952D01*
X84875714Y-118921904D01*
X84828095Y-119017142D01*
X84780476Y-119064761D01*
X84685238Y-119112380D01*
X84494761Y-119112380D01*
X84399523Y-119064761D01*
X84351904Y-119017142D01*
X84304285Y-118921904D01*
X84304285Y-118683809D01*
X84351904Y-118588571D01*
X84399523Y-118540952D01*
X84494761Y-118493333D01*
X84685238Y-118493333D01*
X84780476Y-118540952D01*
X84828095Y-118588571D01*
X84875714Y-118683809D01*
G04 #@! TO.C,R29*
X191777857Y-115352380D02*
X192111190Y-114876190D01*
X192349285Y-115352380D02*
X192349285Y-114352380D01*
X191968333Y-114352380D01*
X191873095Y-114400000D01*
X191825476Y-114447619D01*
X191777857Y-114542857D01*
X191777857Y-114685714D01*
X191825476Y-114780952D01*
X191873095Y-114828571D01*
X191968333Y-114876190D01*
X192349285Y-114876190D01*
X191396904Y-114447619D02*
X191349285Y-114400000D01*
X191254047Y-114352380D01*
X191015952Y-114352380D01*
X190920714Y-114400000D01*
X190873095Y-114447619D01*
X190825476Y-114542857D01*
X190825476Y-114638095D01*
X190873095Y-114780952D01*
X191444523Y-115352380D01*
X190825476Y-115352380D01*
X190349285Y-115352380D02*
X190158809Y-115352380D01*
X190063571Y-115304761D01*
X190015952Y-115257142D01*
X189920714Y-115114285D01*
X189873095Y-114923809D01*
X189873095Y-114542857D01*
X189920714Y-114447619D01*
X189968333Y-114400000D01*
X190063571Y-114352380D01*
X190254047Y-114352380D01*
X190349285Y-114400000D01*
X190396904Y-114447619D01*
X190444523Y-114542857D01*
X190444523Y-114780952D01*
X190396904Y-114876190D01*
X190349285Y-114923809D01*
X190254047Y-114971428D01*
X190063571Y-114971428D01*
X189968333Y-114923809D01*
X189920714Y-114876190D01*
X189873095Y-114780952D01*
G04 #@! TO.C,R28*
X101607857Y-119112380D02*
X101941190Y-118636190D01*
X102179285Y-119112380D02*
X102179285Y-118112380D01*
X101798333Y-118112380D01*
X101703095Y-118160000D01*
X101655476Y-118207619D01*
X101607857Y-118302857D01*
X101607857Y-118445714D01*
X101655476Y-118540952D01*
X101703095Y-118588571D01*
X101798333Y-118636190D01*
X102179285Y-118636190D01*
X101226904Y-118207619D02*
X101179285Y-118160000D01*
X101084047Y-118112380D01*
X100845952Y-118112380D01*
X100750714Y-118160000D01*
X100703095Y-118207619D01*
X100655476Y-118302857D01*
X100655476Y-118398095D01*
X100703095Y-118540952D01*
X101274523Y-119112380D01*
X100655476Y-119112380D01*
X100084047Y-118540952D02*
X100179285Y-118493333D01*
X100226904Y-118445714D01*
X100274523Y-118350476D01*
X100274523Y-118302857D01*
X100226904Y-118207619D01*
X100179285Y-118160000D01*
X100084047Y-118112380D01*
X99893571Y-118112380D01*
X99798333Y-118160000D01*
X99750714Y-118207619D01*
X99703095Y-118302857D01*
X99703095Y-118350476D01*
X99750714Y-118445714D01*
X99798333Y-118493333D01*
X99893571Y-118540952D01*
X100084047Y-118540952D01*
X100179285Y-118588571D01*
X100226904Y-118636190D01*
X100274523Y-118731428D01*
X100274523Y-118921904D01*
X100226904Y-119017142D01*
X100179285Y-119064761D01*
X100084047Y-119112380D01*
X99893571Y-119112380D01*
X99798333Y-119064761D01*
X99750714Y-119017142D01*
X99703095Y-118921904D01*
X99703095Y-118731428D01*
X99750714Y-118636190D01*
X99798333Y-118588571D01*
X99893571Y-118540952D01*
G04 #@! TO.C,R5*
X126732380Y-118578333D02*
X126256190Y-118245000D01*
X126732380Y-118006904D02*
X125732380Y-118006904D01*
X125732380Y-118387857D01*
X125780000Y-118483095D01*
X125827619Y-118530714D01*
X125922857Y-118578333D01*
X126065714Y-118578333D01*
X126160952Y-118530714D01*
X126208571Y-118483095D01*
X126256190Y-118387857D01*
X126256190Y-118006904D01*
X125732380Y-119483095D02*
X125732380Y-119006904D01*
X126208571Y-118959285D01*
X126160952Y-119006904D01*
X126113333Y-119102142D01*
X126113333Y-119340238D01*
X126160952Y-119435476D01*
X126208571Y-119483095D01*
X126303809Y-119530714D01*
X126541904Y-119530714D01*
X126637142Y-119483095D01*
X126684761Y-119435476D01*
X126732380Y-119340238D01*
X126732380Y-119102142D01*
X126684761Y-119006904D01*
X126637142Y-118959285D01*
G04 #@! TO.C,R55*
X156242857Y-110252380D02*
X156576190Y-109776190D01*
X156814285Y-110252380D02*
X156814285Y-109252380D01*
X156433333Y-109252380D01*
X156338095Y-109300000D01*
X156290476Y-109347619D01*
X156242857Y-109442857D01*
X156242857Y-109585714D01*
X156290476Y-109680952D01*
X156338095Y-109728571D01*
X156433333Y-109776190D01*
X156814285Y-109776190D01*
X155338095Y-109252380D02*
X155814285Y-109252380D01*
X155861904Y-109728571D01*
X155814285Y-109680952D01*
X155719047Y-109633333D01*
X155480952Y-109633333D01*
X155385714Y-109680952D01*
X155338095Y-109728571D01*
X155290476Y-109823809D01*
X155290476Y-110061904D01*
X155338095Y-110157142D01*
X155385714Y-110204761D01*
X155480952Y-110252380D01*
X155719047Y-110252380D01*
X155814285Y-110204761D01*
X155861904Y-110157142D01*
X154385714Y-109252380D02*
X154861904Y-109252380D01*
X154909523Y-109728571D01*
X154861904Y-109680952D01*
X154766666Y-109633333D01*
X154528571Y-109633333D01*
X154433333Y-109680952D01*
X154385714Y-109728571D01*
X154338095Y-109823809D01*
X154338095Y-110061904D01*
X154385714Y-110157142D01*
X154433333Y-110204761D01*
X154528571Y-110252380D01*
X154766666Y-110252380D01*
X154861904Y-110204761D01*
X154909523Y-110157142D01*
G04 #@! TO.C,R57*
X160042857Y-115552380D02*
X160376190Y-115076190D01*
X160614285Y-115552380D02*
X160614285Y-114552380D01*
X160233333Y-114552380D01*
X160138095Y-114600000D01*
X160090476Y-114647619D01*
X160042857Y-114742857D01*
X160042857Y-114885714D01*
X160090476Y-114980952D01*
X160138095Y-115028571D01*
X160233333Y-115076190D01*
X160614285Y-115076190D01*
X159138095Y-114552380D02*
X159614285Y-114552380D01*
X159661904Y-115028571D01*
X159614285Y-114980952D01*
X159519047Y-114933333D01*
X159280952Y-114933333D01*
X159185714Y-114980952D01*
X159138095Y-115028571D01*
X159090476Y-115123809D01*
X159090476Y-115361904D01*
X159138095Y-115457142D01*
X159185714Y-115504761D01*
X159280952Y-115552380D01*
X159519047Y-115552380D01*
X159614285Y-115504761D01*
X159661904Y-115457142D01*
X158757142Y-114552380D02*
X158090476Y-114552380D01*
X158519047Y-115552380D01*
G04 #@! TO.C,R39*
X66542857Y-85552380D02*
X66876190Y-85076190D01*
X67114285Y-85552380D02*
X67114285Y-84552380D01*
X66733333Y-84552380D01*
X66638095Y-84600000D01*
X66590476Y-84647619D01*
X66542857Y-84742857D01*
X66542857Y-84885714D01*
X66590476Y-84980952D01*
X66638095Y-85028571D01*
X66733333Y-85076190D01*
X67114285Y-85076190D01*
X66209523Y-84552380D02*
X65590476Y-84552380D01*
X65923809Y-84933333D01*
X65780952Y-84933333D01*
X65685714Y-84980952D01*
X65638095Y-85028571D01*
X65590476Y-85123809D01*
X65590476Y-85361904D01*
X65638095Y-85457142D01*
X65685714Y-85504761D01*
X65780952Y-85552380D01*
X66066666Y-85552380D01*
X66161904Y-85504761D01*
X66209523Y-85457142D01*
X65114285Y-85552380D02*
X64923809Y-85552380D01*
X64828571Y-85504761D01*
X64780952Y-85457142D01*
X64685714Y-85314285D01*
X64638095Y-85123809D01*
X64638095Y-84742857D01*
X64685714Y-84647619D01*
X64733333Y-84600000D01*
X64828571Y-84552380D01*
X65019047Y-84552380D01*
X65114285Y-84600000D01*
X65161904Y-84647619D01*
X65209523Y-84742857D01*
X65209523Y-84980952D01*
X65161904Y-85076190D01*
X65114285Y-85123809D01*
X65019047Y-85171428D01*
X64828571Y-85171428D01*
X64733333Y-85123809D01*
X64685714Y-85076190D01*
X64638095Y-84980952D01*
G04 #@! TO.C,R53*
X149352380Y-107457142D02*
X148876190Y-107123809D01*
X149352380Y-106885714D02*
X148352380Y-106885714D01*
X148352380Y-107266666D01*
X148400000Y-107361904D01*
X148447619Y-107409523D01*
X148542857Y-107457142D01*
X148685714Y-107457142D01*
X148780952Y-107409523D01*
X148828571Y-107361904D01*
X148876190Y-107266666D01*
X148876190Y-106885714D01*
X148352380Y-108361904D02*
X148352380Y-107885714D01*
X148828571Y-107838095D01*
X148780952Y-107885714D01*
X148733333Y-107980952D01*
X148733333Y-108219047D01*
X148780952Y-108314285D01*
X148828571Y-108361904D01*
X148923809Y-108409523D01*
X149161904Y-108409523D01*
X149257142Y-108361904D01*
X149304761Y-108314285D01*
X149352380Y-108219047D01*
X149352380Y-107980952D01*
X149304761Y-107885714D01*
X149257142Y-107838095D01*
X148352380Y-108742857D02*
X148352380Y-109361904D01*
X148733333Y-109028571D01*
X148733333Y-109171428D01*
X148780952Y-109266666D01*
X148828571Y-109314285D01*
X148923809Y-109361904D01*
X149161904Y-109361904D01*
X149257142Y-109314285D01*
X149304761Y-109266666D01*
X149352380Y-109171428D01*
X149352380Y-108885714D01*
X149304761Y-108790476D01*
X149257142Y-108742857D01*
G04 #@! TO.C,R38*
X198652380Y-115257142D02*
X198176190Y-114923809D01*
X198652380Y-114685714D02*
X197652380Y-114685714D01*
X197652380Y-115066666D01*
X197700000Y-115161904D01*
X197747619Y-115209523D01*
X197842857Y-115257142D01*
X197985714Y-115257142D01*
X198080952Y-115209523D01*
X198128571Y-115161904D01*
X198176190Y-115066666D01*
X198176190Y-114685714D01*
X197652380Y-115590476D02*
X197652380Y-116209523D01*
X198033333Y-115876190D01*
X198033333Y-116019047D01*
X198080952Y-116114285D01*
X198128571Y-116161904D01*
X198223809Y-116209523D01*
X198461904Y-116209523D01*
X198557142Y-116161904D01*
X198604761Y-116114285D01*
X198652380Y-116019047D01*
X198652380Y-115733333D01*
X198604761Y-115638095D01*
X198557142Y-115590476D01*
X198080952Y-116780952D02*
X198033333Y-116685714D01*
X197985714Y-116638095D01*
X197890476Y-116590476D01*
X197842857Y-116590476D01*
X197747619Y-116638095D01*
X197700000Y-116685714D01*
X197652380Y-116780952D01*
X197652380Y-116971428D01*
X197700000Y-117066666D01*
X197747619Y-117114285D01*
X197842857Y-117161904D01*
X197890476Y-117161904D01*
X197985714Y-117114285D01*
X198033333Y-117066666D01*
X198080952Y-116971428D01*
X198080952Y-116780952D01*
X198128571Y-116685714D01*
X198176190Y-116638095D01*
X198271428Y-116590476D01*
X198461904Y-116590476D01*
X198557142Y-116638095D01*
X198604761Y-116685714D01*
X198652380Y-116780952D01*
X198652380Y-116971428D01*
X198604761Y-117066666D01*
X198557142Y-117114285D01*
X198461904Y-117161904D01*
X198271428Y-117161904D01*
X198176190Y-117114285D01*
X198128571Y-117066666D01*
X198080952Y-116971428D01*
G04 #@! TO.C,R37*
X108402380Y-106672142D02*
X107926190Y-106338809D01*
X108402380Y-106100714D02*
X107402380Y-106100714D01*
X107402380Y-106481666D01*
X107450000Y-106576904D01*
X107497619Y-106624523D01*
X107592857Y-106672142D01*
X107735714Y-106672142D01*
X107830952Y-106624523D01*
X107878571Y-106576904D01*
X107926190Y-106481666D01*
X107926190Y-106100714D01*
X107402380Y-107005476D02*
X107402380Y-107624523D01*
X107783333Y-107291190D01*
X107783333Y-107434047D01*
X107830952Y-107529285D01*
X107878571Y-107576904D01*
X107973809Y-107624523D01*
X108211904Y-107624523D01*
X108307142Y-107576904D01*
X108354761Y-107529285D01*
X108402380Y-107434047D01*
X108402380Y-107148333D01*
X108354761Y-107053095D01*
X108307142Y-107005476D01*
X107402380Y-107957857D02*
X107402380Y-108624523D01*
X108402380Y-108195952D01*
G04 #@! TO.C,R54*
X90752380Y-101957142D02*
X90276190Y-101623809D01*
X90752380Y-101385714D02*
X89752380Y-101385714D01*
X89752380Y-101766666D01*
X89800000Y-101861904D01*
X89847619Y-101909523D01*
X89942857Y-101957142D01*
X90085714Y-101957142D01*
X90180952Y-101909523D01*
X90228571Y-101861904D01*
X90276190Y-101766666D01*
X90276190Y-101385714D01*
X89752380Y-102861904D02*
X89752380Y-102385714D01*
X90228571Y-102338095D01*
X90180952Y-102385714D01*
X90133333Y-102480952D01*
X90133333Y-102719047D01*
X90180952Y-102814285D01*
X90228571Y-102861904D01*
X90323809Y-102909523D01*
X90561904Y-102909523D01*
X90657142Y-102861904D01*
X90704761Y-102814285D01*
X90752380Y-102719047D01*
X90752380Y-102480952D01*
X90704761Y-102385714D01*
X90657142Y-102338095D01*
X90085714Y-103766666D02*
X90752380Y-103766666D01*
X89704761Y-103528571D02*
X90419047Y-103290476D01*
X90419047Y-103909523D01*
G04 #@! TO.C,R52*
X95152380Y-98857142D02*
X94676190Y-98523809D01*
X95152380Y-98285714D02*
X94152380Y-98285714D01*
X94152380Y-98666666D01*
X94200000Y-98761904D01*
X94247619Y-98809523D01*
X94342857Y-98857142D01*
X94485714Y-98857142D01*
X94580952Y-98809523D01*
X94628571Y-98761904D01*
X94676190Y-98666666D01*
X94676190Y-98285714D01*
X94152380Y-99761904D02*
X94152380Y-99285714D01*
X94628571Y-99238095D01*
X94580952Y-99285714D01*
X94533333Y-99380952D01*
X94533333Y-99619047D01*
X94580952Y-99714285D01*
X94628571Y-99761904D01*
X94723809Y-99809523D01*
X94961904Y-99809523D01*
X95057142Y-99761904D01*
X95104761Y-99714285D01*
X95152380Y-99619047D01*
X95152380Y-99380952D01*
X95104761Y-99285714D01*
X95057142Y-99238095D01*
X94247619Y-100190476D02*
X94200000Y-100238095D01*
X94152380Y-100333333D01*
X94152380Y-100571428D01*
X94200000Y-100666666D01*
X94247619Y-100714285D01*
X94342857Y-100761904D01*
X94438095Y-100761904D01*
X94580952Y-100714285D01*
X95152380Y-100142857D01*
X95152380Y-100761904D01*
G04 #@! TO.C,R40*
X149042380Y-80002142D02*
X148566190Y-79668809D01*
X149042380Y-79430714D02*
X148042380Y-79430714D01*
X148042380Y-79811666D01*
X148090000Y-79906904D01*
X148137619Y-79954523D01*
X148232857Y-80002142D01*
X148375714Y-80002142D01*
X148470952Y-79954523D01*
X148518571Y-79906904D01*
X148566190Y-79811666D01*
X148566190Y-79430714D01*
X148375714Y-80859285D02*
X149042380Y-80859285D01*
X147994761Y-80621190D02*
X148709047Y-80383095D01*
X148709047Y-81002142D01*
X148042380Y-81573571D02*
X148042380Y-81668809D01*
X148090000Y-81764047D01*
X148137619Y-81811666D01*
X148232857Y-81859285D01*
X148423333Y-81906904D01*
X148661428Y-81906904D01*
X148851904Y-81859285D01*
X148947142Y-81811666D01*
X148994761Y-81764047D01*
X149042380Y-81668809D01*
X149042380Y-81573571D01*
X148994761Y-81478333D01*
X148947142Y-81430714D01*
X148851904Y-81383095D01*
X148661428Y-81335476D01*
X148423333Y-81335476D01*
X148232857Y-81383095D01*
X148137619Y-81430714D01*
X148090000Y-81478333D01*
X148042380Y-81573571D01*
G04 #@! TO.C,R41*
X110942380Y-106672142D02*
X110466190Y-106338809D01*
X110942380Y-106100714D02*
X109942380Y-106100714D01*
X109942380Y-106481666D01*
X109990000Y-106576904D01*
X110037619Y-106624523D01*
X110132857Y-106672142D01*
X110275714Y-106672142D01*
X110370952Y-106624523D01*
X110418571Y-106576904D01*
X110466190Y-106481666D01*
X110466190Y-106100714D01*
X110275714Y-107529285D02*
X110942380Y-107529285D01*
X109894761Y-107291190D02*
X110609047Y-107053095D01*
X110609047Y-107672142D01*
X110942380Y-108576904D02*
X110942380Y-108005476D01*
X110942380Y-108291190D02*
X109942380Y-108291190D01*
X110085238Y-108195952D01*
X110180476Y-108100714D01*
X110228095Y-108005476D01*
G04 #@! TO.C,R2*
X166822380Y-107148333D02*
X166346190Y-106815000D01*
X166822380Y-106576904D02*
X165822380Y-106576904D01*
X165822380Y-106957857D01*
X165870000Y-107053095D01*
X165917619Y-107100714D01*
X166012857Y-107148333D01*
X166155714Y-107148333D01*
X166250952Y-107100714D01*
X166298571Y-107053095D01*
X166346190Y-106957857D01*
X166346190Y-106576904D01*
X165917619Y-107529285D02*
X165870000Y-107576904D01*
X165822380Y-107672142D01*
X165822380Y-107910238D01*
X165870000Y-108005476D01*
X165917619Y-108053095D01*
X166012857Y-108100714D01*
X166108095Y-108100714D01*
X166250952Y-108053095D01*
X166822380Y-107481666D01*
X166822380Y-108100714D01*
G04 #@! TO.C,R49*
X144142857Y-83652380D02*
X144476190Y-83176190D01*
X144714285Y-83652380D02*
X144714285Y-82652380D01*
X144333333Y-82652380D01*
X144238095Y-82700000D01*
X144190476Y-82747619D01*
X144142857Y-82842857D01*
X144142857Y-82985714D01*
X144190476Y-83080952D01*
X144238095Y-83128571D01*
X144333333Y-83176190D01*
X144714285Y-83176190D01*
X143285714Y-82985714D02*
X143285714Y-83652380D01*
X143523809Y-82604761D02*
X143761904Y-83319047D01*
X143142857Y-83319047D01*
X142714285Y-83652380D02*
X142523809Y-83652380D01*
X142428571Y-83604761D01*
X142380952Y-83557142D01*
X142285714Y-83414285D01*
X142238095Y-83223809D01*
X142238095Y-82842857D01*
X142285714Y-82747619D01*
X142333333Y-82700000D01*
X142428571Y-82652380D01*
X142619047Y-82652380D01*
X142714285Y-82700000D01*
X142761904Y-82747619D01*
X142809523Y-82842857D01*
X142809523Y-83080952D01*
X142761904Y-83176190D01*
X142714285Y-83223809D01*
X142619047Y-83271428D01*
X142428571Y-83271428D01*
X142333333Y-83223809D01*
X142285714Y-83176190D01*
X142238095Y-83080952D01*
G04 #@! TO.C,R50*
X151137857Y-83722380D02*
X151471190Y-83246190D01*
X151709285Y-83722380D02*
X151709285Y-82722380D01*
X151328333Y-82722380D01*
X151233095Y-82770000D01*
X151185476Y-82817619D01*
X151137857Y-82912857D01*
X151137857Y-83055714D01*
X151185476Y-83150952D01*
X151233095Y-83198571D01*
X151328333Y-83246190D01*
X151709285Y-83246190D01*
X150233095Y-82722380D02*
X150709285Y-82722380D01*
X150756904Y-83198571D01*
X150709285Y-83150952D01*
X150614047Y-83103333D01*
X150375952Y-83103333D01*
X150280714Y-83150952D01*
X150233095Y-83198571D01*
X150185476Y-83293809D01*
X150185476Y-83531904D01*
X150233095Y-83627142D01*
X150280714Y-83674761D01*
X150375952Y-83722380D01*
X150614047Y-83722380D01*
X150709285Y-83674761D01*
X150756904Y-83627142D01*
X149566428Y-82722380D02*
X149471190Y-82722380D01*
X149375952Y-82770000D01*
X149328333Y-82817619D01*
X149280714Y-82912857D01*
X149233095Y-83103333D01*
X149233095Y-83341428D01*
X149280714Y-83531904D01*
X149328333Y-83627142D01*
X149375952Y-83674761D01*
X149471190Y-83722380D01*
X149566428Y-83722380D01*
X149661666Y-83674761D01*
X149709285Y-83627142D01*
X149756904Y-83531904D01*
X149804523Y-83341428D01*
X149804523Y-83103333D01*
X149756904Y-82912857D01*
X149709285Y-82817619D01*
X149661666Y-82770000D01*
X149566428Y-82722380D01*
G04 #@! TO.C,R45*
X120022857Y-109672380D02*
X120356190Y-109196190D01*
X120594285Y-109672380D02*
X120594285Y-108672380D01*
X120213333Y-108672380D01*
X120118095Y-108720000D01*
X120070476Y-108767619D01*
X120022857Y-108862857D01*
X120022857Y-109005714D01*
X120070476Y-109100952D01*
X120118095Y-109148571D01*
X120213333Y-109196190D01*
X120594285Y-109196190D01*
X119165714Y-109005714D02*
X119165714Y-109672380D01*
X119403809Y-108624761D02*
X119641904Y-109339047D01*
X119022857Y-109339047D01*
X118165714Y-108672380D02*
X118641904Y-108672380D01*
X118689523Y-109148571D01*
X118641904Y-109100952D01*
X118546666Y-109053333D01*
X118308571Y-109053333D01*
X118213333Y-109100952D01*
X118165714Y-109148571D01*
X118118095Y-109243809D01*
X118118095Y-109481904D01*
X118165714Y-109577142D01*
X118213333Y-109624761D01*
X118308571Y-109672380D01*
X118546666Y-109672380D01*
X118641904Y-109624761D01*
X118689523Y-109577142D01*
G04 #@! TO.C,R44*
X189132380Y-67302142D02*
X188656190Y-66968809D01*
X189132380Y-66730714D02*
X188132380Y-66730714D01*
X188132380Y-67111666D01*
X188180000Y-67206904D01*
X188227619Y-67254523D01*
X188322857Y-67302142D01*
X188465714Y-67302142D01*
X188560952Y-67254523D01*
X188608571Y-67206904D01*
X188656190Y-67111666D01*
X188656190Y-66730714D01*
X188465714Y-68159285D02*
X189132380Y-68159285D01*
X188084761Y-67921190D02*
X188799047Y-67683095D01*
X188799047Y-68302142D01*
X188465714Y-69111666D02*
X189132380Y-69111666D01*
X188084761Y-68873571D02*
X188799047Y-68635476D01*
X188799047Y-69254523D01*
G04 #@! TO.C,R43*
X179712857Y-74112380D02*
X180046190Y-73636190D01*
X180284285Y-74112380D02*
X180284285Y-73112380D01*
X179903333Y-73112380D01*
X179808095Y-73160000D01*
X179760476Y-73207619D01*
X179712857Y-73302857D01*
X179712857Y-73445714D01*
X179760476Y-73540952D01*
X179808095Y-73588571D01*
X179903333Y-73636190D01*
X180284285Y-73636190D01*
X178855714Y-73445714D02*
X178855714Y-74112380D01*
X179093809Y-73064761D02*
X179331904Y-73779047D01*
X178712857Y-73779047D01*
X178427142Y-73112380D02*
X177808095Y-73112380D01*
X178141428Y-73493333D01*
X177998571Y-73493333D01*
X177903333Y-73540952D01*
X177855714Y-73588571D01*
X177808095Y-73683809D01*
X177808095Y-73921904D01*
X177855714Y-74017142D01*
X177903333Y-74064761D01*
X177998571Y-74112380D01*
X178284285Y-74112380D01*
X178379523Y-74064761D01*
X178427142Y-74017142D01*
G04 #@! TO.C,R3*
X79192380Y-103148333D02*
X78716190Y-102815000D01*
X79192380Y-102576904D02*
X78192380Y-102576904D01*
X78192380Y-102957857D01*
X78240000Y-103053095D01*
X78287619Y-103100714D01*
X78382857Y-103148333D01*
X78525714Y-103148333D01*
X78620952Y-103100714D01*
X78668571Y-103053095D01*
X78716190Y-102957857D01*
X78716190Y-102576904D01*
X78192380Y-103481666D02*
X78192380Y-104100714D01*
X78573333Y-103767380D01*
X78573333Y-103910238D01*
X78620952Y-104005476D01*
X78668571Y-104053095D01*
X78763809Y-104100714D01*
X79001904Y-104100714D01*
X79097142Y-104053095D01*
X79144761Y-104005476D01*
X79192380Y-103910238D01*
X79192380Y-103624523D01*
X79144761Y-103529285D01*
X79097142Y-103481666D01*
G04 #@! TO.C,R42*
X203942857Y-110152380D02*
X204276190Y-109676190D01*
X204514285Y-110152380D02*
X204514285Y-109152380D01*
X204133333Y-109152380D01*
X204038095Y-109200000D01*
X203990476Y-109247619D01*
X203942857Y-109342857D01*
X203942857Y-109485714D01*
X203990476Y-109580952D01*
X204038095Y-109628571D01*
X204133333Y-109676190D01*
X204514285Y-109676190D01*
X203085714Y-109485714D02*
X203085714Y-110152380D01*
X203323809Y-109104761D02*
X203561904Y-109819047D01*
X202942857Y-109819047D01*
X202609523Y-109247619D02*
X202561904Y-109200000D01*
X202466666Y-109152380D01*
X202228571Y-109152380D01*
X202133333Y-109200000D01*
X202085714Y-109247619D01*
X202038095Y-109342857D01*
X202038095Y-109438095D01*
X202085714Y-109580952D01*
X202657142Y-110152380D01*
X202038095Y-110152380D01*
G04 #@! TO.C,TVS8*
X131552380Y-98533333D02*
X131552380Y-99104761D01*
X132552380Y-98819047D02*
X131552380Y-98819047D01*
X131552380Y-99295238D02*
X132552380Y-99628571D01*
X131552380Y-99961904D01*
X132504761Y-100247619D02*
X132552380Y-100390476D01*
X132552380Y-100628571D01*
X132504761Y-100723809D01*
X132457142Y-100771428D01*
X132361904Y-100819047D01*
X132266666Y-100819047D01*
X132171428Y-100771428D01*
X132123809Y-100723809D01*
X132076190Y-100628571D01*
X132028571Y-100438095D01*
X131980952Y-100342857D01*
X131933333Y-100295238D01*
X131838095Y-100247619D01*
X131742857Y-100247619D01*
X131647619Y-100295238D01*
X131600000Y-100342857D01*
X131552380Y-100438095D01*
X131552380Y-100676190D01*
X131600000Y-100819047D01*
X131980952Y-101390476D02*
X131933333Y-101295238D01*
X131885714Y-101247619D01*
X131790476Y-101200000D01*
X131742857Y-101200000D01*
X131647619Y-101247619D01*
X131600000Y-101295238D01*
X131552380Y-101390476D01*
X131552380Y-101580952D01*
X131600000Y-101676190D01*
X131647619Y-101723809D01*
X131742857Y-101771428D01*
X131790476Y-101771428D01*
X131885714Y-101723809D01*
X131933333Y-101676190D01*
X131980952Y-101580952D01*
X131980952Y-101390476D01*
X132028571Y-101295238D01*
X132076190Y-101247619D01*
X132171428Y-101200000D01*
X132361904Y-101200000D01*
X132457142Y-101247619D01*
X132504761Y-101295238D01*
X132552380Y-101390476D01*
X132552380Y-101580952D01*
X132504761Y-101676190D01*
X132457142Y-101723809D01*
X132361904Y-101771428D01*
X132171428Y-101771428D01*
X132076190Y-101723809D01*
X132028571Y-101676190D01*
X131980952Y-101580952D01*
X128752380Y-98300000D02*
X128990476Y-98300000D01*
X128895238Y-98061904D02*
X128990476Y-98300000D01*
X128895238Y-98538095D01*
X129180952Y-98157142D02*
X128990476Y-98300000D01*
X129180952Y-98442857D01*
G04 #@! TD*
M02*
