M48
;DRILL file {KiCad 5.0.2+dfsg1-1} date Sat 21 Nov 2020 04:46:30 PM GMT
;FORMAT={-:-/ absolute / metric / decimal}
FMAT,2
METRIC,TZ
T1C0.400
T2C0.600
T3C0.920
T4C1.000
T5C1.067
T6C1.100
T7C1.118
T8C1.500
T9C1.520
T10C1.700
T11C2.000
T12C2.330
%
G90
G05
T1
X64.9Y-117.4
X67.5Y-60.
X67.5Y-65.
X67.5Y-70.
X67.5Y-75.
X67.5Y-80.
X70.Y-105.
X71.12Y-75.565
X71.374Y-85.09
X72.5Y-65.
X74.3Y-102.2
X75.Y-80.
X75.Y-82.5
X76.25Y-106.25
X77.5Y-137.5
X78.3Y-92.4
X78.74Y-113.247
X80.Y-72.5
X80.Y-87.5
X80.Y-132.5
X80.Y-135.
X80.Y-137.5
X80.01Y-85.09
X80.645Y-68.58
X81.9Y-93.5
X81.915Y-79.245
X82.5Y-57.5
X82.5Y-132.5
X82.5Y-135.
X82.5Y-137.5
X83.Y-127.
X83.602Y-116.84
X84.Y-120.
X85.09Y-83.185
X86.Y-120.
X86.4Y-87.3
X86.8Y-98.3
X86.995Y-68.58
X87.9Y-92.4
X89.535Y-63.5
X89.535Y-67.31
X89.535Y-110.49
X89.645Y-74.82
X90.Y-132.5
X90.Y-135.
X90.Y-137.5
X90.1Y-79.8
X90.1Y-81.3
X90.1Y-85.8
X90.3Y-97.012
X90.3Y-100.
X90.607Y-69.305
X91.3Y-103.9
X91.4Y-101.8
X91.44Y-74.93
X92.075Y-110.49
X92.5Y-132.5
X92.5Y-135.
X92.5Y-137.5
X92.7Y-92.4
X92.7Y-99.987
X92.71Y-66.675
X92.9Y-102.2
X93.345Y-69.85
X93.98Y-73.66
X94.4Y-90.6
X94.615Y-76.925
X94.615Y-113.247
X95.Y-94.
X95.Y-132.5
X95.Y-135.
X95.Y-137.5
X95.Y-140.
X95.38Y-66.675
X95.4Y-82.9
X95.4Y-85.8
X96.5Y-82.4
X96.52Y-68.58
X97.Y-92.
X98.425Y-68.58
X99.06Y-66.675
X99.477Y-116.84
X99.695Y-77.47
X100.Y-120.
X100.33Y-62.865
X100.7Y-101.4
X100.7Y-103.9
X100.965Y-65.405
X100.965Y-68.58
X100.965Y-70.485
X100.965Y-71.755
X101.Y-97.
X101.6Y-66.675
X101.6Y-77.4
X102.Y-120.
X102.6Y-62.1
X102.798Y-77.542
X103.505Y-76.835
X103.505Y-85.09
X104.Y-91.
X104.212Y-84.383
X104.775Y-76.835
X105.Y-57.5
X105.Y-99.
X105.Y-137.5
X105.41Y-110.49
X106.045Y-79.375
X106.045Y-83.185
X107.Y-95.
X107.5Y-137.5
X107.95Y-110.49
X108.Y-77.4
X108.Y-91.
X108.Y-99.
X108.11Y-75.09
X108.235Y-67.885
X108.821Y-74.38
X108.824Y-71.075
X109.3Y-67.9
X109.7Y-69.2
X110.Y-95.
X110.Y-137.5
X110.Y-140.
X110.015Y-73.185
X110.49Y-113.247
X110.8Y-69.2
X110.805Y-91.55
X111.Y-99.
X112.5Y-132.5
X112.5Y-135.
X112.5Y-137.5
X112.5Y-140.
X113.03Y-116.205
X113.1Y-91.7
X113.1Y-94.5
X113.411Y-78.105
X113.411Y-81.915
X113.411Y-83.185
X114.7Y-89.6
X115.Y-137.5
X115.57Y-76.835
X115.61Y-80.15
X115.96Y-70.485
X116.2Y-86.8
X116.4Y-83.2
X117.5Y-137.5
X117.675Y-89.9
X117.8Y-72.9
X117.9Y-103.9
X117.932Y-101.173
X118.11Y-83.82
X118.9Y-68.6
X118.9Y-88.8
X119.Y-75.6
X119.4Y-82.
X120.Y-137.5
X120.07Y-106.29
X120.285Y-73.615
X120.724Y-90.891
X120.74Y-89.15
X120.95Y-83.257
X121.Y-80.7
X121.Y-97.
X121.285Y-73.615
X122.204Y-90.623
X122.295Y-115.18
X122.5Y-137.5
X122.6Y-78.5
X122.61Y-106.29
X123.Y-81.9
X123.8Y-88.6
X123.8Y-92.65
X124.Y-97.
X124.46Y-110.49
X124.7Y-72.4
X124.738Y-71.243
X125.095Y-83.64
X125.2Y-78.
X125.2Y-80.
X125.2Y-81.9
X125.6Y-74.6
X126.119Y-72.3
X126.365Y-85.09
X127.Y-97.
X127.2Y-82.2
X127.45Y-78.643
X128.1Y-80.6
X129.5Y-95.5
X129.599Y-75.514
X130.175Y-87.63
X131.185Y-115.18
X132.3Y-82.
X132.3Y-83.7
X132.8Y-71.
X132.8Y-72.
X134.6Y-95.8
X135.Y-120.
X135.Y-122.5
X135.3Y-71.8
X136.4Y-71.8
X136.6Y-56.8
X136.906Y-55.773
X137.5Y-71.8
X137.5Y-120.
X137.5Y-122.5
X138.2Y-75.5
X140.Y-73.6
X140.Y-74.6
X140.Y-75.6
X140.Y-120.
X140.Y-122.5
X141.017Y-57.389
X141.231Y-84.525
X141.6Y-94.9
X142.Y-76.
X142.24Y-85.09
X142.3Y-57.8
X142.5Y-120.
X142.6Y-68.5
X142.6Y-71.8
X142.7Y-94.9
X142.965Y-83.82
X143.8Y-68.5
X145.Y-68.5
X145.Y-120.
X145.6Y-71.6
X146.2Y-96.9
X146.293Y-80.587
X146.539Y-78.038
X146.7Y-76.
X146.785Y-82.14
X147.Y-68.
X147.5Y-130.
X147.5Y-132.5
X147.5Y-135.
X147.75Y-105.
X147.9Y-80.5
X147.9Y-83.7
X147.9Y-110.5
X147.91Y-91.21
X148.Y-77.5
X148.1Y-96.3
X148.75Y-106.
X149.153Y-103.8
X149.4Y-96.3
X150.Y-130.
X150.Y-132.5
X150.Y-135.
X150.5Y-110.3
X150.7Y-96.3
X151.4Y-99.4
X151.6Y-92.9
X151.982Y-85.09
X152.5Y-137.5
X152.7Y-77.4
X152.7Y-92.9
X153.Y-61.
X153.035Y-113.247
X153.7Y-92.9
X154.Y-69.
X154.Y-83.
X154.4Y-101.602
X154.6Y-104.
X154.94Y-78.31
X155.Y-137.5
X155.Y-140.
X155.2Y-93.4
X155.4Y-104.7
X155.601Y-91.85
X155.829Y-78.994
X156.4Y-93.4
X156.7Y-98.1
X156.8Y-100.7
X156.845Y-66.04
X156.972Y-77.089
X157.Y-69.
X157.Y-72.
X157.4Y-106.2
X157.5Y-120.
X157.897Y-116.84
X157.9Y-98.1
X158.098Y-105.462
X158.2Y-102.1
X158.565Y-104.635
X159.004Y-63.246
X159.361Y-91.55
X160.Y-120.
X160.6Y-67.7
X160.6Y-80.9
X160.6Y-93.2
X160.6Y-96.3
X160.7Y-101.1
X161.Y-63.
X161.29Y-70.485
X161.8Y-72.1
X161.8Y-75.2
X161.8Y-83.3
X161.8Y-86.9
X162.5Y-120.
X163.55Y-103.4
X163.83Y-110.49
X164.8Y-72.1
X164.8Y-105.1
X165.Y-137.5
X165.8Y-96.4
X166.Y-65.
X166.Y-68.
X166.37Y-110.49
X167.5Y-137.5
X167.6Y-85.1
X167.7Y-98.
X168.91Y-113.247
X169.Y-61.
X169.Y-65.
X169.Y-68.
X170.Y-137.5
X170.Y-140.
X171.Y-82.
X172.5Y-137.5
X172.5Y-140.
X173.Y-84.
X173.99Y-116.84
X174.Y-98.1
X174.7Y-96.8
X175.Y-120.
X176.Y-63.
X177.Y-66.
X177.2Y-83.7
X177.5Y-120.
X177.8Y-114.1
X178.Y-58.
X178.5Y-83.7
X179.07Y-62.865
X179.7Y-83.7
X179.705Y-110.49
X180.Y-130.
X180.Y-132.5
X180.Y-135.
X181.3Y-96.5
X182.1Y-98.7
X182.245Y-110.49
X182.5Y-130.
X182.5Y-132.5
X182.5Y-135.
X183.515Y-69.215
X183.8Y-59.4
X184.Y-64.
X184.785Y-113.247
X185.Y-137.5
X185.42Y-69.215
X186.Y-73.
X186.2Y-95.4
X187.Y-65.
X187.325Y-91.567
X187.5Y-137.5
X187.5Y-140.
X189.Y-59.
X189.Y-73.
X189.Y-85.
X189.647Y-116.84
X190.Y-120.
X190.5Y-69.215
X191.Y-59.
X191.264Y-89.682
X191.8Y-91.3
X191.9Y-100.45
X192.Y-83.
X192.Y-85.
X192.5Y-120.
X193.1Y-66.5
X193.1Y-69.3
X194.925Y-60.98
X194.945Y-59.055
X195.Y-130.
X195.Y-132.5
X195.Y-135.
X195.58Y-111.125
X196.6Y-92.3
X197.5Y-137.5
X198.12Y-110.49
X200.Y-137.5
X200.66Y-71.03
X200.66Y-113.247
X202.5Y-140.
X202.8Y-107.7
X203.Y-79.
X203.Y-81.
X204.787Y-114.3
X205.Y-74.
X205.Y-77.
X205.Y-79.
X205.Y-81.
X205.Y-127.5
X205.Y-140.
X206.3Y-108.8
X207.Y-57.2
X207.Y-60.2
X207.Y-62.8
X207.Y-65.4
X207.Y-68.
X207.Y-70.5
X207.Y-74.
X207.Y-77.
X207.Y-79.
X207.Y-81.
X207.5Y-122.5
X207.5Y-127.5
X207.5Y-130.
X207.5Y-132.5
X207.5Y-135.
X207.5Y-137.5
X207.5Y-140.
X207.7Y-95.
X207.7Y-99.7
X207.7Y-103.6
X207.8Y-92.6
T2
X132.1Y-96.7
T3
X76.74Y-63.54
X76.74Y-66.04
X78.74Y-63.54
X78.74Y-66.04
T4
X170.9Y-97.5
X170.9Y-102.5
X93.726Y-59.69
X96.266Y-59.69
X98.806Y-59.69
X101.346Y-59.69
X103.886Y-59.69
X116.205Y-94.615
X118.745Y-94.615
X121.285Y-94.615
X123.825Y-94.615
X126.365Y-94.615
X129.Y-110.96
X129.Y-113.5
X145.Y-110.96
X145.Y-113.5
X160.25Y-110.96
X160.25Y-113.5
X139.7Y-62.865
X139.7Y-65.405
X102.75Y-110.96
X102.75Y-113.5
X179.705Y-88.265
X182.245Y-88.265
X184.785Y-88.265
X187.325Y-88.265
X189.865Y-88.265
X144.78Y-62.865
X144.78Y-65.405
X76.25Y-113.5
X82.55Y-88.9
X85.09Y-88.9
X87.63Y-88.9
X90.17Y-88.9
X92.71Y-88.9
X192.Y-113.5
X115.5Y-110.96
X115.5Y-113.5
X179.8Y-79.3
X182.34Y-79.3
X184.88Y-79.3
X187.42Y-79.3
X189.96Y-79.3
X85.725Y-73.025
X85.725Y-75.565
X148.59Y-62.865
X148.59Y-65.405
X167.005Y-74.295
X167.005Y-76.835
X167.005Y-79.375
X167.005Y-81.915
X86.5Y-110.96
X86.5Y-113.5
X147.32Y-88.265
X149.86Y-88.265
X152.4Y-88.265
X154.94Y-88.265
X157.48Y-88.265
X204.47Y-59.055
X204.47Y-61.595
X204.47Y-64.135
X204.47Y-66.675
X204.47Y-69.215
X204.47Y-71.755
X155.702Y-59.69
X158.242Y-59.69
X160.782Y-59.69
X163.322Y-59.69
X165.862Y-59.69
X173.99Y-59.055
X173.99Y-61.595
X173.99Y-64.135
X173.99Y-66.675
X173.99Y-69.215
X173.99Y-71.755
X97.79Y-95.33
X97.79Y-100.33
X110.109Y-76.835
X110.109Y-79.375
X110.109Y-81.915
X110.109Y-84.455
X110.109Y-86.995
X110.109Y-89.535
X144.7Y-73.4
X147.24Y-73.4
X149.78Y-73.4
X152.32Y-73.4
T5
X144.145Y-123.19
X144.145Y-128.27
X85.725Y-123.19
X85.725Y-128.27
X175.895Y-123.19
X175.895Y-128.27
X69.85Y-123.19
X69.85Y-128.27
X191.77Y-123.19
X191.77Y-128.27
X101.6Y-123.19
X101.6Y-128.27
X160.02Y-123.19
X160.02Y-128.27
T6
X137.16Y-97.79
X139.7Y-97.79
X142.24Y-97.79
T7
X199.9Y-92.7
X199.9Y-95.24
X199.9Y-97.78
X199.9Y-100.32
X199.9Y-102.86
X199.9Y-105.4
X204.9Y-92.7
X204.9Y-95.24
X204.9Y-97.78
X204.9Y-100.32
X204.9Y-102.86
X204.9Y-105.4
X67.437Y-92.075
X67.437Y-94.615
X67.437Y-97.155
X67.437Y-99.695
X67.437Y-102.235
X67.437Y-104.775
X67.437Y-107.315
X67.437Y-109.855
X72.437Y-92.075
X72.437Y-94.615
X72.437Y-97.155
X72.437Y-99.695
X72.437Y-102.235
X72.437Y-104.775
X72.437Y-107.315
X72.437Y-109.855
T8
X197.231Y-80.645
T9
X85.725Y-140.97
X90.805Y-140.97
X191.77Y-140.97
X196.85Y-140.97
X160.02Y-140.97
X165.1Y-140.97
X116.205Y-140.97
X121.285Y-140.97
X69.85Y-140.97
X74.93Y-140.97
X101.6Y-140.97
X106.68Y-140.97
X175.895Y-140.97
X180.975Y-140.97
X130.175Y-140.97
X135.255Y-140.97
X144.145Y-140.97
X149.225Y-140.97
T10
X194.691Y-78.105
X194.691Y-83.185
X199.771Y-78.105
X199.771Y-83.185
T11
X120.9Y-129.5
X130.1Y-129.5
T12
X74.03Y-58.77
X74.03Y-70.81
T0
M30
